<svg width="176" height="68" viewBox="0 0 176 68" fill="none" xmlns="http://www.w3.org/2000/svg">
<g clip-path="url(#clip0_268_11656)">
<path fill-rule="evenodd" clip-rule="evenodd" d="M28.352 20.4267V29.9191H28.3225C26.045 29.9191 24.33 31.7231 24.33 34.0001C24.33 36.2176 26.045 38.022 28.3225 38.022H28.352V47.6329C20.515 47.455 14.2461 41.8655 14.2461 34.0001C14.2461 25.9267 20.4265 20.6337 28.352 20.4267ZM28.352 47.6329V38.022C30.6584 37.9925 32.3739 36.2176 32.3739 34.0001C32.3739 31.7231 30.6584 29.9486 28.352 29.9191V20.4267H41.9548V43.641C41.9548 45.415 42.0138 46.775 42.5463 47.6329H28.352ZM59.6982 20.4267V29.9191H59.6687C57.4212 29.9191 55.6762 31.7231 55.6762 34.0001C55.6762 36.2176 57.4212 38.022 59.6687 38.022H59.6982V47.8989H59.6687C58.4857 47.8989 57.5692 47.8104 56.5932 47.5444V55.9129C56.5932 59.0474 55.0847 60.2003 52.6007 60.2003H46.0058V24.4192C46.0058 22.3492 45.9473 21.2847 45.3848 20.4267H59.1957H59.6982ZM59.6982 47.8989V38.022C62.0047 37.9925 63.7201 36.2176 63.7201 34.0001C63.7201 31.7231 62.0047 29.9486 59.6982 29.9191V20.4267C67.6236 20.6332 73.804 25.9267 73.804 34.0001C73.804 41.6885 67.4761 47.8989 59.6982 47.8989ZM89.4474 48.0764H89.4769V38.0215H89.4474C87.2004 38.0215 85.4844 36.2176 85.4844 33.9996C85.4844 31.7231 87.2004 29.9191 89.4474 29.9191H89.4769V19.9832H89.4474C81.6405 19.9832 75.401 26.1046 75.401 34.0001C75.401 41.807 81.6405 48.0764 89.4474 48.0764ZM131.794 47.6329C131.233 46.775 131.203 45.415 131.203 43.6405V7.79932H120.38V43.3745C120.38 46.509 121.888 47.6325 124.372 47.6325L131.794 47.6329ZM109.941 47.6329H117.363C116.802 46.775 116.772 45.415 116.772 43.6405V7.79932H105.949V43.3745C105.949 46.509 107.457 47.6325 109.941 47.6325L109.941 47.6329ZM147.645 19.9832V29.9191H147.615C145.368 29.9191 143.623 31.7231 143.623 34.0001C143.623 36.2176 145.368 38.022 147.615 38.022H147.645V48.0764H147.615C139.779 48.0764 133.568 41.807 133.568 33.9996C133.568 26.1046 139.778 19.9832 147.615 19.9832H147.645ZM89.4769 48.0764C97.3728 48.0469 103.553 41.7775 103.553 33.9996C103.553 26.1046 97.3728 19.9832 89.4769 19.9832V29.9191C91.7834 29.9486 93.4989 31.7231 93.4989 34.0001C93.4989 36.2176 91.7834 37.992 89.4769 38.0215V48.0764ZM147.645 48.0764V38.022C149.951 37.9925 151.667 36.2176 151.667 33.9996C151.667 31.7231 149.951 29.9481 147.645 29.9191V19.9832C155.541 19.9832 161.751 26.1046 161.751 34.0001C161.751 41.7775 155.541 48.0764 147.645 48.0764Z" fill="white"/>
</g>
<defs>
<clipPath id="clip0_268_11656">
<rect width="147.525" height="52.401" fill="white" transform="translate(14.2363 7.79932)"/>
</clipPath>
</defs>
</svg>
