<svg width="165" height="66" viewBox="0 0 165 66" fill="none" xmlns="http://www.w3.org/2000/svg">
<path d="M102.689 24.1378C104.744 22.9864 106.25 21.4378 106.895 19.1026C107.999 15.0891 106.524 10.7026 102.834 8.63506C99.6038 6.81885 96.22 7.19993 92.6589 7.20804H85.2227V34.1432C85.2146 34.1432 92.3447 34.1432 92.3447 34.1432V25.727H96.3489L100.716 34.1513H104.454H108.321C106.468 30.8107 104.591 27.4783 102.689 24.1621V24.1378ZM99.3459 18.3567C98.1294 19.3134 96.5664 19.1351 95.084 19.127L92.3447 19.1107V13.7026C94.1736 13.7026 97.7266 13.3215 99.209 14.4161C100.45 15.3324 100.345 17.1891 99.3459 18.3567Z" fill="#FDFDFD"/>
<path d="M26.4658 7.19984C23.8877 7.19984 21.1484 7.1512 18.5864 7.19984L8.51562 34.1269H16.2097L18.24 28.2971H26.6753L26.8525 28.3377C27.0781 28.7107 27.4407 29.8782 27.6018 30.3323L28.8989 34.1269H36.6011L26.4578 7.19174L26.4658 7.19984ZM22.6792 22.4269H20.0447C20.8423 19.8728 21.6318 17.1647 22.502 14.6512C22.7598 14.9755 24.7981 21.4863 25.1123 22.435H22.6792V22.4269Z" fill="#FDFDFD"/>
<path d="M130.002 15.6975C128.955 12.9245 127.875 9.91641 126.779 7.2002H119.005L108.926 34.1353H116.58C117.272 32.1894 117.949 30.2515 118.618 28.3056H127.142C127.48 28.5164 129.003 33.3326 129.277 34.1353H136.971L130.002 15.7056V15.6975ZM123.146 22.4272H120.406C121.252 19.857 121.961 17.238 122.84 14.6597C123.114 15.0002 125.144 21.5272 125.434 22.4272H123.146Z" fill="#FDFDFD"/>
<path d="M47.9048 6.84333C51.6592 6.519 55.2041 7.98657 57.8467 10.6217L53.7539 15.0406C52.0459 13.5893 48.8313 12.0893 46.7446 13.946C44.9319 15.7785 48.4929 17.0271 49.6853 17.4325C54.2212 18.9568 58.894 20.7163 58.7812 26.3352C58.7571 28.4839 57.8547 30.5352 56.2837 31.9947C53.7297 34.4109 50.4829 34.8893 47.1313 34.7758C43.1594 34.3622 40.6055 33.1541 37.7695 30.3406C39.1714 28.8487 40.5571 27.3487 41.9429 25.8406C43.4414 27.292 45.5522 28.6136 47.6711 28.5244C48.509 28.5406 50.0962 28.2244 50.6038 27.4866C52.207 25.1676 48.8555 24.1541 47.5503 23.7163C45.1494 22.9055 42.8291 22.0947 40.9438 20.5622C37.8823 18.0731 37.8743 12.9731 40.3799 10.119C42.2813 7.93792 45.0688 7.04603 47.8967 6.85143L47.9048 6.84333Z" fill="#FDFDFD"/>
<path d="M59.9648 7.20003C62.3496 7.14327 64.9277 7.20003 67.3286 7.20003H81.8628V13.7108H74.5151V27.0892V34.1271H67.3125V13.7027H59.9648V7.20003Z" fill="#FDFDFD"/>
<path d="M139.002 7.2002H146.164V27.2029H157.395V34.1029C156.968 34.1597 155.873 34.1434 155.405 34.1353H151.715C151.715 34.1272 139.01 34.1353 139.01 34.1353V7.2002H139.002Z" fill="#FDFDFD"/>
<path d="M38.8179 47.5133C38.5037 45.7539 37.5933 44.2701 36.127 43.2485C35.3132 42.689 34.3948 42.3079 33.436 42.1295C32.0986 41.8701 30.2859 41.9349 28.884 41.9349H23.1155L23.1074 61.3701H28.3362V55.4836C29.4399 55.4836 32.0261 55.5485 33.0171 55.3863C34.9829 55.0295 36.554 54.316 37.7383 52.6133C38.7534 51.1295 39.1401 49.2971 38.8179 47.5214V47.5133ZM33.0896 50.1566C31.865 51.0647 29.8992 50.8133 28.3362 50.7971V46.6133C29.9717 46.6133 32.8962 46.1106 33.573 48.0404C33.8711 48.8917 33.6375 49.4917 33.0896 50.1647V50.1566Z" fill="#FDFDFD"/>
<path d="M68.9739 47.2377C68.6436 45.5512 67.6365 44.0755 66.1943 43.1512C65.3806 42.6323 64.4702 42.2755 63.5115 42.1052C62.2627 41.8701 60.6191 41.935 59.3059 41.935H53.3359L53.344 61.3782H58.5405V55.4755C59.6685 55.4755 62.1982 55.5485 63.2134 55.3944C63.7532 55.289 64.2366 55.1998 64.7522 55.0214C68.0151 53.9025 69.6426 50.5539 68.9578 47.2377H68.9739ZM63.3342 50.1728C62.1499 51.0728 60.0955 50.8133 58.5566 50.8052V46.6133C59.1931 46.6133 59.9182 46.6133 60.5466 46.5971C62.0049 46.5485 63.7612 46.6944 63.9304 48.535C63.9949 49.2241 63.7773 49.6539 63.3342 50.1728Z" fill="#FDFDFD"/>
<path d="M73.1055 41.9432H87.9539V46.4188H78.3503V49.4351H85.7463V53.627C84.9246 53.627 78.6404 53.5459 78.3745 53.7161L78.3584 53.9756V56.8945H88.1633V61.3621H73.1135V41.9351L73.1055 41.9432Z" fill="#FDFDFD"/>
<path d="M97.6152 41.4566C100.532 41.0837 103.231 42.0891 105.374 44.0593L102.336 47.2782C101.458 46.5647 100.701 45.9323 99.4763 45.8026C98.4451 45.6972 96.9062 46.1674 96.9546 47.4809C96.9868 48.4539 98.6384 48.9891 99.436 49.2485C101.192 49.8242 103.142 50.3756 104.52 51.7134C106.711 53.8215 106.389 57.6485 104.294 59.6999C102.578 61.3783 100.363 61.9053 98.0422 61.9134C94.876 61.7107 92.8699 60.7945 90.5898 58.5728L93.6352 55.4188C94.9726 56.6674 96.2375 57.5999 98.2034 57.3728C99.1541 57.2593 100.483 56.6269 100.29 55.4593C100.064 54.2269 98.6465 53.7891 97.6152 53.4728C94.8035 52.6053 91.7419 51.5512 91.3713 48.1539C91.1941 46.5485 91.5647 45.1945 92.5879 43.9215C93.8931 42.2918 95.6011 41.6755 97.6152 41.4485V41.4566Z" fill="#FDFDFD"/>
<path d="M42.9749 41.9432H48.2036V54.4378C48.2036 55.2324 48.2761 61.0621 48.1069 61.3378L47.8652 61.3702H42.9749L42.9668 41.9351L42.9749 41.9432Z" fill="#FDFDFD"/>
<path d="M143.327 2.87016C143.472 2.72422 143.537 2.54584 143.585 2.35124C143.424 1.62962 142.135 1.75935 141.547 1.77557C141.547 2.25395 141.466 4.15935 141.635 4.45935C141.877 4.45935 141.764 4.49989 141.965 4.35394C142.054 4.0134 142.135 3.66475 142.215 3.32421V3.34043H142.433C142.787 3.76205 142.9 4.0053 143.166 4.49178L143.496 4.45124L143.593 4.32962C143.391 3.67286 142.658 3.57557 143.327 2.87827V2.87016ZM142.127 2.88637C141.949 2.57827 142.014 2.58638 142.014 2.17286C142.336 2.17286 142.699 2.11611 142.964 2.27016C143.142 2.55394 143.085 2.47286 143.11 2.84583C142.819 2.92691 142.401 3.04043 142.135 2.87827L142.127 2.88637Z" fill="#FDFDFD"/>
<path d="M145.012 2.74065C144.803 1.35416 143.521 0.397406 142.144 0.608216C140.774 0.819027 139.832 2.10822 140.033 3.48659C140.234 4.86497 141.515 5.82173 142.885 5.61903C144.263 5.41632 145.221 4.12714 145.012 2.73254V2.74065ZM142.974 5.21362C141.83 5.46497 140.694 4.73524 140.436 3.58389C140.178 2.43254 140.903 1.2893 142.047 1.02984C143.199 0.77038 144.343 1.50011 144.601 2.65957C144.859 3.81903 144.126 4.97038 142.974 5.22173V5.21362Z" fill="#FDFDFD"/>
<path d="M143.327 2.87016C143.472 2.72422 143.537 2.54584 143.585 2.35124C143.424 1.62962 142.135 1.75935 141.547 1.77557C141.547 2.25395 141.466 4.15935 141.635 4.45935C141.877 4.45935 141.764 4.49989 141.965 4.35394C142.054 4.0134 142.135 3.66475 142.215 3.32421V3.34043H142.433C142.787 3.76205 142.9 4.0053 143.166 4.49178L143.496 4.45124L143.593 4.32962C143.391 3.67286 142.658 3.57557 143.327 2.87827V2.87016ZM142.127 2.88637C141.949 2.57827 142.014 2.58638 142.014 2.17286C142.336 2.17286 142.699 2.11611 142.964 2.27016C143.142 2.55394 143.085 2.47286 143.11 2.84583C142.819 2.92691 142.401 3.04043 142.135 2.87827L142.127 2.88637Z" fill="#000201"/>
<path d="M143.327 2.87016C143.472 2.72422 143.537 2.54584 143.585 2.35124C143.424 1.62962 142.135 1.75935 141.547 1.77557C141.547 2.25395 141.466 4.15935 141.635 4.45935C141.877 4.45935 141.764 4.49989 141.965 4.35394C142.054 4.0134 142.135 3.66475 142.215 3.32421V3.34043H142.433C142.787 3.76205 142.9 4.0053 143.166 4.49178L143.496 4.45124L143.593 4.32962C143.391 3.67286 142.658 3.57557 143.327 2.87827V2.87016ZM142.127 2.88637C141.949 2.57827 142.014 2.58638 142.014 2.17286C142.336 2.17286 142.699 2.11611 142.964 2.27016C143.142 2.55394 143.085 2.47286 143.11 2.84583C142.819 2.92691 142.401 3.04043 142.135 2.87827L142.127 2.88637Z" fill="#FDFDFD"/>
</svg>
