<svg width="82" height="50" viewBox="0 0 82 50" fill="none" xmlns="http://www.w3.org/2000/svg">
<g clip-path="url(#clip0_268_12517)">
<path d="M23.3057 18.2418C23.3057 19.2583 23.4136 20.0825 23.6024 20.6869C23.8182 21.2913 24.0879 21.9506 24.4656 22.6649C24.6004 22.8847 24.6544 23.1044 24.6544 23.2968C24.6544 23.5715 24.4925 23.8462 24.1419 24.1209L22.4425 25.2748C22.1998 25.4396 21.957 25.522 21.7412 25.522C21.4715 25.522 21.2017 25.3847 20.932 25.1374C20.5544 24.7253 20.2307 24.2858 19.9609 23.8462C19.6912 23.3792 19.4215 22.8572 19.1248 22.2253C17.0208 24.7528 14.3774 26.0165 11.1945 26.0165C8.92871 26.0165 7.12147 25.3572 5.79976 24.0385C4.47805 22.7198 3.80371 20.9616 3.80371 18.7638C3.80371 16.4286 4.61292 14.533 6.25832 13.1044C7.90371 11.6759 10.0886 10.9616 12.8669 10.9616C13.784 10.9616 14.7281 11.044 15.7261 11.1814C16.7241 11.3187 17.7491 11.5385 18.8281 11.7858V9.78027C18.8281 7.69236 18.3965 6.23631 17.5603 5.38466C16.6971 4.53302 15.2406 4.12093 13.1636 4.12093C12.2195 4.12093 11.2484 4.23082 10.2504 4.47807C9.25239 4.72532 8.28134 5.02752 7.33726 5.41214C6.90568 5.60444 6.582 5.71433 6.39318 5.76928C6.20437 5.82422 6.0695 5.8517 5.96161 5.8517C5.58397 5.8517 5.39516 5.57697 5.39516 5.00005V3.65389C5.39516 3.21433 5.44911 2.88466 5.58397 2.69236C5.71884 2.50005 5.96161 2.30774 6.33924 2.11543C7.28332 1.62093 8.41621 1.20884 9.73792 0.879169C11.0596 0.522026 12.4623 0.357191 13.9458 0.357191C17.1557 0.357191 19.5024 1.09895 21.0129 2.58247C22.4965 4.06598 23.2517 6.31873 23.2517 9.34071V18.2418H23.3057ZM12.3544 22.4176C13.2445 22.4176 14.1616 22.2528 15.1327 21.9231C16.1037 21.5935 16.9669 20.9891 17.6952 20.1649C18.1267 19.6429 18.4504 19.066 18.6123 18.4066C18.7741 17.7473 18.882 16.9506 18.882 16.0165V14.8627C18.0998 14.6704 17.2636 14.5055 16.4004 14.3957C15.5373 14.2858 14.7011 14.2308 13.8649 14.2308C12.0577 14.2308 10.7359 14.588 9.84582 15.3297C8.95568 16.0715 8.52411 17.1154 8.52411 18.4891C8.52411 19.7803 8.84779 20.7418 9.52213 21.4011C10.1695 22.088 11.1136 22.4176 12.3544 22.4176ZM34.0142 25.3847C33.5287 25.3847 33.205 25.3022 32.9892 25.1099C32.7734 24.9451 32.5846 24.5605 32.4228 24.0385L26.084 2.80225C25.9221 2.2528 25.8412 1.89565 25.8412 1.70334C25.8412 1.26378 26.057 1.01653 26.4886 1.01653H29.132C29.6445 1.01653 29.9952 1.09895 30.184 1.29126C30.3998 1.45609 30.5616 1.84071 30.7234 2.36269L35.255 20.5495L39.4629 2.36269C39.5978 1.81324 39.7596 1.45609 39.9754 1.29126C40.1912 1.12642 40.5688 1.01653 41.0544 1.01653H43.2123C43.7248 1.01653 44.0754 1.09895 44.2912 1.29126C44.507 1.45609 44.6958 1.84071 44.8037 2.36269L49.0655 20.7693L53.732 2.36269C53.8938 1.81324 54.0827 1.45609 54.2715 1.29126C54.4873 1.12642 54.8379 1.01653 55.3234 1.01653H57.832C58.2636 1.01653 58.5063 1.23631 58.5063 1.70334C58.5063 1.84071 58.4794 1.97807 58.4524 2.14291C58.4254 2.30774 58.3715 2.52752 58.2636 2.82972L51.7629 24.066C51.6011 24.6154 51.4123 24.9726 51.1965 25.1374C50.9807 25.3022 50.63 25.4121 50.1715 25.4121H47.8517C47.3392 25.4121 46.9886 25.3297 46.7728 25.1374C46.557 24.9451 46.3682 24.588 46.2603 24.0385L42.0794 6.31873L37.9254 24.011C37.7906 24.5605 37.6287 24.9176 37.4129 25.1099C37.1971 25.3022 36.8195 25.3847 36.334 25.3847H34.0142ZM68.6754 26.1264C67.2728 26.1264 65.8702 25.9616 64.5215 25.6319C63.1728 25.3022 62.1208 24.9451 61.4195 24.533C60.9879 24.2858 60.6912 24.011 60.5833 23.7638C60.4754 23.5165 60.4215 23.2418 60.4215 22.9946V21.5935C60.4215 21.0165 60.6373 20.7418 61.0419 20.7418C61.2037 20.7418 61.3655 20.7693 61.5274 20.8242C61.6892 20.8792 61.932 20.9891 62.2017 21.0989C63.1188 21.511 64.1169 21.8407 65.1688 22.0605C66.2478 22.2803 67.2998 22.3902 68.3787 22.3902C70.078 22.3902 71.3998 22.088 72.3169 21.4836C73.234 20.8792 73.7195 20 73.7195 18.8737C73.7195 18.1044 73.4767 17.4726 72.9912 16.9506C72.5057 16.4286 71.5886 15.9616 70.2669 15.522L66.3557 14.2858C64.3866 13.6539 62.93 12.7198 62.0399 11.4836C61.1498 10.2748 60.6912 8.92862 60.6912 7.50005C60.6912 6.3462 60.934 5.32972 61.4195 4.4506C61.905 3.57148 62.5524 2.80225 63.3616 2.19785C64.1708 1.56598 65.0879 1.09895 66.1669 0.769279C67.2458 0.439609 68.3787 0.302246 69.5655 0.302246C70.159 0.302246 70.7794 0.329719 71.3728 0.412136C71.9932 0.494554 72.5596 0.604444 73.1261 0.714334C73.6655 0.851697 74.178 0.989059 74.6636 1.15389C75.1491 1.31873 75.5267 1.48356 75.7965 1.6484C76.1741 1.86818 76.4438 2.08796 76.6057 2.33521C76.7675 2.55499 76.8484 2.85719 76.8484 3.24181V4.53301C76.8484 5.10994 76.6327 5.41214 76.228 5.41214C76.0123 5.41214 75.6616 5.30225 75.203 5.08247C73.6655 4.36818 71.9392 4.01104 70.0241 4.01104C68.4866 4.01104 67.2728 4.25829 66.4366 4.78027C65.6004 5.30225 65.1688 6.09895 65.1688 7.22532C65.1688 7.99455 65.4386 8.65389 65.978 9.17587C66.5175 9.69785 67.5155 10.2198 68.9452 10.6869L72.7754 11.9231C74.7175 12.555 76.1201 13.4341 76.9563 14.5605C77.7925 15.6869 78.1971 16.9781 78.1971 18.4066C78.1971 19.588 77.9544 20.6594 77.4958 21.5935C77.0103 22.5275 76.3629 23.3517 75.5267 24.011C74.6905 24.6978 73.6925 25.1924 72.5327 25.5495C71.3188 25.9341 70.0511 26.1264 68.6754 26.1264Z" fill="#CDCDCD"/>
<path fill-rule="evenodd" clip-rule="evenodd" d="M73.7733 39.4779C64.899 46.1537 52.0055 49.6977 40.9194 49.6977C25.3825 49.6977 11.3832 43.846 0.809489 34.1207C-0.0266948 33.3515 0.728568 32.3076 1.72659 32.912C13.1634 39.6702 27.2707 43.7636 41.8634 43.7636C51.7088 43.7636 62.5253 41.6757 72.4786 37.39C73.9621 36.7032 75.2299 38.379 73.7733 39.4779Z" fill="white"/>
<path fill-rule="evenodd" clip-rule="evenodd" d="M77.4683 35.1922C76.3354 33.7087 69.9696 34.4779 67.0835 34.8351C66.2203 34.945 66.0854 34.1757 66.8677 33.5988C71.9387 29.9724 80.2736 31.0164 81.2446 32.2252C82.2157 33.4614 80.9749 41.9505 76.2275 46.0164C75.4993 46.6483 74.7979 46.3186 75.1216 45.4944C76.2006 42.7746 78.6012 36.6483 77.4683 35.1922Z" fill="white"/>
</g>
<defs>
<clipPath id="clip0_268_12517">
<rect width="82" height="50" fill="white"/>
</clipPath>
</defs>
</svg>
