<svg width="228" height="40" viewBox="0 0 228 40" fill="none" xmlns="http://www.w3.org/2000/svg">
<g clip-path="url(#clip0_268_12470)">
<path fill-rule="evenodd" clip-rule="evenodd" d="M55.1871 34.9998H44.5517L38.0938 23.2925H48.7275L55.1871 34.9998Z" fill="white"/>
<path fill-rule="evenodd" clip-rule="evenodd" d="M38.5548 5L44.0389 14.0569L31.9198 34.2683H21L38.5548 5Z" fill="white"/>
<path fill-rule="evenodd" clip-rule="evenodd" d="M87.472 15.8002C87.2482 15.437 86.9793 15.1699 86.667 14.9988C86.3548 14.826 85.9662 14.7422 85.4978 14.7422C84.9722 14.7422 84.5697 14.8609 84.2921 15.1018C84.0146 15.341 83.8758 15.643 83.8758 16.0062C83.8758 16.6137 84.3181 17.0466 85.2046 17.3015L86.4485 17.6699C87.4512 17.9632 88.1902 18.3734 88.6638 18.8971C89.1357 19.4226 89.3733 20.0476 89.3733 20.7738C89.3733 21.2347 89.2831 21.6642 89.101 22.0605C88.9223 22.4585 88.6638 22.8024 88.3272 23.0905C87.9907 23.3803 87.583 23.6089 87.1059 23.7748C86.6289 23.9424 86.098 24.0244 85.5134 24.0244C84.332 24.0244 83.4022 23.7608 82.7204 23.2301C82.0369 22.7012 81.6292 21.9365 81.4922 20.9344L83.305 20.5975C83.4109 21.2539 83.6537 21.7427 84.0302 22.0605C84.4032 22.3799 84.8993 22.5388 85.5134 22.5388C86.1449 22.5388 86.6341 22.3852 86.9758 22.0762C87.3159 21.7672 87.4876 21.3674 87.4876 20.8768C87.4876 20.6115 87.4425 20.3863 87.3558 20.1995C87.2673 20.0144 87.1441 19.8486 86.9828 19.7072C86.8214 19.564 86.6323 19.4436 86.412 19.3458C86.1934 19.248 85.9558 19.1607 85.7025 19.0804L84.5038 18.7278C83.6468 18.4729 83.0136 18.1185 82.6024 17.6611C82.193 17.2055 81.9883 16.6538 81.9883 16.0062C81.9883 15.6046 82.0716 15.2345 82.2364 14.8958C82.4029 14.5572 82.6406 14.2674 82.9477 14.0282C83.253 13.7873 83.619 13.5987 84.0423 13.4608C84.4673 13.3247 84.9427 13.2548 85.47 13.2548C86.3652 13.2548 87.0955 13.4189 87.6611 13.7489C88.2284 14.0771 88.6516 14.5205 88.9344 15.0792L87.472 15.8002ZM77.9098 23.8342H79.7661V13.4312H77.9098V23.8342ZM70.3652 18.3891L66.8853 13.4312H69.0191L71.4478 17.0222L73.8886 13.4312H75.9946L72.4713 18.4048L76.2878 23.8342H74.1523L71.4026 19.8329L68.6253 23.8342H66.4758L70.3652 18.3891ZM58.4785 20.0232H62.2065L60.3798 16.4618L58.4785 20.0232ZM62.9525 21.4948H57.703L56.4314 23.8342H54.4434L60.3937 13.0488L66.2278 23.8342H64.2102L62.9525 21.4948Z" fill="white"/>
<path fill-rule="evenodd" clip-rule="evenodd" d="M101.04 19.661C100.843 19.3176 100.647 18.9428 100.455 18.5366C100.261 18.1305 100.079 17.7208 99.9115 17.3094C99.8621 17.8585 99.7916 18.4129 99.7034 18.9707C99.6134 19.5286 99.5147 20.0585 99.4053 20.5571L98.7228 23.7752H96.8057L99.2131 13.0488L103.495 20.4978L107.774 13.0488L110.183 23.7752H108.266L107.582 20.5571C107.471 20.0585 107.372 19.5286 107.277 18.9707C107.181 18.4129 107.109 17.8585 107.061 17.3094C106.892 17.7208 106.712 18.1305 106.518 18.5366C106.326 18.9428 106.135 19.3176 105.945 19.661L103.495 24.0244L101.04 19.661Z" fill="white"/>
<path fill-rule="evenodd" clip-rule="evenodd" d="M114.423 21.6381C114.927 22.1341 115.619 22.3831 116.499 22.3831C117.382 22.3831 118.073 22.1341 118.579 21.6381C119.081 21.1421 119.333 20.4423 119.333 19.5404V13.0488H121.33V19.6017C121.33 20.2691 121.224 20.8752 121.007 21.4181C120.793 21.9592 120.481 22.4245 120.07 22.8087C119.663 23.1929 119.155 23.4923 118.554 23.7052C117.951 23.918 117.264 24.0244 116.499 24.0244C115.722 24.0244 115.037 23.918 114.44 23.7052C113.84 23.4923 113.338 23.1929 112.927 22.8087C112.518 22.4245 112.207 21.9592 111.992 21.4181C111.777 20.8752 111.669 20.2691 111.669 19.6017V13.0488H113.668V19.5404C113.668 20.4423 113.919 21.1421 114.423 21.6381Z" fill="white"/>
<path fill-rule="evenodd" clip-rule="evenodd" d="M122.074 13.0488H130.993V14.5857H127.515V23.2927H125.551V14.5857H122.074V13.0488Z" fill="white"/>
<path fill-rule="evenodd" clip-rule="evenodd" d="M134.491 21.6381C134.995 22.1341 135.686 22.3831 136.567 22.3831C137.448 22.3831 138.141 22.1341 138.645 21.6381C139.147 21.1421 139.399 20.4423 139.399 19.5404V13.0488H141.397V19.6017C141.397 20.2691 141.29 20.8752 141.074 21.4181C140.859 21.9592 140.547 22.4245 140.138 22.8087C139.73 23.1929 139.224 23.4923 138.621 23.7052C138.018 23.918 137.332 24.0244 136.567 24.0244C135.79 24.0244 135.103 23.918 134.506 23.7052C133.908 23.4923 133.404 23.1929 132.996 22.8087C132.585 22.4245 132.275 21.9592 132.058 21.4181C131.844 20.8752 131.735 20.2691 131.735 19.6017V13.0488H133.735V19.5404C133.735 20.4423 133.985 21.1421 134.491 21.6381Z" fill="white"/>
<path fill-rule="evenodd" clip-rule="evenodd" d="M146.211 20.1462H149.973L148.13 16.522L146.211 20.1462ZM150.726 21.6438H145.431L144.146 24.0244H142.14L148.144 13.0488L154.031 24.0244H151.995L150.726 21.6438Z" fill="white"/>
<path fill-rule="evenodd" clip-rule="evenodd" d="M155.518 13.0488H157.257V21.7559H161.463V23.2927H155.518V13.0488Z" fill="white"/>
<path fill-rule="evenodd" clip-rule="evenodd" d="M168.895 13.0488H175.583V14.5857H170.777V17.2949H175.152V18.83H170.777V23.2927H168.895V13.0488Z" fill="white"/>
<path fill-rule="evenodd" clip-rule="evenodd" d="M179.826 21.6381C180.33 22.1341 181.023 22.3831 181.902 22.3831C182.783 22.3831 183.476 22.1341 183.98 21.6381C184.482 21.1421 184.734 20.4423 184.734 19.5404V13.0488H186.732V19.6017C186.732 20.2691 186.625 20.8752 186.409 21.4181C186.196 21.9592 185.882 22.4245 185.473 22.8087C185.065 23.1929 184.559 23.4923 183.956 23.7052C183.353 23.918 182.667 24.0244 181.902 24.0244C181.125 24.0244 180.438 23.918 179.841 23.7052C179.243 23.4923 178.739 23.1929 178.331 22.8087C177.92 22.4245 177.61 21.9592 177.393 21.4181C177.179 20.8752 177.07 20.2691 177.07 19.6017V13.0488H179.07V19.5404C179.07 20.4423 179.32 21.1421 179.826 21.6381Z" fill="white"/>
<path fill-rule="evenodd" clip-rule="evenodd" d="M190.892 16.8345V23.6741H188.961V13.0488L198.178 20.2387V13.3402H200.109V24.0244L190.892 16.8345Z" fill="white"/>
<path fill-rule="evenodd" clip-rule="evenodd" d="M206.143 21.7559C206.757 21.7559 207.305 21.6717 207.788 21.5032C208.27 21.333 208.678 21.0923 209.011 20.7777C209.343 20.4649 209.597 20.0832 209.773 19.6328C209.948 19.1842 210.038 18.6839 210.038 18.1338C210.038 17.5923 209.948 17.1024 209.773 16.664C209.597 16.2239 209.343 15.8492 209.011 15.5398C208.678 15.232 208.27 14.9948 207.788 14.8298C207.305 14.6665 206.757 14.584 206.143 14.584H204.255V21.7559H206.143ZM202.339 13.0488H206.187C207.065 13.0488 207.862 13.1743 208.58 13.4253C209.3 13.6763 209.91 14.027 210.415 14.4757C210.917 14.9243 211.307 15.4607 211.585 16.083C211.861 16.7053 212 17.3895 212 18.1338C212 18.8868 211.861 19.5796 211.585 20.2139C211.307 20.8465 210.917 21.3914 210.415 21.8504C209.91 22.3094 209.303 22.6636 208.589 22.9145C207.874 23.1655 207.074 23.2927 206.187 23.2927H202.339V13.0488Z" fill="white"/>
</g>
<defs>
<clipPath id="clip0_268_12470">
<rect width="191" height="30" fill="white" transform="translate(21 5)"/>
</clipPath>
</defs>
</svg>
