<svg width="191" height="76" viewBox="0 0 191 76" fill="none" xmlns="http://www.w3.org/2000/svg">
<path d="M166.475 12.3555H21.1279V43.5253H166.475V12.3555Z" fill="#4A4A4A"/>
<path d="M166.475 44.9443H21.1279V61.347H166.475V44.9443Z" fill="#4A4A4A"/>
<path fill-rule="evenodd" clip-rule="evenodd" d="M34.5246 54.0594L36.0992 48.2632H39.636V57.8114H36.9471V54.0594L37.1409 52.0151L35.6147 57.8114H33.483L31.9326 51.9189L32.1264 54.0594V57.8114H29.4375V48.2632H32.9985L34.5246 54.0594Z" fill="white"/>
<path fill-rule="evenodd" clip-rule="evenodd" d="M46.9999 48.2632V54.2759C46.9999 54.7329 47.121 55.0936 47.4117 55.3582C47.6782 55.5987 47.9931 55.743 48.3322 55.767H48.4534H48.526C48.8167 55.743 49.0832 55.5987 49.3497 55.3341C49.5919 55.0936 49.7373 54.7329 49.7373 54.2999V48.2872H52.7169V54.2999C52.7169 55.5506 52.3293 56.5126 51.5541 57.162C50.7789 57.8354 49.713 58.1481 48.3565 58.1481C47.0241 58.1481 45.9582 57.8114 45.2315 57.1379C44.5048 56.4645 44.1172 55.4544 44.1172 54.1075V48.2872H46.9999" fill="white"/>
<path fill-rule="evenodd" clip-rule="evenodd" d="M64.9508 48.2632V50.8366H62.3587V57.8114H59.3549V50.8366H56.7871V48.2632H64.9508Z" fill="white"/>
<path fill-rule="evenodd" clip-rule="evenodd" d="M72.1444 48.2632V54.2759C72.1444 54.7329 72.2898 55.0936 72.5562 55.3582C72.8227 55.5987 73.1134 55.743 73.4525 55.767H73.5737H73.6221C73.9128 55.743 74.2035 55.5987 74.4458 55.3341C74.7122 55.0936 74.8333 54.7329 74.8333 54.2999V48.2872H77.813V54.2999C77.813 55.5506 77.4254 56.5126 76.6744 57.162C75.8992 57.8354 74.8333 58.1481 73.4768 58.1481C72.1202 58.1481 71.0786 57.8114 70.3518 57.1379C69.6251 56.4645 69.2617 55.4544 69.2617 54.1075V48.2872H72.1444" fill="white"/>
<path fill-rule="evenodd" clip-rule="evenodd" d="M87.9149 48.2632L91.0884 57.7873H88.1087L87.818 56.5607H84.9353L84.6204 57.7873H81.665L84.8384 48.2632H87.9149ZM87.2124 54.6126L86.3646 51.51L85.5167 54.6126H87.2124Z" fill="white"/>
<path fill-rule="evenodd" clip-rule="evenodd" d="M98.0896 48.2632V55.5506H102.111V57.8114H95.1826V48.2632H98.0896Z" fill="white"/>
<path fill-rule="evenodd" clip-rule="evenodd" d="M120.158 48.3594V50.4277H116.209V52.3278H119.383V54.6126H116.209V57.8114H113.229V48.3594H120.158Z" fill="white"/>
<path fill-rule="evenodd" clip-rule="evenodd" d="M127.4 48.2632V54.2759C127.4 54.7329 127.546 55.0936 127.836 55.3582C128.103 55.5987 128.393 55.743 128.733 55.767H128.854H128.902C129.193 55.743 129.484 55.5987 129.726 55.3341C129.992 55.0936 130.113 54.7329 130.113 54.2999V48.2872H133.093V54.2999C133.093 55.5506 132.705 56.5126 131.93 57.162C131.155 57.8354 130.113 58.1481 128.733 58.1481C127.376 58.1481 126.334 57.8114 125.608 57.1379C124.881 56.4645 124.518 55.4544 124.518 54.1075V48.2872H127.4" fill="white"/>
<path fill-rule="evenodd" clip-rule="evenodd" d="M140.482 48.2632L143.583 53.2417L143.486 51.7024V48.2632H146.368V57.8114H143.583L140.482 52.7126L140.579 54.2759V57.8114H137.793V48.2632H140.482Z" fill="white"/>
<path fill-rule="evenodd" clip-rule="evenodd" d="M154.629 48.2871C154.896 48.2871 155.187 48.3112 155.526 48.3833C155.865 48.4314 156.204 48.5276 156.543 48.6719C157.246 48.9365 157.9 49.3934 158.481 50.0428C159.062 50.7162 159.377 51.6542 159.426 52.8808V53.1213C159.426 54.853 158.99 56.0796 158.142 56.8011C157.27 57.4986 156.156 57.8593 154.799 57.8593L150.947 57.8353V48.2871H154.629ZM153.83 55.5505L153.927 55.5745H154L154.072 55.5986H154.145C154.823 55.5986 155.38 55.4062 155.792 55.0454C156.228 54.6846 156.422 53.9872 156.422 52.977C156.422 51.9909 156.228 51.3416 155.816 51.0289C155.405 50.7403 154.896 50.5479 154.266 50.5479L153.806 50.5238V55.5505H153.83Z" fill="white"/>
<path d="M153.586 20.9893C153.586 20.9893 149.371 18.6323 144.284 18.6323C139.197 18.6323 132.487 22.0956 132.148 28.9501C132.148 28.9501 131.93 39.5806 144.236 39.5806C151.6 39.2679 154.386 36.8388 154.386 36.8388L151.285 32.0286C151.285 32.0286 147.579 34.1932 144.236 34.0489C140.869 33.9046 138.64 31.4274 138.519 29.383C138.398 27.3147 140.239 24.5248 144.236 24.164C148.209 23.8032 151.624 25.9919 151.624 25.9919L153.586 20.9893Z" fill="#010101"/>
<path d="M62.916 18.6323H68.7783V25.9678H77.8383V18.6323H83.7006V39.2679H77.8383V31.3071H68.7783V39.2679H62.916V18.6323Z" fill="#010101"/>
<path d="M93.8018 23.948V33.9772H98.6224C98.6224 33.9772 103.08 34.0253 103.08 28.7582C103.08 23.8518 98.574 23.948 98.574 23.948H93.8018ZM87.9395 18.6328H98.9616C98.9616 18.6328 109.233 19.0898 109.233 28.7101C109.233 39.7254 98.9616 39.2684 98.9616 39.2684H87.9395V18.6328Z" fill="#010101"/>
<path d="M112.212 18.6328H131.277V24.1645H118.074V26.8101H127.449V31.8608H118.074V39.2203H112.212V18.6328Z" fill="#010101"/>
<path d="M152.715 20.0997C152.715 20.0997 148.5 17.7427 143.413 17.7427C138.35 17.7427 131.616 21.206 131.252 28.0605C131.252 28.0605 131.034 38.6909 143.34 38.6909C150.729 38.3783 153.514 35.9491 153.514 35.9491L150.414 31.139C150.414 31.139 146.707 33.3036 143.34 33.1593C139.973 33.015 137.769 30.5377 137.623 28.4934C137.502 26.425 139.319 23.6592 143.34 23.2984C147.337 22.9377 150.753 25.1263 150.753 25.1263L152.715 20.0997Z" fill="white"/>
<path d="M62.043 17.7427H67.9053V25.0782H76.9895V17.7427H82.8518V38.3783H76.9895V30.4175H67.9053V38.3783H62.043V17.7427Z" fill="white"/>
<path d="M92.9297 23.0579V33.0631H97.7504C97.7504 33.0631 102.232 33.1112 102.232 27.844C102.232 22.9136 97.7019 23.0339 97.7019 23.0339H92.9297M87.0674 17.7427H98.0895C98.0895 17.7427 108.361 18.1996 108.361 27.82C108.361 38.8353 98.0895 38.3783 98.0895 38.3783H87.0674V17.7427Z" fill="white"/>
<path d="M111.365 17.7427H130.405V23.2744H117.227V25.944H126.578V30.9706H117.227V38.3302H111.341L111.365 17.7427Z" fill="white"/>
<path d="M33.2402 32.6301L34.6453 31.2111H33.2887V17.7427H39.3206L40.8467 19.2579V17.7427H53.9037V23.8997L52.5471 25.2706H53.9037V38.5707H48.0656L46.709 37.1998V38.5707H33.2887L33.2402 32.6301Z" fill="#010101"/>
<path d="M33.24 32.6303L33.2643 32.6784L34.742 31.1872H33.3127V17.7669H39.3204L40.8707 19.3302V17.7669H53.8793V23.8998L52.4743 25.3188H53.8793V38.5468H48.0654L46.6604 37.1278V38.5468H33.3127L33.2643 32.6303H33.24L33.2643 32.6784L33.24 32.6303H33.2158L33.24 38.6189H46.7331V37.2961L48.0412 38.6189H53.9277V25.2467H52.6196L53.9277 23.8998V17.7188H40.7981V19.1859L39.3446 17.7188H33.24V31.2594H34.5724L33.2158 32.6303H33.24Z" fill="#010101"/>
<path d="M51.1426 20.8691H41.9131V25.0299H51.1426V20.8691Z" fill="white"/>
<path d="M41.9129 20.8694H41.8887V25.0542H51.1666V20.8213H41.8887V20.8694H41.9129V20.8934H51.094V24.9821H41.9371V20.8694H41.9129V20.8934V20.8694Z" fill="white"/>
<path d="M45.4252 31.5718H36.3652V35.5642H45.4252V31.5718Z" fill="white"/>
<path d="M36.365 31.572H36.3408V35.6126H45.4734V31.5239H36.3408V31.572H36.365V31.5961H45.4008V35.5404H36.3893V31.572H36.365V31.5961V31.572Z" fill="white"/>
<path d="M51.142 26.4971H46.9512V35.6845H51.142V26.4971Z" fill="white"/>
<path d="M46.951 26.4973H46.9268V35.7328H51.166V26.4492H46.9268V26.4973H46.951V26.5214H51.0934V35.6607H46.9994V26.4973H46.951V26.5214V26.4973Z" fill="white"/>
<path d="M40.6045 20.7974H36.3652V30.2974H40.6045V20.7974Z" fill="#636363"/>
</svg>
