<svg width="137" height="24" viewBox="0 0 137 24" fill="none" xmlns="http://www.w3.org/2000/svg">
<path d="M39.7807 19.0901H37.0723V12.5658H31.4455V19.0901H28.7383V5.53809H31.4455V10.7461H37.0735V5.53809H39.7815L39.7807 19.0901Z" fill="white"/>
<path d="M51.882 7.359H47.3689V11.0755H51.7861V12.8956H47.3689V17.2707H52.7081V19.0901H44.6602V5.53809H51.8812L51.882 7.359Z" fill="white"/>
<path d="M56.7641 5.53809H61.4315C64.005 5.53809 65.734 6.77771 65.734 9.08123C65.734 11.0955 64.7348 12.2569 63.4678 13.0115L66.8105 19.0897L63.6962 19.0881L61.0857 13.669H59.4725V19.0897H56.7637V5.53809H56.7641ZM59.4725 11.8501H60.5668C62.4296 11.8501 63.0261 10.3979 63.0261 9.41019C63.0261 7.88013 61.95 7.359 60.8748 7.359H59.4728L59.4725 11.8501Z" fill="white"/>
<path d="M70.1934 19.0901V5.53809H75.0526C77.3181 5.53809 78.913 6.58394 78.913 8.42331C78.913 10.5908 77.1641 11.4818 76.2238 11.7342V11.7727C77.8939 11.8501 79.7571 13.0115 79.7571 15.0832C79.7571 17.426 77.8179 19.0897 74.6483 19.0897L70.1934 19.0901ZM72.9002 11.1902H73.7458C75.3017 11.1902 76.3575 10.1833 76.3575 8.92518C76.3575 7.72608 75.4732 7.20215 74.3021 7.20215H72.9002V11.1902ZM72.9002 17.4256H74.2842C75.7824 17.4256 76.9146 16.6317 76.9146 15.1221C76.9146 13.5342 75.7442 12.8563 74.2643 12.8563H72.9002V17.4256Z" fill="white"/>
<path d="M89.6599 5.53809L94.711 19.0901H91.6767L90.4276 15.3925H85.6638L84.2806 19.0901H81.9375L87.4116 5.53809H89.6599ZM90.0252 13.7284C89.4494 11.948 88.872 10.3012 88.2393 8.20949H88.2003C87.644 10.3012 87.0096 11.9468 86.3761 13.7284H90.0252Z" fill="white"/>
<path d="M98.016 5.53809H100.724V17.2707H106.063V19.0901H98.0156L98.016 5.53809Z" fill="white"/>
<path d="M109.678 19.0901V5.53809H112.386V19.0901H109.678Z" fill="white"/>
<path d="M124.468 7.359H119.974V11.8124H124.391V13.6305H119.974V19.0897H117.266V5.53809H124.468V7.359Z" fill="white"/>
<path d="M135.542 7.359H131.028V11.0755H135.446V12.8956H131.028V17.2707H136.367V19.0901H128.32V5.53809H135.541V7.359H135.542Z" fill="white"/>
<path d="M11.8027 22.6893C6.13639 22.6893 1.55609 18.0618 1.55609 12.36C1.55609 6.6509 6.13639 2.02659 11.8027 2.02659C17.459 2.02659 22.0413 6.6501 22.0413 12.36C22.0413 18.0618 17.4594 22.6893 11.8027 22.6893ZM11.8027 1.35303C5.77386 1.35303 0.884766 6.28423 0.884766 12.3608C0.884766 18.4365 5.77346 23.3629 11.8027 23.3629C17.8247 23.3629 22.713 18.4365 22.713 12.3608C22.713 6.28423 17.8251 1.35303 11.8027 1.35303Z" fill="white"/>
<path d="M2.39453 12.29C6.11965 13.4711 9.63307 17.1354 10.696 21.8195C5.45987 21.1323 2.40647 16.794 2.39453 12.29Z" fill="white"/>
<path d="M21.1565 12.29C17.4322 13.4711 13.8746 17.1354 12.8555 21.8195C18.0912 21.1323 21.1446 16.794 21.1565 12.29Z" fill="white"/>
<path d="M11.787 21.8192C7.81599 15.64 8.67356 7.16405 11.791 2.59912C14.7632 7.16365 15.694 15.6384 11.787 21.8192Z" fill="white"/>
</svg>
