<svg width="98" height="38" viewBox="0 0 98 38" fill="none" xmlns="http://www.w3.org/2000/svg">
<g clip-path="url(#clip0_268_12512)">
<path fill-rule="evenodd" clip-rule="evenodd" d="M0.853306 4.45094L0.852539 4.40601V0.809515H4.55477V27.1882L4.5563 27.2704V30.8296H0.852539V27.2331L0.853306 27.1882V4.45094Z" fill="white"/>
<path fill-rule="evenodd" clip-rule="evenodd" d="M38.4984 19.8971C38.5934 25.3531 42.0757 29.7164 46.2767 29.6433C50.4769 29.5702 53.8044 25.0881 53.7094 19.6321C53.6136 14.1753 50.1313 9.81194 45.9303 9.8858C41.73 9.95891 38.4025 14.441 38.4984 19.8971ZM69.1522 13.3003C69.2488 13.5082 69.0195 12.9896 69.0195 12.9896L69.1522 13.3003ZM71.6754 35.8883C71.845 35.6065 72.0815 35.1755 72.3627 34.6372L71.6754 35.8883ZM71.8929 11.4179C71.9377 11.539 71.9896 11.6654 72.0477 11.7987L73.2943 14.7753L71.8929 11.4179ZM56.3802 26.4024C58.6685 28.428 60.729 29.475 63.3636 29.475C66.0604 29.4948 68.4578 28.2087 68.4578 25.7331C68.4578 23.6672 66.5796 22.4587 63.2238 21.0751C60.3801 19.875 58.2639 19.0335 57.1579 17.2966C57.293 18.0512 57.3637 18.831 57.3637 19.629C57.3637 26.3293 52.3803 31.7618 46.2327 31.7618C40.0851 31.7618 35.1017 26.3293 35.1017 19.629C35.1017 15.5893 36.9131 12.0111 39.6979 9.80585H32.1654V27.1883L32.1662 27.2576V30.8297H28.8206V27.3741C28.8229 27.3132 28.8237 27.2515 28.8237 27.1883V9.80585H25.874V7.6181H28.8669C29.2534 3.20452 32.057 0.708367 35.9383 0.708367C38.4551 0.708367 39.8369 0.964231 40.635 1.32441V4.31629C40.6224 4.53941 40.6224 4.67572 40.6224 4.67572C40.5879 4.67191 40.5054 4.67038 40.5054 4.67038C39.2941 3.5807 38.0993 2.76971 35.3083 2.77276C33.0852 2.77276 31.6147 4.53408 32.1285 7.6181H44.6499C45.1675 7.53814 45.6954 7.49626 46.2327 7.49626C50.6922 7.49626 54.5398 10.3549 56.3158 14.4837C56.2993 14.2544 56.2915 14.0153 56.2915 13.7656C56.2915 9.45785 60.5671 7.62572 65.0085 7.63485C65.1782 7.63409 65.3447 7.63485 65.5081 7.63865C67.0713 7.61429 69.2983 8.11154 70.6581 8.46031L73.2943 14.7753L77.0618 23.7365L77.504 25.1757L77.9965 23.7365L82.7608 12.2342C83.6398 9.06721 87.1189 7.69653 90.9618 7.70414C92.8722 7.69576 94.283 7.92041 95.9751 8.50066V11.9791C93.8918 10.5026 92.4001 9.64441 90.0364 9.64441C87.9587 9.64441 85.4615 10.5414 85.4615 13.5234C85.4214 15.7645 86.8 16.1742 90.8455 18.1319C94.1707 19.5399 97.2382 21.0941 97.2563 24.6937C97.2563 30.6949 91.1935 31.7344 88.2422 31.7435C85.6076 31.7435 83.1928 31.1092 81.8496 30.0195V26.0575L82.0656 26.2319C84.4623 28.4143 86.5801 29.5451 89.3169 29.5451C92.0144 29.5649 94.411 28.278 94.411 25.8024C94.411 23.7365 92.5328 22.528 89.177 21.1444C85.9697 19.7905 83.8652 18.8934 83.0051 16.6509C81.6972 19.7615 75.6132 34.2107 74.1812 37.2993H70.9008L72.3855 34.596C73.2079 33.0167 74.4043 30.5388 75.4671 28.1683L69.1522 13.3003C69.1098 13.2097 69.0061 12.9812 68.7948 12.5129C68.3101 11.4362 67.8592 10.4417 66.4956 9.94064C65.765 9.70077 64.9873 9.57511 64.0832 9.57511C62.0055 9.57511 59.348 10.4722 59.348 13.4541C59.3079 15.6952 60.846 16.1049 64.8923 18.0619C68.2174 19.4706 71.2849 21.0248 71.303 24.6244C71.303 30.6256 65.2395 31.6643 62.2882 31.6742C59.9458 31.6742 57.7761 31.1724 56.3802 30.2952V26.4024Z" fill="white"/>
<path fill-rule="evenodd" clip-rule="evenodd" d="M11.4637 7.84222L11.5045 10.4678L11.5022 10.6445L11.5383 10.6437C11.5815 10.5341 11.6396 10.4412 11.6946 10.3719C13.0544 8.95017 14.7684 7.53762 18.8422 7.53762C22.7416 7.53762 25.2655 10.7686 25.3668 12.8025L25.3707 27.1885V27.2601V30.83H22.0291V26.5405L22.0283 14.2935C22.0283 11.7578 19.7463 9.92412 16.953 9.92412C14.6309 9.92412 11.6506 11.9619 11.5516 14.0247V27.1923L11.5532 27.2891V30.833H8.20996V10.8653L8.21078 7.84222H11.4637Z" fill="white"/>
</g>
<defs>
<clipPath id="clip0_268_12512">
<rect width="98" height="38" fill="white"/>
</clipPath>
</defs>
</svg>
