<svg width="98" height="44" viewBox="0 0 98 44" fill="none" xmlns="http://www.w3.org/2000/svg">
<g clip-path="url(#clip0_268_12523)">
<path fill-rule="evenodd" clip-rule="evenodd" d="M16.4443 43.2532H16.1713C6.95544 42.358 10.1965 28.0683 19.2417 32.1937L19.4465 32.2629L18.7641 33.9909L18.4228 33.8526C11.08 30.4761 10.8981 43.9478 18.6958 41.0413L18.9688 40.903L19.4464 42.4928L19.3099 42.562C18.9323 42.9156 17.1663 43.2727 16.6489 43.2532H16.4443ZM23.8815 36.2719H23.745L23.6085 36.341H23.4038L23.2674 36.4101H23.1991L23.0626 36.4793L22.9944 36.5484L22.858 36.6176L22.7897 36.6867H22.7215L22.6532 36.8249L22.4486 37.0323L22.3803 37.1705L22.2438 37.3088V37.4471L22.1757 37.5161V37.6544L22.1074 37.7926V37.8617L22.0392 38C21.9391 38.8062 21.9403 39.0644 22.0392 39.8662L22.1074 40.0045V40.0737L22.1757 40.2118V40.3501L22.2439 40.4193V40.5574L22.3122 40.6266L22.3804 40.6957L22.4487 40.834L22.5169 40.903L22.5851 40.9722L22.6533 41.0413L22.7216 41.1104C22.9399 41.3316 23.2287 41.517 23.5403 41.5251H24.2908C24.5399 41.5009 24.7913 41.3915 24.9731 41.1795L25.1096 41.1103L25.1779 41.0412L25.2461 40.9721L25.3144 40.903L25.3826 40.8339L25.4509 40.6956V40.6265L25.519 40.5573L25.5873 40.4191V40.35L25.6555 40.2117V40.0735L25.7238 40.0044V39.8661C25.909 39.0517 25.8715 38.986 25.792 38.2073L25.7238 37.9998V37.8617L25.6555 37.7925V37.6543L25.5873 37.516V37.4469L25.519 37.3087L25.4508 37.2395V37.1704L25.3825 37.0322L25.1778 36.8248L25.1096 36.6866H24.9731L24.8366 36.5483L24.7002 36.4792L24.632 36.41H24.4955L24.4272 36.341H24.1544L24.0179 36.2719H23.8815ZM23.8815 43.2532H23.1991L22.9944 43.184L22.7897 43.1149H22.585L22.3803 43.0457L22.1757 42.9766L22.0392 42.8383L21.8344 42.7693L21.6298 42.7002L21.4933 42.5619L21.2886 42.4237L21.1521 42.2854L20.6063 41.7325C20.1526 41.0275 19.8285 40.221 19.7875 39.3823V38.6912C19.8615 36.3883 21.167 34.931 23.4038 34.5438H24.1544C29.357 34.901 29.2592 42.8397 24.3592 43.2532H23.8815Z" fill="white"/>
<path fill-rule="evenodd" clip-rule="evenodd" d="M34.4569 43.1149V37.3778L34.3886 37.3087V37.1704L34.3204 37.1014V37.0322L34.2521 36.9631V36.8939H34.1839L34.1157 36.8248V36.7557L34.0475 36.6866L33.3652 36.341H33.0239C32.5589 36.3168 32.0232 36.3778 31.5912 36.5485L31.3864 36.6176L31.1817 36.6867V37.0322L31.2499 43.1149H29.2713V36.4102L29.203 36.2028V35.8572L29.1348 35.5116V35.3733L29.5443 35.2351C31.9118 34.3262 36.5073 33.7536 36.4355 37.5161V43.1149H34.4569ZM41.0072 43.3914H40.4612L40.3247 43.3222H40.1201L39.9836 43.2531H39.8471L39.7788 43.1841L39.6425 43.1149H39.5742L39.4377 43.0458L39.3013 42.9075L39.1648 42.8385L39.0965 42.7693L39.0283 42.7002L38.9602 42.631L38.8919 42.4928L38.8236 42.4237L38.7554 42.3546L38.6871 42.2163V42.1472L38.5508 41.8708V41.6634L38.4825 41.5251V36.4793L37.5273 36.4102V34.8204L38.4825 34.7512V32.4702H40.4612V34.7512H42.7811V36.4793H40.4612V41.1795L40.5295 41.2487V41.3869L40.5978 41.4561H40.666V41.5252H40.7343L40.8025 41.5944H40.9389L41.0754 41.6635H41.4164L41.5529 41.5944H41.7577L41.9623 41.5252L42.1671 41.4561H42.3036L42.5083 41.3869L42.6448 41.3178L43.2588 42.9076L42.9858 43.0459C42.3387 43.2175 41.8043 43.3615 41.1435 43.3914H41.0072ZM48.649 36.4793L48.5125 36.4102C47.4823 36.227 47.2958 36.2235 46.261 36.4793L46.0562 36.5485H46.1245V43.1149H44.1457V36.7558C44.1071 36.3836 44.0696 36.0116 44.0092 35.6498V35.5116L44.4188 35.3041L44.8963 35.0968C45.5877 34.8422 46.087 34.7893 46.7385 34.6131H47.0115L47.2162 34.5439C47.7052 34.5221 48.4602 34.5658 48.9219 34.6822H49.0584L49.2632 34.7513L48.649 36.4793ZM53.2887 36.2719H53.1523L53.0158 36.341H52.8112L52.6747 36.4102H52.5382L52.4699 36.4793L52.3335 36.5485L52.197 36.6867H52.1288L52.0606 36.8249L51.9924 36.8941L51.8559 37.0323L51.7876 37.1705L51.6512 37.3088V37.4471L51.583 37.5161L51.5147 37.6544V37.7927L51.4465 37.8617V38L51.3782 38.2074V39.6588L51.4465 39.8663V40.0045L51.5147 40.0737V40.2119L51.583 40.3501L51.6512 40.4193V40.5575L51.7195 40.6266L51.7877 40.6957L51.856 40.834L51.9242 40.9031L51.9925 40.9722L52.0606 41.0413L52.1289 41.1105L52.3336 41.3178L52.47 41.3869L52.5383 41.4561H52.6748L52.8112 41.5252H53.7664L53.9029 41.4561H54.0394L54.1076 41.3869L54.2441 41.3178L54.4488 41.1104L54.517 41.0412L54.6535 40.9721L54.7217 40.9031L54.7899 40.8339V40.6956L54.8582 40.6265L54.9264 40.5573L54.9947 40.4192V40.35L55.0628 40.2118V40.0736L55.1311 40.0044V39.8662L55.1993 39.6588V38.2073L55.1311 37.9999V37.8617L55.0628 37.7926V37.6543L54.9946 37.516V37.447L54.9263 37.3087L54.7898 37.1704V37.0322L54.6534 36.8939L54.5169 36.8248L54.4487 36.6866H54.3804L54.244 36.5484L54.1075 36.4792L54.0393 36.4101H53.903L53.7665 36.341H53.5617L53.4252 36.2719H53.2887ZM53.2887 43.2532H52.6065C50.5504 42.9018 49.2279 41.2705 49.1949 39.175V38.6912C49.2586 36.3767 50.5823 34.9252 52.8112 34.5438H53.4935C58.7279 34.8123 58.6654 42.843 53.7665 43.2532H53.2887Z" fill="white"/>
<path fill-rule="evenodd" clip-rule="evenodd" d="M60.5897 43.1149V30.8113H58.6109V43.1149H60.5897ZM64.4788 43.2532H64.2742C63.6578 43.2761 62.5684 43.0792 62.0225 42.8383L61.7496 42.7001L62.2955 41.1795L62.5003 41.2486L62.7731 41.3178L63.0461 41.456L63.2508 41.5252L63.5236 41.5943H63.7966L63.9331 41.6634H64.6153L64.7518 41.5942H64.8201C65.1646 41.4814 65.3921 41.3316 65.5024 40.9722V40.6265C65.3784 39.5021 62.8902 39.4365 62.2955 38.2073L62.159 38.069L61.9543 37.4469V36.4793L62.0225 36.341L62.0908 36.2719V36.1336L62.2955 35.7189L62.3638 35.6498L62.432 35.5115L62.5684 35.4424L62.6367 35.3732L62.7732 35.3041L62.8414 35.1659L63.1142 35.0276L63.1825 34.9585H63.319L63.7284 34.7512H63.7966L63.9331 34.682H64.0695L64.206 34.6129H64.4789L64.6154 34.5438H65.2977C65.8538 34.5854 66.3417 34.7351 66.867 34.8203L67.14 34.9586L67.2082 35.0278L67.3447 35.0969L66.7987 36.6175L66.5941 36.5483L66.3893 36.4792L66.1164 36.41L65.9117 36.341L65.6389 36.2719H65.2294L64.9566 36.2027H64.8883L64.8201 36.2719H64.4788L64.3424 36.341L64.2742 36.4101H64.2059L64.1377 36.4793V36.5484L64.0013 36.6867V36.894L63.933 36.9632L64.0013 37.1013V37.2396L64.0695 37.3088L64.1378 37.447L64.206 37.5161L64.3425 37.5852L64.4107 37.6544L64.6837 37.7926L64.8201 37.8617L65.0248 37.9308L65.1612 38L65.8435 38.2764L66.0483 38.3456L66.1848 38.4147L66.3894 38.553C67.1105 38.8248 67.7039 39.7337 67.6858 40.4883L67.754 40.7648L67.6858 40.9722V41.2487L67.6175 41.3869V41.5252L67.3446 42.0781L67.2764 42.1472L67.2081 42.2855L67.0716 42.3547L67.0035 42.4928L66.867 42.562L66.7305 42.6311L66.6622 42.7003L66.5258 42.7694C66.1733 43.0043 65.2897 43.2543 64.8883 43.2532H64.4788ZM2.18339 29.0832L1.97875 29.1524C1.53181 29.3183 1.0644 29.415 0.614155 29.5671L0.341149 29.6363L0 27.839L0.136503 27.7699H0.341259L0.477652 27.7007H0.614155L0.81891 27.6317H0.955304L1.09181 27.5626H1.2282L1.3647 27.4934L1.43296 27.4243H1.50121L1.6376 27.3551L1.70585 27.286H1.7741L1.84236 27.217L1.91061 27.1478L1.97875 27.0787L2.047 27.0095V26.9404L2.1835 26.8022V26.7331L2.25176 26.6639V26.5948L2.32001 26.4566C2.39376 26.2331 2.4859 25.657 2.4564 25.4198V16.4341H4.50318V24.5904C4.61128 26.3472 4.22687 28.3851 2.38804 29.0141L2.18339 29.0832Z" fill="white"/>
<path fill-rule="evenodd" clip-rule="evenodd" d="M9.894 20.9963H9.48449L9.3481 21.0654C8.98196 21.1033 8.76928 21.373 8.46116 21.6183L8.39291 21.6875V21.8258L8.32466 21.8949L8.2564 22.0331L8.18815 22.1022V22.2405L8.1199 22.3096V22.4478L8.05165 22.517V22.6552L7.9834 22.8626V23.139L7.91526 23.3464V23.8302L7.98351 24.1068C8.00508 24.5607 8.14049 25.0444 8.39291 25.42V25.4892L8.46116 25.5583L8.52941 25.6274L8.59766 25.7656L8.73406 25.8348L8.80231 25.9039H8.87056L8.93881 25.973L9.0752 26.0422L9.14346 26.1113H9.27996L9.34821 26.1804H9.62111L9.75761 26.2495H10.0304L10.1669 26.1804H10.3717L10.5082 26.1112H10.5763L10.7128 26.0421L10.7811 25.9729L10.9176 25.9038H10.9857L11.1222 25.7656L11.1905 25.6273L11.2587 25.5582L11.3269 25.489L11.3951 25.4199L11.4634 25.2817L11.5316 25.2126V25.0743L11.5999 25.0053L11.6681 24.867V24.7979L11.7363 24.6596V24.5214L11.8045 24.314V22.9316L11.7363 22.6551V22.586L11.668 22.4477V22.3095L11.5997 22.2404L11.5315 22.1021V22.033L11.4632 21.8948L11.395 21.8256L11.3269 21.7565C11.1301 21.3972 10.7549 21.0873 10.3717 21.0653L10.3034 20.9962L9.894 20.9963ZM9.894 27.9083H9.41635C4.432 27.5178 4.56619 19.3638 9.62111 19.2682L9.894 19.199L10.0988 19.2682C15.1842 19.2671 15.3605 27.5443 10.3717 27.9083H9.894ZM20.5381 27.7702V22.1712L20.4698 22.033V21.8256L20.4016 21.7565L20.2652 21.4801L19.9922 21.2035L19.7194 21.0653H19.5829L19.4464 20.9962C18.7993 20.9525 18.2591 21.0688 17.6724 21.3419L17.4676 21.4802L17.263 21.5492V27.7702H15.2842V15.5356H17.263V19.7521L17.536 19.6829L17.877 19.5446C18.9358 19.2198 20.0491 19.0954 21.084 19.4755L21.1522 19.5446L21.2887 19.6138C22.1177 20.0412 22.5737 21.1252 22.5168 22.0331V27.7702H20.5381ZM29.4083 27.7702V21.9639L29.34 21.8948V21.8256L29.2718 21.7565V21.6874C28.9159 21.3672 29.1774 21.5054 28.9988 21.3419H28.9305L28.7941 21.2036H28.7259L28.453 21.0653H28.3165L28.18 20.9962H27.8389C27.5432 20.9697 27.0269 21.0435 26.7472 21.1345L26.5425 21.2036L26.3377 21.2727L26.1331 21.3419V21.411L26.2013 21.4802V27.7702H24.2226V21.2036C24.2499 20.9202 24.1191 20.4743 24.0861 20.1668V20.0285L24.5638 19.8902L24.9731 19.752L25.4509 19.6138C25.8591 19.4906 26.9416 19.2232 27.3613 19.2682H27.8389C28.4371 19.2728 28.6827 19.2358 29.2718 19.3373L29.5448 19.4756H29.6812L29.8859 19.5448L30.1588 19.6829L30.2271 19.7521L30.3636 19.8212L30.5 19.9595L30.6365 20.0285L30.7047 20.1668L30.8411 20.2359L31.0459 20.6506L31.1823 20.7889V20.9271L31.3188 21.2036V21.411L31.387 21.6183V21.7566L31.4553 21.9639V27.7702H29.4083ZM35.2762 27.9083H35.0714C34.3186 27.9498 33.5999 27.7355 32.888 27.4936L32.5469 27.4245L33.161 25.8348L33.3658 25.9039L33.6386 26.0422L33.8433 26.1113L34.1163 26.1804C34.7361 26.3808 34.7496 26.307 35.3444 26.3186H35.5492L35.6856 26.2495H35.7538L35.8903 26.1804L35.9586 26.1112H36.0267L36.1632 26.0421L36.2315 25.9729V25.8346L36.2997 25.7656L36.368 25.6273V25.1436L36.2997 25.0744L36.1632 24.7979L36.0267 24.7287L35.9585 24.6596L35.8219 24.5905L35.4127 24.3831L35.2079 24.314C34.645 23.8521 33.9888 23.9121 33.5022 23.2773L33.0927 22.8624L33.0245 22.7243L32.888 22.3095C32.6584 21.252 32.7595 21.7681 32.888 20.9271L33.0245 20.6506C33.3418 20.1483 33.2918 20.0896 33.8433 19.8212L33.9116 19.6829L34.0481 19.6138H34.1845L34.321 19.5446L34.3892 19.4755H34.5256L34.7986 19.3372H34.935L35.0715 19.2682H35.5491L35.8221 19.199L36.0267 19.2682H36.6408L36.7773 19.3373H37.1185L37.3913 19.4756L37.6643 19.5448H37.8008L38.2101 19.7521L37.6643 21.2727L37.4595 21.2036L37.1865 21.1345L36.9819 21.0653L36.709 20.9962C36.2723 21.0009 36.4201 20.8787 35.7538 20.927H35.3443L35.2762 20.9962H35.2079L35.1397 21.0653H35.0714L35.0031 21.1345L34.9349 21.2036L34.8668 21.2727V21.3419L34.7985 21.4802V21.7566L34.8668 21.8949V21.9639L34.935 22.1022L35.0715 22.1714L35.1398 22.2405L35.8221 22.586L36.0267 22.6551L36.368 22.7934C37.3993 23.2358 38.0748 23.541 38.483 24.6597V24.9362L38.5512 25.1436C38.557 26.1308 38.4659 26.5629 37.7324 27.2171L37.5959 27.2863L37.4595 27.3554L37.3913 27.4937H37.2548L36.709 27.7702H36.5725L36.436 27.8393H36.2996C35.9301 27.8854 36.0722 27.9338 35.5491 27.9085L35.2762 27.9083Z" fill="white"/>
<path fill-rule="evenodd" clip-rule="evenodd" d="M43.6005 20.9965H43.191L43.0546 21.0656H42.9864L42.8499 21.1347H42.7135L42.6452 21.2038L42.577 21.2729L42.4405 21.3421L42.0994 21.6877L42.0312 21.8259L41.9629 21.8951V22.0332L41.8947 22.1024L41.8264 22.2407V22.3098L41.7582 22.448V22.6554L41.6899 22.8627L41.6217 23.1392V24.1068L41.7582 24.5217V24.7981L41.8264 24.8673V25.0055L41.8947 25.0746L41.9629 25.2129V25.282L42.0312 25.4202L42.0994 25.4893L42.1677 25.5585L42.2359 25.6276L42.3042 25.7658L42.4406 25.9041H42.5771L42.6453 25.9732L42.7135 26.0424L42.85 26.1115H42.9865L43.0547 26.1805H43.3275L43.464 26.2497H43.6688L43.8053 26.1805H44.0781L44.2146 26.1114H44.2828L44.4193 26.0422L44.5558 25.904H44.6922L44.8287 25.7658L44.897 25.6275L44.9651 25.5584L45.0334 25.4892L45.1016 25.4201L45.1699 25.2819V25.2128L45.2381 25.0745L45.3064 25.0055V24.8672L45.3745 24.798V24.6597L45.4428 24.5216V24.3141L45.511 24.1068V23.1392L45.4428 22.9318V22.6553L45.3745 22.5862V22.4479L45.3063 22.3097V22.2406L45.238 22.1023L45.1698 22.0331V21.895L45.1015 21.8258L45.0333 21.7567L44.9651 21.6184L44.6921 21.3421L44.5557 21.2729L44.4192 21.1346H44.2827L44.2146 21.0655H44.0781L43.9416 20.9963L43.6005 20.9965ZM43.6005 27.9777L43.3275 27.9085H43.1228C38.1033 27.5791 38.2285 19.3191 43.3275 19.2684L43.6005 19.1992L43.8053 19.2684H44.2828C45.3029 19.4296 45.66 19.7269 46.4662 20.3052L46.6027 20.4434L46.7392 20.5817L46.8075 20.7891L46.9439 20.9273L47.0804 21.1347L47.1486 21.2729L47.285 21.4803L47.3533 21.6877L47.4215 21.8259L47.558 22.2406V22.448L47.6262 22.6554L47.6944 22.9318V23.8304C47.7012 24.6022 47.4158 25.6184 46.9439 26.2497L46.8074 26.388L46.7391 26.5953C46.1751 27.1482 45.3063 27.7933 44.4875 27.8394L44.2827 27.9085H43.8052L43.6005 27.9777ZM54.2446 27.7703V22.3097L54.1764 22.1714V21.964L54.1081 21.895V21.7567L54.0398 21.6875V21.6184H53.9716L53.9035 21.5494V21.4802L53.767 21.3419H53.6987V21.2728L53.6304 21.2037H53.5623L53.2893 21.0655H53.0847L52.9482 20.9963H52.6071C52.3159 20.9676 51.5734 21.092 51.3107 21.2038L51.1059 21.2729L50.9694 21.3421V27.7703H48.9908V21.2038C49.0396 20.4975 48.8805 20.7532 48.9225 20.167L48.8543 20.0287L49.8096 19.7521L50.219 19.614C50.6273 19.4907 51.7098 19.2234 52.1295 19.2684H52.4025L52.6071 19.1992L52.8118 19.2684H53.6988L53.8353 19.3375H54.04L54.3129 19.4758H54.5176C55.5797 19.9193 56.1653 20.8167 56.2234 21.9641V27.7703H54.2446Z" fill="white"/>
<path fill-rule="evenodd" clip-rule="evenodd" d="M93.1363 4.75223L92.9998 4.54492L92.7952 4.40663L92.6587 4.19921L92.4539 4.06104L92.0447 4.26846C90.1296 5.27882 88.2964 6.41464 86.8591 8.07014L86.5178 8.3466L86.6543 8.89962C87.29 14.3417 87.1047 19.2171 85.2215 24.3828L85.085 24.6593L85.2897 25.0049C86.0949 26.43 87.6903 28.196 89.0425 29.0831L89.3837 29.3594L89.5884 29.2212C89.9795 28.9356 90.4787 28.7904 90.6801 28.5301L90.8848 28.3918L90.6118 28.1152C84.9428 20.982 85.8538 10.9674 92.7952 5.0288L93.1363 4.75223Z" fill="#888888"/>
<path fill-rule="evenodd" clip-rule="evenodd" d="M89.5887 1.98779L89.1792 1.71122L88.9745 1.64208L88.7698 1.50391L88.2922 1.71133C87.4734 2.19744 86.6058 2.59255 85.836 3.16286L85.4947 3.37029L85.563 3.64663L85.9725 5.30559L86.0407 5.58215L86.45 5.09816C87.2528 4.11791 88.2127 3.28609 89.1111 2.40253L89.5887 1.98779ZM85.0854 30.8806L85.3583 30.8114C85.9519 30.7192 86.2181 30.626 86.7912 30.4657L86.9959 30.3966L86.6547 29.9128C85.8496 29.0362 85.0717 28.1214 84.4713 27.0789L84.1301 26.5949L83.9254 26.8715C83.7753 27.4313 83.1135 28.1042 82.9019 28.5304L82.6973 28.8069L82.9703 29.0834C83.5603 29.7503 84.146 30.1064 84.8124 30.6731L85.0854 30.8806Z" fill="#888888"/>
<path fill-rule="evenodd" clip-rule="evenodd" d="M97.0935 12.0103L96.8205 12.2867C93.6386 15.2531 93.0644 19.5225 95.3194 23.2769L95.3876 23.4152L95.6606 23.0004C97.2845 19.9742 97.9998 15.8476 97.1616 12.494L97.0935 12.0103Z" fill="#888888"/>
<path fill-rule="evenodd" clip-rule="evenodd" d="M92.3862 16.9181V16.6416C92.7706 13.7673 93.7736 10.8895 95.5931 8.62351L95.7979 8.41609L95.6614 8.20877L95.5249 7.93232L95.3884 7.72489L95.3201 7.51758L94.9107 7.725C87.6225 12.0359 86.4955 20.6484 92.5227 26.5951L92.7274 26.8716L92.9321 26.6642C93.189 26.3739 93.6473 26.011 93.819 25.6965L93.9555 25.5582L93.819 25.3509C92.5715 22.6517 92.1178 20.1783 92.3179 17.1946L92.3862 16.9181Z" fill="#888888"/>
<path fill-rule="evenodd" clip-rule="evenodd" d="M74.5088 2.05664L74.3041 2.19492L74.1676 2.26395L73.9629 2.40224C73.5388 2.80538 73.2294 5.36407 72.8712 6.20392L72.6666 6.75683L72.5301 7.30985C71.9899 8.66693 71.6965 10.1519 70.8926 11.388L70.4831 12.3556L70.2784 12.7705L70.0055 13.1851C69.5449 14.1759 68.8706 15.0261 68.2998 15.95L68.0268 16.3647L67.7539 16.7103C66.5826 18.2276 66.8783 17.4027 67.2081 19.1987L67.4127 20.0281L67.9586 19.6134C73.0771 16.2242 74.9853 8.46296 74.5088 2.60955V2.05664Z" fill="white"/>
<path fill-rule="evenodd" clip-rule="evenodd" d="M71.4386 4.40723L71.2339 4.61454C68.7787 7.07409 67.0616 10.6546 66.8671 14.1533L66.7988 14.4989L67.0036 14.2915C69.4735 11.7848 70.8348 8.18917 71.4386 4.75271V4.40723Z" fill="white"/>
<path fill-rule="evenodd" clip-rule="evenodd" d="M86.9954 12.4941V12.0793L86.9272 11.6646C86.8727 9.57485 86.4633 7.70401 86.1085 5.65106L85.972 5.23632L85.9037 4.89072L85.8355 4.47598C85.6184 4.0163 85.5069 3.13853 85.2897 2.67885L85.1532 2.26411L85.0849 1.91852L84.4026 0.19053L84.198 0.121388H83.7203L83.5156 0.0522461L83.6521 1.15818C84.5619 10.8168 84.0559 21.9349 77.3748 29.5671L76.7607 30.1891L76.9655 30.2583L77.2384 30.3966L77.4431 30.4657C78.1652 30.7352 78.6416 30.718 79.3535 30.9495H79.6265L79.8312 31.0186H80.1041L80.3771 31.0878H80.5817L81.4005 30.3966L83.1063 28.3229L83.4474 27.839L83.7204 27.3552C86.1516 23.413 87.083 18.6862 86.9954 14.0839V12.4941Z" fill="white"/>
<path fill-rule="evenodd" clip-rule="evenodd" d="M80.9913 0.0522461H80.7865L80.5818 0.121388H80.1042L80.1725 0.881836C80.2634 9.51273 78.735 20.116 72.3257 26.3876L71.6436 27.0097L71.9165 27.2172C72.2883 27.6168 73.1492 28.2435 73.6222 28.5304L73.8952 28.7378L74.7821 28.1155C82.9745 21.7403 83.6046 10.2778 81.2642 0.881836L80.9913 0.0522461Z" fill="white"/>
<path fill-rule="evenodd" clip-rule="evenodd" d="M77.5796 0.674805L77.4431 0.743946L76.8291 0.95126V1.7116C76.2013 9.14434 74.4034 16.7628 68.9823 22.1714L68.4365 22.6554L68.573 23.0009C68.8596 23.5734 69.2553 24.055 69.5965 24.5907L69.733 24.8673L70.4835 24.3833C77.4681 19.4827 79.1762 9.40707 77.7843 1.43503L77.5796 0.674805Z" fill="white"/>
</g>
<defs>
<clipPath id="clip0_268_12523">
<rect width="98" height="44" fill="white"/>
</clipPath>
</defs>
</svg>
