<svg width="210" height="54" viewBox="0 0 210 54" fill="none" xmlns="http://www.w3.org/2000/svg">
<path d="M147.14 11.2195C144.028 11.2195 140.872 11.2517 137.76 11.2195V32.4322C137.771 36.0143 137.879 40.1988 137.749 43.727C135.466 39.2521 133.216 34.7557 130.997 30.2485C133.646 28.5812 135.456 26.7741 136.188 23.6115C136.802 21.0729 136.371 18.3944 134.982 16.1784C133.474 13.8227 131.105 12.1446 128.369 11.5207C126.786 11.1657 125.268 11.241 123.652 11.2195C119.237 11.1764 114.8 11.284 110.385 11.2195V43.8991L119.711 43.8884C119.711 38.3808 119.668 32.7872 119.743 27.3011C122.339 32.5183 125.106 38.5529 127.529 43.8991H147.151V22.7294V11.2302L147.14 11.2195ZM126.076 25.0852C124.342 26.4621 121.897 26.1286 119.722 26.1071V19.029C121.154 19.029 122.705 18.9215 124.116 19.0936C127.174 19.4593 127.928 22.9338 126.076 25.096V25.0852Z" fill="#FEFEFE"/>
<path d="M54.461 10.2619C59.6625 10.0468 64.6379 12.2412 66.7702 17.1894C66.7271 15.1994 66.7056 13.2093 66.7271 11.2301H87.4794L87.4902 18.7922H81.8579V43.8882H72.1548C72.2625 35.6054 72.1548 27.0858 72.1548 18.7815H67.1902V20.8683H58.661C58.6825 19.4807 58.5102 18.0715 57.2287 17.2325C55.7533 16.2643 53.2548 16.5763 52.3502 18.1898C51.8548 19.0611 51.9302 19.9002 52.1994 20.8253C53.061 22.2775 55.0641 22.6862 56.5825 23.2026C61.6333 24.9129 67.9118 27.1289 67.9764 33.4647C68.0087 35.9066 67.2871 38.3269 65.4887 40.0803C60.7287 44.7488 50.3364 45.3404 45.3825 40.6611C43.2825 38.6603 42.841 35.9281 42.8518 33.185L51.5425 33.2281C51.5425 33.3572 51.5318 33.4862 51.521 33.6153C51.4133 36.1324 52.5871 37.6922 55.2256 37.7352C57.0779 37.7675 58.9841 36.3046 58.801 34.3468C58.5856 32.0663 55.9471 31.4532 54.1487 30.8508C49.0225 29.1512 43.4333 26.8384 43.0456 20.6747C42.8733 18.2651 43.681 15.8878 45.2856 14.0807C47.6333 11.4452 51.0256 10.4556 54.4394 10.2512L54.461 10.2619Z" fill="#FEFEFE"/>
<path d="M149.822 11.2305H158.815C161.442 16.7058 164.522 22.1596 167.258 27.6133C167.182 22.2026 167.236 16.652 167.258 11.2305H176.681V42.2213V43.8779H166.03C163.585 38.962 161.119 34.0568 158.621 29.1731V43.8671C158.61 43.8671 149.833 43.8779 149.833 43.8779V11.2197L149.822 11.2305Z" fill="#FEFEFE"/>
<path d="M179.437 11.2305H199.575C199.575 11.2197 199.575 18.7711 199.575 18.7711L189.215 18.7926V23.7193L197.82 23.6978V31.1524C194.966 31.1739 192.069 31.1309 189.215 31.1201V35.4767C189.215 35.95 189.14 35.9823 189.366 36.2942C190.206 36.4018 192.047 36.3373 192.995 36.3373L199.575 36.2942V43.8886H179.426V11.2305H179.437Z" fill="#FEFEFE"/>
<path d="M88.8145 11.2197C95.3945 11.3488 102.351 11.2305 108.974 11.2197V18.7926C105.614 18.7389 102.104 18.7926 98.7221 18.7926V23.7086C101.565 23.7301 104.398 23.7193 107.241 23.7086C107.208 26.1827 107.198 28.646 107.208 31.1201H98.7221V35.5412C98.7221 35.8962 98.6575 36.0683 98.8945 36.305C99.9283 36.4018 101.436 36.348 102.502 36.348L109.018 36.2942L108.996 43.8994C102.362 43.8134 95.4698 43.8887 88.8252 43.8994V11.2197H88.8145Z" fill="#FEFEFE"/>
<path d="M11.9541 11.2305H21.6572L21.6464 36.2727C24.6295 36.305 27.6018 36.3157 30.5849 36.3157V43.8779H11.9434V11.2305H11.9541Z" fill="#FEFEFE"/>
<path d="M31.9746 11.2197H41.3977L41.3761 43.8671H31.9961L31.9746 11.2197Z" fill="#FEFEFE"/>
</svg>
