<svg width="177" height="56" viewBox="0 0 177 56" fill="none" xmlns="http://www.w3.org/2000/svg">
<path d="M131.212 9.25195H136.666L135.922 10.2172C135.11 11.6867 135.352 14.452 135.36 16.1998V29.2954C135.36 31.4172 135.49 35.3998 135.153 37.3389C134.825 39.2954 134.081 41.165 132.966 42.7998C131.056 45.5911 128.118 47.4867 124.808 48.0867C118.17 49.2259 111.429 46.6346 109.027 39.9563C107.903 36.8172 108.136 33.5737 108.136 30.2954V18.0172C108.136 16.0259 108.154 13.9911 108.128 11.9998C108.11 10.7911 107.091 9.73021 107.021 9.26934H114.394C112.622 11.4085 113.054 13.3737 113.054 15.9998V22.9389V30.6867C113.054 32.7389 112.976 34.4954 113.261 36.5302C114.826 47.6259 131.523 46.5563 132.405 35.7215C132.543 34.0085 132.491 32.3215 132.491 30.6085V22.0606V15.4606C132.491 14.1824 132.552 12.765 132.387 11.5128C132.258 10.5128 131.817 10.0259 131.203 9.27804L131.212 9.25195Z" fill="#FDFEFD"/>
<path d="M151.712 8.64337C154.184 8.66946 155.558 9.31293 157.823 9.99989C158.047 10.0695 158.592 9.46946 158.765 9.29554V14.7912C158.704 14.7129 158.635 14.6434 158.566 14.5651C156.837 12.6608 155.213 11.2781 152.559 11.139C149.422 10.9825 146.907 13.3129 146.907 16.4695C146.907 22.626 154.729 24.7825 158.177 28.7738C160.433 31.3738 161.461 33.7651 161.357 37.2521C161.262 40.1912 160.268 43.0086 158.082 45.026C155.29 47.5999 152.412 48.1912 148.765 48.0782C146.656 47.8955 144.945 47.2086 142.975 46.5651C142.75 46.4955 142.171 47.3651 141.998 47.5999V41.5825C144.219 43.9999 146.363 45.7651 149.846 45.6086C154.59 45.3999 157.088 41.6868 156.837 37.1129C156.492 30.7825 150.52 28.4086 146.285 24.7216C142.292 21.2521 141.272 15.6868 144.867 11.4955C146.63 9.46076 149.068 8.76511 151.721 8.62598L151.712 8.64337Z" fill="#FDFEFD"/>
<path d="M77.0231 9.25195H101.482V13.0954C98.958 11.1128 94.9479 11.765 91.7674 11.765V39.9563C91.7501 41.0693 91.7587 42.2172 91.7415 43.3302C91.7242 45.1389 91.9143 45.9476 93.1415 47.2693H85.4929C87.2387 45.2433 86.8325 43.8085 86.8238 41.278V35.1041C86.8152 35.1041 86.7979 11.7737 86.7979 11.7737C84.957 11.7737 83.1075 11.7737 81.2666 11.7563C79.3653 11.7389 78.5356 11.9389 77.0059 13.0954V9.25195H77.0231Z" fill="#FDFEFD"/>
<path d="M16.3785 9.26074H23.6987C23.1456 10.0607 22.653 10.6086 22.532 11.6607C22.3937 12.8868 22.4369 14.2694 22.4369 15.5129V21.9303L22.4196 44.7912H30.5264C32.7648 44.7999 35.4613 45.1825 37.233 43.6347V45.9042C37.2244 45.9042 37.2157 47.2694 37.2157 47.2694H16.1797C17.4588 45.8173 17.5106 45.1216 17.502 43.226C17.502 41.739 17.502 40.226 17.4934 38.739V28.1564V17.2868C17.4934 15.5042 17.4934 13.7042 17.4674 11.9216C17.4588 10.939 16.3871 9.57379 16.3871 9.26074H16.3785Z" fill="#FDFEFD"/>
<path d="M54.8535 7.77399C58.0513 7.33921 62.3207 8.36529 65.2073 9.72181C70.0558 11.9827 73.798 16.1131 75.587 21.1827C74.9388 20.2088 74.3771 19.3131 73.6338 18.4088C71.0065 15.2523 67.4285 13.0349 63.4356 12.1131C58.397 10.9131 53.0904 11.7827 48.6827 14.5305C43.8169 17.5827 41.2501 21.7218 39.9796 27.2349C38.6314 34.9044 41.3711 41.2957 47.2221 46.2001C45.9171 45.6175 44.3009 44.4696 43.2119 43.5566C39.0289 40.0262 36.4189 34.9653 35.9435 29.4957C35.4855 24.2696 37.1016 19.0696 40.4377 15.0436C44.1281 10.6088 49.1753 8.26964 54.8362 7.78268L54.8535 7.77399Z" fill="#FDFEFD"/>
<path d="M54.1278 23.2607C58.7948 26.339 65.0952 28.4173 65.6656 35.0781C65.5533 34.7999 65.4323 34.5216 65.3113 34.2434C63.7815 30.8173 61.2406 28.7477 57.7577 27.426L56.6773 27.1303C56.6601 27.9564 56.7119 28.7738 56.8156 29.5912C57.3083 33.139 58.8207 35.6868 61.6555 37.8347C57.2218 36.339 55.3896 32.0694 54.8019 27.739C54.6204 26.3738 54.5513 24.6868 54.1537 23.3825L54.1191 23.2607H54.1278Z" fill="#FDFEFD"/>
<path d="M56.358 42.6435C56.4704 42.6348 56.7296 42.6435 56.8593 42.6435C56.8161 42.7653 56.1765 42.9479 55.995 43.0174C54.8456 43.4522 53.8257 44.2174 52.996 45.1218C56.0296 48 62.356 46.9044 65.9426 45.8696C64.7845 46.5739 64.0758 46.9044 62.8227 47.4C61.9498 47.7218 61.0509 47.9652 60.1435 48.1392C55.9086 48.9218 52.9096 47.8348 49.4785 45.4696C51.4145 43.7479 53.8257 42.887 56.3753 42.6522L56.358 42.6435Z" fill="#FDFEFD"/>
<path d="M50.5254 34.2959C53.317 34.0698 56.7913 35.2959 58.9433 37.0785C59.2112 37.3046 60.0668 38.0437 60.1792 38.3394C59.8767 38.2176 59.1334 37.5568 58.7532 37.3307C56.532 35.9828 54.9072 35.4524 52.4009 36.0089C53.1182 37.3481 53.7664 38.1741 54.8554 39.2002C56.1518 40.3828 57.7506 41.3133 59.4014 41.922C59.8249 42.0785 60.7064 42.2089 60.9916 42.4089C59.2544 42.8263 56.4283 41.8524 54.8813 41.0263C52.3145 39.6524 50.4995 36.9567 49.2031 34.4089L50.5254 34.3046V34.2959Z" fill="#FDFEFD"/>
<path d="M65.6226 21.5132C67.9821 23.2088 70.039 27.974 70.3069 30.8349C70.5143 33.0523 70.2637 34.8001 68.8463 36.548C69.9094 33.5654 70.0304 31.4697 68.6562 28.548C67.9129 27.1393 67.1264 26.2958 65.9683 25.2349C64.3435 27.9393 65.0436 30.461 66.1498 33.1827C63.7645 29.9654 63.5311 24.948 65.6226 21.5132Z" fill="#FDFEFD"/>
<path d="M75.8642 25.1216C75.8988 25.139 75.9679 25.1651 75.9852 25.2085C78.1545 30.0781 75.0086 38.3042 71.4479 41.4868C72.5455 39.7911 73.1504 38.4346 73.8418 36.5477C74.4382 34.9042 75.7605 29.4694 74.7925 28.0085C74.6197 27.9129 74.5592 27.8346 74.3258 27.939C72.6924 28.7129 71.6293 30.1216 70.791 31.6172C71.5602 28.8172 73.4011 26.5824 75.8729 25.1303L75.8642 25.1216Z" fill="#FDFEFD"/>
</svg>
