<svg width="163" height="82" viewBox="0 0 163 82" fill="none" xmlns="http://www.w3.org/2000/svg">
<g clip-path="url(#clip0_268_12430)">
<path d="M81.4998 4.94043C86.2349 4.94043 90.9236 5.87323 95.2982 7.68557C99.6727 9.49792 103.647 12.1543 106.995 15.503C110.343 18.8517 112.998 22.827 114.809 27.202C116.62 31.5765 117.552 36.2649 117.55 40.9994L117.55 41.2213C117.522 45.8809 116.592 50.4918 114.809 54.7984C112.998 59.1735 110.343 63.1489 106.995 66.4975C103.647 69.8462 99.6727 72.5026 95.2982 74.3149C90.9236 76.1273 86.2349 77.0601 81.4998 77.0601C76.7647 77.0601 72.076 76.1273 67.7015 74.3149C63.327 72.5026 59.3523 69.8462 56.0046 66.4975C52.6568 63.1489 50.0016 59.1735 48.1905 54.7984C46.3794 50.4234 45.4479 45.7345 45.4492 40.9994C45.4481 36.2649 46.3796 31.5765 48.1905 27.202C50.0016 22.827 52.6568 18.8517 56.0046 15.503C59.3523 12.1543 63.327 9.49792 67.7015 7.68557C72.076 5.87323 76.7647 4.94043 81.4998 4.94043ZM81.4998 11.0412C77.566 11.0412 73.6708 11.8162 70.0366 13.3218C66.4023 14.8275 63.1003 17.0343 60.3191 19.8163C57.5379 22.5983 55.332 25.9009 53.8274 29.5356C52.3227 33.1702 51.5489 37.0657 51.55 40.9994V41.0011C51.5489 44.9349 52.3227 48.8303 53.8274 52.465C55.332 56.0996 57.5379 59.4022 60.3191 62.1842C63.1003 64.9662 66.4023 67.173 70.0366 68.6787C73.6708 70.1843 77.5661 70.9593 81.4998 70.9593C85.4336 70.9593 89.3289 70.1843 92.9631 68.6787C96.5973 67.173 99.8994 64.9662 102.681 62.1842C105.462 59.4022 107.668 56.0996 109.172 52.465C110.677 48.8303 111.451 44.9349 111.45 41.0011V40.9994C111.451 37.0657 110.677 33.1702 109.172 29.5356C107.668 25.9009 105.462 22.5983 102.681 19.8163C99.8994 17.0343 96.5973 14.8275 92.9631 13.3218C89.3289 11.8162 85.4336 11.0412 81.4998 11.0412Z" fill="white"/>
<path d="M70.9567 12.7896V12.8136H70.8828C70.8828 12.8136 70.8828 12.8016 70.8828 12.7896H70.9567Z" fill="white"/>
<path fill-rule="evenodd" clip-rule="evenodd" d="M70.1899 11.8431L50.3398 45.9813L75.7518 46.0772L81.4095 36.0084H63.4773L79.204 9.7334L70.1899 11.8431Z" fill="white"/>
<path d="M63.8841 35.7772H81.8036L75.8862 46.3081L49.9395 46.2102L70.0402 11.6407L79.6814 9.38428L63.8841 35.7772ZM70.3391 12.0446L50.7398 45.7517L75.6168 45.8456L81.015 36.2387H63.0701L78.7261 10.0817L70.3391 12.0446Z" fill="white"/>
<path fill-rule="evenodd" clip-rule="evenodd" d="M75.5605 70.9135L90.9036 45.7893L81.1224 45.6934L86.4925 36.3438L111.617 36.3917L106.63 45.5975L96.7531 45.5016L81.6978 71.2971L75.5605 70.9135Z" fill="white"/>
<path d="M112.602 35.8058L106.978 46.1884L97.0885 46.0924L82.0224 71.9061L74.5508 71.4391L89.8622 46.3666L80.1127 46.271L86.1525 35.7554L112.602 35.8058ZM82.1317 45.1155L91.9445 45.2117L76.5698 70.3878L81.3726 70.6879L96.4174 44.9106L106.282 45.0063L110.631 36.9773L86.832 36.9318L82.1317 45.1155Z" fill="white"/>
</g>
<defs>
<clipPath id="clip0_268_12430">
<rect width="88.4876" height="72.101" fill="white" transform="translate(37.2559 4.94971)"/>
</clipPath>
</defs>
</svg>
