<svg width="114" height="74" viewBox="0 0 114 74" fill="none" xmlns="http://www.w3.org/2000/svg">
<mask id="mask0_268_12503" style="mask-type:luminance" maskUnits="userSpaceOnUse" x="22" y="2" width="70" height="70">
<path d="M91.3899 2.62158H22.6094V71.3788H91.3899V2.62158Z" fill="white"/>
</mask>
<g mask="url(#mask0_268_12503)">
<path d="M90.9667 24.1478C90.9138 23.3545 90.5963 22.6141 90.0672 21.9794C88.6916 20.3927 85.623 16.9549 81.3375 12.6707C77.0519 8.38662 73.613 5.31898 72.0258 3.94384C71.4438 3.41493 70.6502 3.0976 69.8566 3.0447C67.846 2.88603 63.3489 2.62158 57.1057 2.62158C50.8626 2.62158 46.3653 2.88603 44.3549 3.0447C43.5613 3.0976 42.8205 3.41493 42.1857 3.94384C40.5984 5.31898 37.1593 8.38662 32.8738 12.6707C28.4295 17.1135 25.4667 20.4455 24.144 21.9794C23.6149 22.5612 23.2975 23.3545 23.2446 24.1478C23.0858 26.1577 22.8213 30.6534 22.8213 36.8945C22.8213 42.9239 23.0858 47.5782 23.2446 49.641C23.2975 50.4343 23.6149 51.1748 24.144 51.8094C25.4667 53.3433 28.4295 56.7283 32.8738 61.1182C37.1593 65.4022 40.5984 68.4699 42.1857 69.845C42.7677 70.3739 43.5613 70.5326 44.3549 70.5855C46.3653 70.7442 50.8626 71.0087 57.1057 71.0087C63.3489 71.0087 67.846 70.7442 69.8566 70.5855C70.6502 70.5326 71.391 70.3739 72.0258 69.845C73.613 68.4699 77.0519 65.4022 81.3375 61.1182C85.7816 56.6754 88.7446 53.3433 90.0672 51.8094C90.5963 51.1748 90.9138 50.4343 90.9667 49.641C91.1253 47.5782 91.39 42.9239 91.39 36.8945C91.39 30.6534 91.1253 26.2105 90.9667 24.1478ZM88.2683 48.7419C88.2155 49.4295 87.951 50.0641 87.5277 50.593C86.3107 51.9681 83.6124 55.0886 79.4328 59.214C75.4119 63.2337 72.1846 66.0898 70.756 67.3064C70.2269 67.7295 69.5921 67.9939 68.9043 68.0467C67.0524 68.2054 62.9256 68.4699 57.0529 68.4699C51.18 68.4699 47.0531 68.2054 45.2014 68.0467C44.5136 67.9939 43.8786 67.7295 43.3496 67.3064C41.9211 66.0898 38.6937 63.2337 34.6727 59.214C30.5459 55.0886 27.7947 51.9681 26.5778 50.593C26.1545 50.0641 25.89 49.4295 25.837 48.7419C25.6783 46.8907 25.4138 42.5537 25.4138 36.8945C25.4138 31.0236 25.6783 26.8981 25.837 25.047C25.89 24.3595 26.1545 23.7248 26.5778 23.2488C27.7417 21.8736 30.493 18.7531 34.6727 14.5748C38.6937 10.5551 41.9211 7.69904 43.3496 6.48256C43.8786 6.05944 44.5136 5.79499 45.2014 5.7421C47.0531 5.58342 51.18 5.31897 57.0529 5.31897C62.9256 5.31897 67.0524 5.58342 68.9043 5.7421C69.5921 5.79499 70.2269 6.05944 70.756 6.48256C72.1846 7.69904 75.4119 10.5551 79.4328 14.5748C83.4537 18.5944 86.3107 21.8207 87.5277 23.2488C87.951 23.7776 88.2155 24.4124 88.2683 25.1C88.4271 26.9511 88.6916 31.0765 88.6916 36.9473C88.6916 42.5537 88.4271 46.8907 88.2683 48.7419Z" fill="white"/>
<path d="M84.459 30.4422C84.4062 28.168 84.248 26.1581 84.1422 25.6821C84.0363 25.5234 83.7712 25.2061 83.6654 25.0474C81.7078 22.8261 79.6973 20.6575 77.0519 18.0131C71.8143 12.8298 69.0102 10.344 68.3224 9.86794C67.7932 9.81505 66.8409 9.70928 64.2484 9.6035C62.185 9.49771 59.5925 9.44482 59.381 9.44482C59.381 9.92084 59.328 44.2466 59.381 63.8157C59.381 64.1859 59.381 64.2918 59.381 64.2918C59.381 64.2918 65.4125 64.3446 68.3224 63.9215C70.3329 62.2291 74.0894 58.6854 76.8937 55.9351C79.8566 52.9734 82.3956 50.2231 83.0306 49.4827C83.2951 49.1654 83.93 48.5307 84.1945 48.0547C84.2474 47.6845 84.248 47.3671 84.3008 46.6795C84.5125 43.2416 84.5653 37.0535 84.5653 36.842C84.3008 36.842 75.2533 36.842 75.0417 36.842C75.0417 37.0007 75.0417 41.6021 75.0417 41.6021C75.1475 41.6021 79.4862 41.6021 79.6449 41.6021C79.6449 41.7078 79.5386 45.516 79.4328 46.1506C79.1153 46.6267 78.5338 47.1556 77.952 47.7902C77.2642 48.5307 76.3117 49.5355 74.3539 51.5455C71.9201 54.0841 68.0579 57.6276 66.3648 59.1614C66.3648 58.9498 66.3118 14.9983 66.3648 14.5752C66.7881 14.9454 67.8991 15.9503 68.1637 16.2148C70.2271 18.1716 72.3963 20.1816 74.1952 21.9798C76.7874 24.6772 79.3798 27.4804 79.4858 27.6919C79.5386 27.9035 79.6449 30.2307 79.6449 30.4422C79.7507 30.4422 84.2474 30.4422 84.459 30.4422Z" fill="white"/>
<path d="M47.8461 64.0799C47.8461 55.5116 47.8461 45.2513 47.8461 29.5428C47.899 28.5379 47.8461 23.0902 47.8461 23.0902C47.8461 23.0902 47.7932 23.3547 47.6874 23.4075C46.6291 26.2107 45.3594 29.1197 44.1954 32.2402C42.6611 36.2069 41.2326 40.2796 40.1215 43.3471L40.0158 43.2414L36.7883 37.5293L34.5132 33.5625C34.5132 33.5625 34.5132 38.3226 34.5132 38.7985C34.5662 43.1356 34.672 46.6264 34.8836 50.3815C34.8836 50.8576 35.0952 53.5549 35.0952 53.5549C35.0952 53.5549 33.508 51.9683 32.7144 51.0691C31.233 49.4824 30.7039 48.9006 30.069 48.0544C29.8044 45.1983 29.6457 42.0249 29.6986 35.9425C29.7515 30.0717 30.0161 26.2107 30.0161 25.7346C30.0161 25.6818 29.9632 25.6818 30.1748 25.4174C30.5981 24.8885 32.7144 22.5084 33.2435 22.0323C33.508 21.8208 33.5609 21.7679 33.5609 21.7679C33.5609 21.7679 33.8254 22.191 33.9842 22.4027C34.8836 23.7249 36.5238 26.6339 38.0581 29.2255C38.9575 30.8122 39.0633 30.918 39.0633 30.918C39.0633 30.918 40.2803 27.2685 43.2431 19.9168C45.5182 14.3104 47.7402 9.76187 47.7932 9.60321C47.9519 9.60321 49.645 9.49742 51.4438 9.44453C53.2427 9.33875 54.7242 9.39164 54.8828 9.39164C54.8828 9.70898 54.8828 9.92055 54.8828 9.92055C54.8828 9.92055 54.8828 43.5587 54.8828 63.6039C54.8828 63.8154 54.8828 63.9741 54.8828 64.2386C54.777 64.2386 54.4597 64.2386 54.195 64.2386C51.4967 64.2915 48.5339 64.1328 47.8461 64.0799Z" fill="white"/>
</g>
</svg>
