<svg width="190" height="86" viewBox="0 0 190 86" fill="none" xmlns="http://www.w3.org/2000/svg">
<path fill-rule="evenodd" clip-rule="evenodd" d="M125.602 74.4068H125.406H124.885L124.056 74.3706L122.892 74.2841L121.559 74.2117L119.914 74.121L118.248 73.891L116.384 73.6941L114.11 73.3595L111.905 73.0198L109.502 72.5231L107.041 71.9725L104.629 71.3174L102.161 70.5507L99.9743 69.6638L97.6175 68.6514L95.3809 67.477L93.1373 66.1632L91.0945 64.689L89.2181 63.0895L87.5577 61.2582L86.0895 59.2874L84.882 57.2436L84.1101 55.0411L83.5509 52.4465L83.3108 49.69V49.6398L83.293 49.3348V48.9096L83.3108 48.2893L83.3616 47.5419L83.5382 46.742L83.6589 45.7471L83.8494 44.7347L84.3244 43.5254L84.7258 42.5131L85.3897 41.1627L86.1718 39.8297L87.1941 38.5159L88.3467 37.4321L89.7069 36.0294L91.35 34.6616L93.1373 33.3808L95.2557 32.1367L97.5438 30.91L100.185 29.774L102.844 28.725L106.118 27.7301L109.61 26.8763L113.531 26.2019L117.675 25.6531L122.173 25.2593L124.307 25.1534L128.696 25.1353L131.42 25.3322L131.492 25.3671L132.736 25.5081L133.698 25.6169L134.988 25.7772L138.07 26.2198L140.465 26.7355L143.053 27.3019L145.626 28.0512L148.194 28.7969L150.751 29.6856L153.284 30.752L155.698 31.9612L157.885 33.1879L160.094 34.7317L162.084 36.3139L163.905 38.0023L165.394 39.8685L166.631 42.0169L167.626 44.2542L168.258 46.7947L168.47 49.567V49.6409V49.8709L168.452 50.3135V50.9181L168.397 51.6656L168.223 52.4654L167.961 53.4429L167.649 54.5284L167.227 55.6994L166.7 56.6944L166.019 57.9924L165.285 59.2191L164.254 60.587L163.1 61.9722L161.773 63.3053L160.179 64.6173L158.38 65.9677L156.404 67.177L154.299 68.4211L151.761 69.5746L149.003 70.6253L145.888 71.568L142.443 72.42L138.703 73.1467L134.819 73.6955L130.361 74.1224L125.602 74.4099V74.4068ZM127.118 70.6554H125.459L120.614 70.4445L116.401 70.197L112.238 69.6429L108.441 69.0749L105.082 68.31L101.99 67.4753L99.4512 66.517L96.952 65.5744L94.7668 64.4731L92.808 63.4084L91.0945 62.1817L89.6366 61.0091L88.3587 59.7998L87.297 58.6638L86.5114 57.4545L85.7361 56.4595L85.2301 55.306L84.779 54.2763L84.4102 53.1541L84.3251 52.2829L84.2057 51.3785L84.1316 50.5979V49.9375V49.3886L84.1495 49.0122L84.2057 48.7318V48.6425L84.3944 46.3146L85.0908 44.1644L86.0531 42.2268L87.3327 40.3972L88.9089 38.728L90.7426 37.4647L92.6328 36.0794L94.7682 34.9259L97.0032 33.8753L99.3993 32.8628L101.622 32.1171L104.001 31.4062L106.464 30.7667L109.003 30.3416L111.451 29.9304L113.778 29.5575L115.912 29.2926L117.992 29.0782L119.795 28.9353L121.298 28.867L122.819 28.7806L123.991 28.7235H124.835L125.408 28.6886H125.603L130.483 28.936L134.941 29.2933L138.863 29.8247L142.67 30.4468L146.117 31.2135L149.14 32.0829L151.906 32.9716L154.421 34.0014L156.474 35.0504L158.347 36.1691L160.095 37.3783L161.58 38.2286L162.889 39.4553L163.973 40.6646L164.849 41.8198L165.532 42.8671L166.093 43.8968L166.565 44.9301L166.897 45.8902L167.211 46.7927L167.405 47.5403L167.508 48.2878L167.53 48.3937L167.56 48.7492L167.581 49.2998L167.538 49.8138L167.125 52.3735L166.348 54.7014L165.394 56.6739L164.08 58.5906L162.437 60.279L160.651 61.8611L158.641 63.2639L156.487 64.5463L154.317 65.5918L151.924 66.5518L149.526 67.4405L147.062 68.0782L144.578 68.7387L142.096 69.1812L139.676 69.6255L137.479 69.9096L135.269 70.2128L133.276 70.2992L131.41 70.496L129.707 70.5699L128.295 70.6549L127.118 70.6554Z" fill="#AFAFAF"/>
<path fill-rule="evenodd" clip-rule="evenodd" d="M81.0172 17.7616V17.9385V18.4532V19.3407V20.1248V21.4371V22.8611V24.2822V25.6327V26.8224V28.0313V28.9188V29.5586V29.9152L81.2985 30.8001L81.8265 31.5134L82.6064 31.9218L83.6944 32.0445H86.1708V31.8349V31.2658V30.3946V29.3111V28.0668V26.7491V25.4558V24.1027V22.8449V21.6878V20.9227V20.2666V19.9998L90.7645 19.965H95.1384V17.7814H89.5155L87.9237 17.7982H86.4764L84.9541 17.7814H81.8265L81.2261 17.7619L81.0172 17.7616ZM97.0546 17.7616V17.9385V18.4532V19.3625V20.1602V21.4752V22.9128V24.353L97.0203 25.6516V26.8224V27.9959V28.7963V29.3272V29.575L97.3472 30.5905L97.7894 31.2657L98.7167 31.8347L99.5716 32.0444H111.08V31.8347L111.063 31.3528V30.7158L111.05 30.0732V29.5423V29.3272H109.353H108.278H107.113L105.974 29.3105L104.821 29.291L103.931 29.2687L103.264 29.1837L102.945 29.1669L102.473 28.9519L102.334 28.5434V28.0806L102.353 20.068H111.079V19.9265V19.5889V19.1613V18.399V17.9362V17.7593H97.0548L97.0546 17.7616ZM112.955 17.7616V17.9385V18.3852V19.1311V19.5912V19.8771V20.0349L113.162 20.0517H115.576L115.911 20.0349H116.139V20.3371L116.171 20.9416V21.7067V22.8447V23.9963V25.2597L116.139 26.3242V27.3532V28.2464V28.7963V29.0086L116.171 29.8445L116.342 30.555L116.586 31.1404L117.05 31.6387L117.8 31.9381L118.915 32.0441H121.614V20.0348H122.308L123.201 20.0153H124.165L125.087 20.0348H125.72H126.301H126.439L126.455 20.337V20.9414V21.7255V22.9125L126.439 24.1022V25.3656V26.4819V27.5165V28.4394V29.0084V29.169L126.559 30.2173L126.803 30.9441L127.264 31.5485L128.033 31.9216L129.06 32.0442H132.262V31.8128V31.2438V30.3943V29.3108V28.0665L132.282 26.7869V25.5263V24.1542V22.9317V21.7937L132.262 21.0287V20.514V20.1601H135.326V19.945V19.5911V19.1828V18.4013V17.9385V17.7806L112.955 17.7616ZM137.213 17.7616V17.955V18.4695V19.4306V20.389V21.6005V22.9836V24.4782V25.7933V26.9476V28.0313V28.7228V29.1176L137.25 30.3046L137.488 31.0669L138.07 31.6387L138.788 31.9381L139.908 32.0441H142.494L142.475 30.5195V28.9022V27.1598V25.4908V23.7483V22.0984L142.494 20.729V19.5555V18.4883V17.9738V17.7614L137.213 17.7616ZM27.5098 17.7993V27.7095L27.5317 28.9047L27.6689 29.9474L28.0013 30.7534L28.7062 31.4068L29.1912 31.8506L30.1346 32.082L31.078 32.1169L32.15 32.1001L32.9513 32.0806V31.8846V31.3156V30.4824V29.3989V28.171V26.8205V25.5436V24.2422V22.9844V21.9144V21.0623V20.583V20.2645H34.5808L35.4143 20.2966H37.4646L37.6789 20.2645L38.4268 20.6021L38.7831 21.0295L38.9895 21.4897V22.0941L38.9703 22.6114L38.7425 22.949L38.4262 23.2132L37.7964 23.3386L36.8879 23.4964L35.6658 23.5703L34.0391 23.5536V23.7469V24.2425V24.7761V25.3478L34.1433 25.7181L34.5614 26.0393L35.1939 26.1104H36.7671L38.2518 26.1452H39.6347L40.8193 26.0393L41.9235 25.8787L42.8508 25.5057L43.6575 24.7761L44.2525 23.8014L44.5285 22.7178L44.5847 21.5417L44.4106 20.6023L43.9683 19.5868L43.0812 18.5413L41.961 17.9723L40.6504 17.8308H39.1308L27.5098 17.7993ZM60.2173 17.8132L60.0295 17.8327H58.526H57.3709H53.0133H51.5793H46.3452H46.0987V17.9742V18.4889L46.0849 19.5207V20.607V21.9575V23.3595V24.974V26.4497V27.871L46.0987 29.1151L46.2249 29.9319L46.509 30.6261L46.9619 31.2986L47.4014 31.8159L48.3636 32.0446L52.2952 32.0823H56.2832H60.1156V31.8509V31.3907L60.0991 30.7155V30.0403L60.1307 29.327H56.3894H55.1163H53.326H52.7847L52.4014 29.2921L52.1736 29.2726L51.9967 29.1694L51.8979 29.1151L51.6541 28.9028L51.5786 28.5978L51.4936 28.0833V20.2313H58.526L59.4346 20.2118L60.0295 20.1602H60.2171V19.9452V19.5884V19.1991V18.4532V17.9739L60.2173 17.8132ZM62.2486 17.8132V17.9738V18.4694V19.3623V20.2309V21.5104V22.9317V24.3883V25.7197V26.9284V28.0665V29.0084V29.6837V30.0539L62.4604 30.7509L62.9187 31.3881L63.5913 31.8128L63.8379 31.9216L64.4517 31.9926H65.2047H65.872H66.5314L67.1103 31.9759H67.3006V31.7771V31.2108V30.394V29.3104L67.3253 28.0826V26.822V25.5451V24.2464V22.9832V21.954V21.0856V20.6035V20.3015H67.5183L68.0061 20.3363H72.5701L73.1625 20.8317L73.4626 21.3518L73.5696 22.1305L73.2507 22.8764L72.5165 23.2685L70.4233 23.3034H68.515V24.101L68.5795 24.8661L68.8261 25.544L68.9167 25.6667L69.2651 26.1104L69.7153 26.821L70.2593 27.725L70.8945 28.7432L71.5378 29.7369L72.0979 30.6055L72.5696 31.3705L72.8858 31.8496L73.0231 32.043H73.7708H74.5668H75.4753L76.5205 32.0109H77.4532L78.2331 31.9914H79.021L75.2422 26.1487L76.1882 26.0428L77.0646 25.7188L78.0107 25.1307L78.6404 24.2104L79.0934 22.9826L79.1784 21.4361L79.0577 20.6031L78.6691 19.5903L78.2323 19.092L77.5033 18.2045L76.5894 17.9376L75.4584 17.8316L62.2486 17.8132ZM52.6112 23.4462V23.6233L52.5769 24.1024L52.5426 24.6006V25.0635V25.2567L52.6277 25.5263L52.7539 25.7197L53.0138 25.9183L53.523 26.041L54.2735 26.0925L54.4504 26.0758H57.7039L58.6634 26.0925H59.974L60.132 26.1121V25.9352V25.5076V24.778V24.1573V23.6781V23.4467L52.6112 23.4462ZM87.3152 23.4462V23.713V24.1569L87.3317 24.6197L87.5755 25.4881L88.2214 26.0408H88.6958L89.5508 26.1119H92.0405L93.5226 26.0924H94.9752V25.9345V25.5071V24.7775V24.1757V23.7129V23.4461H93.997L92.807 23.4656H90.2342L89.0978 23.4461L87.3152 23.4462ZM103.264 23.4462V24.1758V24.8157L103.318 25.4529L103.578 25.8094L104.068 26.0408L104.465 26.0603H109.278L110.082 26.0408H110.999V25.9182V25.4717V24.7775V24.1567V23.7129V23.4652H107.059L105.974 23.4457L103.264 23.4462Z" fill="white"/>
<path fill-rule="evenodd" clip-rule="evenodd" d="M159.424 51.6445L158.182 52.852L156.784 53.9725L155.191 55.126L155.225 55.464L155.697 55.9798L156.328 56.1418L156.994 55.9449L157.836 55.464L158.462 54.9848L159.249 55.5895L159.2 55.6438L158.099 56.5499L156.939 56.9751L155.769 57.2608L154.632 57.1869L153.745 56.7618L152.991 56.3001L152.538 56.4586L151.821 56.6207L150.852 56.9221L149.845 57.2044L148.689 57.3473L147.852 57.1869L147.286 56.781L146.696 56.4586L146.169 55.3399L146.134 55.3051L144.578 56.4238L142.813 57.1191L142.022 57.2601L141.183 57.2044L140.417 56.7462L139.962 56.335L139.7 55.8557L139.54 55.3051L139.437 55.287L139.278 55.3051L138.07 56.2112L136.689 56.8141L135.076 57.2776L133.835 57.2037L132.981 56.7978L132.245 56.2994L131.475 56.5659L130.741 56.7978L129.923 57.0278L128.696 57.3117L127.467 57.0278L126.559 56.4753L126.052 55.5188L125.934 54.435L126.041 53.278L126.16 52.1575L126.405 51.0563L126.946 49.5299L127.561 47.9303L128.309 46.1722L129.18 44.6075L129.115 44.5378L127.748 46.261L126.456 48.0018L124.394 50.9152L122.293 53.7222L120.125 56.0327L117.748 57.8955L116.225 58.9287L116.535 58.5716L116.858 58.0749L117.329 57.3832L119.863 53.2118L121.892 48.5873L122.664 46.7036L123.463 44.5901L123.431 44.6082L122.646 45.5508L121.946 46.511L121.397 47.2027L121.102 47.6296L120.124 48.98L119.526 50.0098L118.797 51.057L117.991 52.0903L116.905 53.2978L115.859 54.4164L115.034 55.2702L114.265 56.016L113.375 56.6207L112.27 57.5616L110.464 58.912L109.066 59.7641L107.598 60.6005L104.819 61.754L102.036 62.4649L99.2054 62.6601L97.0184 62.5189L94.9413 62.0763L92.9105 61.4369L90.986 60.4209L89.1129 59.0358L88.01 57.9694L87.2056 56.673L86.643 55.3957L86.4766 53.831L86.5616 52.2314L87.0505 50.6144L87.6818 49.3877L88.4827 48.2865L89.5153 47.2184L91.0075 45.9934L92.8378 44.8905L95.4123 43.7927L97.841 43.08L100.361 42.7942L102.561 42.85L105.172 43.2055L107.532 43.9338L109.609 44.9288L111.361 45.976L113.199 47.3978L114.873 48.9974L114.264 49.6021L113.264 48.7116L112.323 47.9851L111.463 47.3439L110.735 46.9187L108.839 45.976L106.777 45.2128L104.645 44.7876L101.863 44.5176L99.57 44.5385L97.2631 44.8731L94.8325 45.5334L93.6078 46.0475L92.2288 46.7914L90.788 47.823L89.3781 49.0497L88.3249 50.4176L87.7469 51.6617L87.4896 53.012L87.5034 54.3625L87.819 55.6954L88.3576 56.673L89.0437 57.5616L90.3523 58.8039L91.8754 59.6578L94.131 60.6179L96.5289 61.1144L99.0657 61.1883L101.707 60.8329L104.416 60.0871L106.971 59.0365L109.031 58.0415L110.889 56.8148L112.53 55.6961L114.156 54.2761L116.138 52.321L117.777 50.3119L119.525 48.0032L120.755 46.1388L124.005 41.7652L124.461 41.1605L125.213 40.3625L126.158 39.3693L127.209 38.1949L128.345 37.3968L129.569 36.3113L130.672 35.4766L132.859 34.0357L135.182 32.8647L132.799 35.2815L130.672 37.8029L128.743 40.4705L128.048 41.6066L127.465 42.7949L126.928 43.8806L126.58 44.7326L125.72 46.9194L125.756 46.9027L129.286 42.5291L132.91 38.2304L134.166 37.2007L135.392 36.0802L136.687 35.1028L138.12 34.1984L138.293 34.0729L138.559 33.9318L138.641 33.8426L139.327 33.5046L139.908 33.3268L139.728 33.5046L139.382 33.9315L138.49 34.9438L137.631 36.0469L136.807 37.183L136.128 37.9462L133.139 42.6543L130.672 47.9147L130.166 49.354L129.693 51.0407L129.394 52.8372L129.339 53.4418L129.413 54.2224L129.64 54.9159L130.115 55.4474L130.547 55.5903L131.038 55.4335L131.636 55.2174L131.669 55.1087L131.806 53.6711L132.263 52.2667L132.942 50.9703L133.786 49.8865L134.921 48.9804L136.129 48.2695L137.071 47.8617L137.978 47.6998L138.861 47.7555L139.782 48.1458L140.153 48.8358L140.079 49.6025L139.609 50.5086L138.82 51.5035L138.049 52.3208L137.195 53.1014L135.815 54.2217L134.377 55.1993L134.412 55.5896L134.83 55.9276L135.513 55.9973L136.372 55.769L137.195 55.2707L138.032 54.612L138.886 53.8662L139.626 53.1536L139.747 53.0296L139.834 52.6044L139.944 52.0347L140.308 50.9335L140.709 49.9385L141.073 48.9262L141.901 47.3266L142.863 45.6032L144.088 43.7929L145.397 42.0486L146.695 40.449L147.464 39.6858L148.421 38.7293L149.563 37.9452L150.875 37.1994L151.45 37.0391H151.994L152.555 37.3056L152.884 37.7884V38.1943L152.64 39.1022L151.538 41.2854L150.172 43.312L148.736 45.3716L147.165 47.2917L143.052 51.9093L142.531 53.2788L142.392 54.1692L142.443 55.1084L142.77 55.4464H143.455L144.101 55.2513L144.727 54.7913L145.326 54.3626L145.942 53.866L146.358 53.385L147.621 49.6545L149.209 46.0476L151.204 42.8327L152.041 41.7821L153.003 40.6634L153.983 39.5796L155.032 38.602L155.821 37.98L156.502 37.6263L157.326 37.1994L158.074 37.0391L158.708 37.2343L159.058 37.6072L159.125 37.9991L158.933 39.137L158.444 40.2557L158.271 40.7192L158.064 41.16L157.781 41.6583L157.326 42.5121L156.748 43.2945L156.227 44.218L155.661 45.1781L155.07 45.9935L152.619 48.8948L149.944 51.5747L149.352 52.3205L149.072 53.2266L149.002 54.2214L149.02 54.9846L149.456 55.6433L149.914 55.8559H150.506L151.07 55.7862L151.886 55.4325L152.567 54.9846L152.818 53.1359L153.464 51.6444L154.497 50.2591L155.65 49.123L156.852 48.2866L158.288 47.7378L159.408 47.6124L160.128 47.8405L160.65 48.4278L160.828 49.0672L160.65 49.7068L160.387 50.3114L160.094 50.8464L159.424 51.6445ZM109.597 56.5669L108.528 56.6213L107.533 56.4592L107.06 55.9452L107.024 55.2882L107.621 53.6173L108.23 51.9097L108.06 51.5925L107.724 51.5744L107.233 51.7329L106.952 51.9473L106.831 52.0902L106.727 52.3899L106.187 53.8134L105.645 55.1639L105.173 56.4585L105.155 56.5491H102.843L103.051 56.0333V55.9622L102.912 56.0333L101.745 56.5491L100.555 56.5658L100.131 56.3881L99.7127 55.9438L99.0661 56.2993L98.1004 56.5658H96.9992L96.1468 56.2103L95.6682 55.5361L95.4298 54.6648L95.5135 53.7953L95.7589 53.0495L95.5839 52.9408L95.4755 53.0272L94.8134 54.1668L94.1154 55.3029L93.1942 56.2805L92.0656 56.7962L91.2612 56.9022L90.5683 56.6182L90.1789 56.139L90.1089 55.3374L90.1967 54.5394L90.4249 53.811L91.039 52.1383L91.1281 51.6592L91.0074 51.3751L90.7398 51.3221L90.1789 51.6585L89.7055 52.2997L89.0966 51.9617L89.1117 51.8376L89.3776 51.4821L89.9505 50.6806L90.7395 50.1823L91.5114 49.8303L92.453 49.8094L93.0997 50.2032L93.4375 50.8602L93.3621 51.8899L93.0345 52.9911L92.6812 53.9687L92.5079 54.6081L92.3816 55.2128L92.579 55.3713L92.8722 55.2472L93.0524 55.0347L93.9425 53.8619L94.5017 52.921L94.7795 52.1369L94.6588 51.7117L94.501 51.3563L94.3072 50.6105L94.5867 49.9344L94.8321 49.7027H95.2369L95.5834 50.0234L95.7583 50.5043L95.8269 51.0357L95.9367 51.5707L96.1579 51.872L96.6656 51.8372L97.0173 51.6229L97.4049 51.25L97.6502 50.966L98.314 50.452L99.0104 50.0234L99.7514 49.8647L100.499 49.9344L101.216 50.4137L101.305 50.3077L101.336 49.9348H102.332H103.576L103.508 50.1648L101.987 54.5558L101.946 54.6255L101.862 54.7702L102.087 55.1048L102.703 54.8939L103.138 54.521L103.66 54.0575L103.838 53.7369L103.963 53.6672L105.306 49.9348H107.755L107.531 50.4873V50.5207L108.369 50.2907L109.244 50.1653L110.05 50.3081L110.462 50.8431L110.57 51.4826L110.397 52.0315L110.082 52.8853L109.783 53.7931L109.418 54.68V54.9814L109.608 55.2481L110.027 55.1226L110.397 54.8055L110.733 54.4831L111.047 54.2182L111.079 54.0214L111.969 54.7323L111.307 55.5164L110.523 56.2081L109.595 56.5636L109.597 56.5669ZM100.691 51.2194L100.288 50.8988L99.559 51.1288L98.9415 51.7333L98.451 52.3903L98.1749 52.9949L97.9073 53.6709L97.7546 54.3628L97.9828 55.126L98.6483 55.3402L99.2057 55.0388L99.6962 54.5248L100.065 53.9899L100.273 53.5822L100.393 53.3503L100.502 53.0297L100.658 52.3903L100.726 51.7682L100.691 51.2194ZM157.167 39.5798L157.4 39.1023V38.6022L156.994 38.4767L156.275 39.0814L155.649 39.7766L155.071 40.6287L154.616 41.2856L152.5 44.8908L150.841 48.6422L153.779 45.0528L156.328 41.3396L157.167 39.5798ZM138.104 49.0674L138.002 48.874L137.723 48.75L137.006 49.0322L136.337 49.6544L135.726 50.4176L135.268 51.1146L134.784 52.39L134.393 53.6707L134.433 53.6888L136.13 52.3559L137.262 51.1292L137.49 50.8992L137.893 50.3311L138.121 49.7073L138.104 49.0674ZM150.767 39.5798L150.906 39.1023V38.6022L150.543 38.4767L149.737 39.0814L149.02 39.7766L148.474 40.6287L148.075 41.2856L146.006 44.8908L144.316 48.6422H144.334L147.307 45.0528L149.808 41.3396L150.767 39.5798ZM158.709 49.1231L158.515 48.9437L158.272 48.8949L157.452 49.1057L156.767 49.7069L156.275 50.4562L155.822 51.181L155.404 52.4635L155.071 53.7232L155.122 53.7413L156.628 52.391L157.78 51.2201L158.063 50.9534L158.413 50.4185L158.708 49.7964L158.709 49.1231Z" fill="white"/>
</svg>
