<svg width="191" height="58" viewBox="0 0 191 58" fill="none" xmlns="http://www.w3.org/2000/svg">
<g clip-path="url(#clip0_268_11659)">
<path d="M72.5463 34.7263V45.5281C72.5474 45.8147 72.5334 46.1011 72.5045 46.3862C72.4719 46.8179 72.3167 47.2311 72.0574 47.5768C71.7981 47.9225 71.4455 48.1862 71.0415 48.3366C68.6409 49.3712 66.1185 50.0932 63.5357 50.4849C61.5159 50.7817 59.4718 50.8782 57.4332 50.773C55.4124 50.6944 53.4222 50.2512 51.5575 49.4647C49.8902 48.7818 48.388 47.7476 47.1519 46.4319C45.9159 45.1162 44.9748 43.5495 44.3921 41.8375C42.8833 37.7777 42.7656 33.328 44.0577 29.1934C45.7356 23.7926 49.4318 20.576 54.8596 19.2738C56.8361 18.8483 58.8637 18.7149 60.8785 18.8778C64.2217 19.074 67.5156 19.7802 70.6474 20.9721C72.0805 21.5242 72.5463 22.1243 72.5463 23.6906V34.7263ZM64.5807 34.8524V28.6234C64.6305 28.2384 64.5357 27.8487 64.3149 27.5302C64.094 27.2117 63.763 26.9874 63.3864 26.9011C63.1894 26.8231 62.9804 26.7751 62.7893 26.715C61.526 26.3753 60.2215 26.2157 58.914 26.241C55.1999 26.271 52.6263 28.1913 51.7486 31.6418C51.1657 33.8218 51.1968 36.1216 51.8382 38.2849C52.1518 39.5484 52.8288 40.6911 53.7844 41.5704C54.7401 42.4498 55.9323 43.0269 57.2122 43.2297C59.3035 43.5963 61.4532 43.4208 63.4581 42.7196C64.3478 42.4316 64.6523 41.9575 64.6523 40.9854C64.5966 38.937 64.5668 36.8867 64.5628 34.8344L64.5807 34.8524ZM144.445 34.8404C144.5 37.6925 143.854 40.5142 142.565 43.0557C140.254 47.4484 136.593 49.9208 131.733 50.6229C129.118 51.0251 126.446 50.8198 123.922 50.0228C121.733 49.379 119.736 48.1995 118.112 46.5898C116.487 44.9801 115.285 42.9905 114.613 40.7993C113.224 36.7905 113.273 32.42 114.751 28.4433C116.811 22.8504 120.913 19.7239 126.765 18.9558C129.418 18.5834 132.121 18.8571 134.647 19.7539C139.663 21.5542 142.666 25.1548 143.956 30.3036C144.304 31.7899 144.468 33.3137 144.445 34.8404ZM128.962 26.163C127.545 26.1127 126.148 26.5187 124.976 27.3218C123.805 28.1249 122.919 29.2832 122.448 30.6277C122.053 31.7043 121.828 32.836 121.779 33.9822C121.629 35.7723 121.899 37.5729 122.567 39.2391C122.936 40.1913 123.527 41.0409 124.289 41.7173C125.052 42.3937 125.964 42.8773 126.95 43.1277C127.455 43.2579 127.971 43.3462 128.49 43.3918C130.022 43.6176 131.585 43.2922 132.901 42.4731C134.218 41.654 135.204 40.3938 135.686 38.915C136.656 36.2675 136.656 33.3592 135.686 30.7117C135.345 29.6721 134.743 28.7388 133.937 28.0027C133.132 27.2665 132.15 26.7526 131.088 26.511C130.377 26.325 129.661 26.271 128.962 26.163ZM79.9625 36.0346V23.8706V23.1505C79.9726 22.6693 80.1323 22.2033 80.4193 21.818C80.7063 21.4327 81.1062 21.1474 81.5628 21.0021C84.5839 19.9268 87.7274 19.2372 90.9196 18.9498C93.213 18.7335 95.5237 18.7879 97.8044 19.1118C99.2871 19.3191 100.732 19.7437 102.092 20.372C103.564 21.0309 104.843 22.0601 105.804 23.3604C106.765 24.6607 107.377 26.1882 107.579 27.7952C107.714 28.6184 107.78 29.4514 107.776 30.2856V48.8946C107.776 49.7588 107.364 50.1789 106.516 50.1849H101.101C100.933 50.204 100.764 50.1857 100.605 50.1313C100.445 50.0768 100.3 49.9876 100.179 49.87C100.058 49.7524 99.9641 49.6093 99.9046 49.4511C99.8451 49.2928 99.8212 49.1233 99.8346 48.9547V48.2405V31.7739C99.8328 31.1552 99.7708 30.5381 99.6495 29.9316C99.5214 29.2473 99.2224 28.6069 98.7806 28.0705C98.3388 27.5342 97.7687 27.1194 97.1237 26.8651C96.4488 26.5714 95.7346 26.3793 95.0039 26.295C93.1595 26.104 91.2961 26.2401 89.4985 26.697C89.2204 26.7612 88.95 26.8558 88.6924 26.9791C88.4712 27.0775 88.2831 27.238 88.1507 27.4414C88.0183 27.6447 87.9472 27.8822 87.946 28.1253V48.9607C87.9536 49.1274 87.9266 49.2939 87.8666 49.4496C87.8066 49.6052 87.7149 49.7466 87.5975 49.8646C87.48 49.9826 87.3394 50.0748 87.1845 50.1351C87.0296 50.1954 86.8639 50.2226 86.698 50.2149H85.7008C84.3931 50.2149 83.0854 50.1729 81.7837 50.2149C80.482 50.2569 79.9505 49.8128 79.9923 48.4146C79.9864 44.2919 79.9625 40.1632 79.9625 36.0346ZM34.4261 50.1969H31.7928C30.8136 50.1969 30.5329 49.7828 30.7539 48.8286C30.9187 48.1836 31.0247 47.5247 31.0703 46.8603C31.1236 46.0355 30.9569 45.2114 30.5874 44.4729C30.2179 43.7345 29.659 43.1085 28.9685 42.6596C27.9301 41.9416 26.7855 41.3927 25.5768 41.0334C23.6123 40.4333 21.6358 39.8332 19.6713 39.1791C18.0793 38.6908 16.5637 37.9798 15.169 37.0667C14.0253 36.3265 13.0827 35.312 12.426 34.1147C11.7694 32.9174 11.4192 31.5747 11.4072 30.2076C11.1862 25.2028 13.8733 21.4642 18.3338 19.7239C20.5799 18.8699 22.9743 18.4801 25.3738 18.5777C29.0141 18.6217 32.6039 19.4398 35.907 20.9781C36.3787 21.2001 36.8445 21.4402 37.2983 21.6982C37.5051 21.7809 37.6919 21.907 37.8464 22.068C38.0008 22.2291 38.1193 22.4214 38.1939 22.6321C38.2685 22.8428 38.2975 23.0671 38.279 23.29C38.2605 23.5129 38.1948 23.7292 38.0865 23.9246C37.9193 24.3447 37.7163 24.7467 37.5252 25.1608C37.1251 26.0249 36.6833 26.8711 36.331 27.7532C35.7756 29.1274 34.6411 29.2595 33.62 28.6714C32.0786 27.7734 30.4291 27.0776 28.7117 26.601C26.6649 25.9576 24.4888 25.8482 22.3882 26.283C21.7671 26.4291 21.1754 26.6807 20.6387 27.0271C20.2968 27.2274 20.0113 27.512 19.8093 27.8541C19.6072 28.1961 19.4952 28.5842 19.4839 28.9817C19.4725 29.3793 19.5622 29.7732 19.7444 30.1263C19.9266 30.4794 20.1953 30.78 20.5252 30.9997C21.1965 31.4886 21.9373 31.8729 22.7226 32.1399C24.5617 32.77 26.4367 33.2921 28.2997 33.8622C30.058 34.36 31.7623 35.0335 33.3872 35.8725C34.4174 36.4196 35.3694 37.1039 36.2175 37.9069C37.8156 39.4531 38.8253 41.5122 39.0717 43.7278C39.2612 45.1744 39.2108 46.6425 38.9225 48.0725C38.8442 48.4297 38.7465 48.7823 38.6299 49.1287C38.5486 49.458 38.3529 49.7472 38.078 49.9442C37.8032 50.1411 37.4673 50.2329 37.1311 50.2029H34.4261V50.1969ZM158.37 19.4299H165.882C166.861 19.4299 167.243 19.8259 167.267 20.8281V24.6927C167.267 25.8509 166.921 26.205 165.786 26.211H158.299C158.299 26.559 158.269 26.8591 158.269 27.1591V48.9847C158.275 49.1471 158.247 49.3089 158.187 49.4598C158.127 49.6107 158.036 49.7471 157.92 49.8603C157.804 49.9735 157.666 50.0609 157.514 50.1168C157.362 50.1728 157.2 50.1959 157.039 50.1849H151.915C150.751 50.1849 150.375 49.8008 150.375 48.6426V28.0473V19.6459C150.376 18.2142 150.559 16.7886 150.918 15.4032C152.047 11.1245 154.788 8.50208 159.063 7.52392C161.529 6.9751 164.085 6.9751 166.551 7.52392L166.825 7.58993C167.876 7.86598 168.133 8.28605 167.93 9.39023L167.303 12.6908V12.7568C167.082 13.837 166.706 14.107 165.607 13.957C165.165 13.8754 164.718 13.8173 164.27 13.7829C163.42 13.7317 162.567 13.7498 161.72 13.8369C160.92 13.919 160.169 14.264 159.584 14.8184C158.999 15.3728 158.612 16.1057 158.484 16.9034C158.292 17.7315 158.254 18.5878 158.37 19.4299ZM179.735 34.8284V48.6306C179.735 49.8308 179.377 50.1849 178.147 50.1909H173.167C172.2 50.1909 171.794 49.7648 171.758 48.7926V21.3142V20.6661C171.753 20.4981 171.784 20.331 171.847 20.1756C171.911 20.0202 172.006 19.88 172.127 19.764C172.248 19.648 172.392 19.5589 172.55 19.5024C172.707 19.4459 172.875 19.4232 173.041 19.4359H178.308C179.335 19.4359 179.723 19.8319 179.723 20.8761C179.735 25.5289 179.739 30.1796 179.735 34.8284Z" fill="white"/>
<path d="M19.4021 46.5541C19.3483 46.9321 19.3125 47.3102 19.2409 47.6823C19.0921 48.5115 18.6623 49.2635 18.0245 49.8105C17.3866 50.3574 16.58 50.6656 15.7417 50.6827C15.1974 50.7175 14.651 50.6771 14.1176 50.5627C13.2873 50.4356 12.5267 50.0226 11.9658 49.3943C11.4049 48.766 11.0785 47.9615 11.0424 47.1182C10.9991 46.4762 11.0494 45.8312 11.1917 45.2039C11.3432 44.5101 11.7006 43.8789 12.2166 43.3935C12.7326 42.9082 13.3829 42.5915 14.0818 42.4854C14.8966 42.3147 15.7404 42.3435 16.5419 42.5694C18.3631 43.0555 19.3603 44.4837 19.4021 46.5541ZM175.847 15.571C175.423 15.5461 175 15.4939 174.582 15.415C173.747 15.2483 172.997 14.7934 172.462 14.1291C171.926 13.4649 171.639 12.6333 171.65 11.7784C171.626 11.1841 171.678 10.5892 171.805 10.0081C171.973 9.28525 172.363 8.63398 172.921 8.14699C173.478 7.66001 174.174 7.36211 174.91 7.2957C175.522 7.22491 176.141 7.24107 176.749 7.3437C177.655 7.46837 178.481 7.92797 179.068 8.63267C179.654 9.33737 179.958 10.2365 179.92 11.1543C179.93 11.7251 179.862 12.2946 179.717 12.8466C179.37 14.2208 178.134 15.601 175.847 15.571Z" fill="#4C4C4C"/>
</g>
<defs>
<clipPath id="clip0_268_11659">
<rect width="169" height="44.1591" fill="white" transform="translate(11 6.92041)"/>
</clipPath>
</defs>
</svg>
