<svg width="172" height="46" viewBox="0 0 172 46" fill="none" xmlns="http://www.w3.org/2000/svg">
<path d="M25.05 6.69915C21.4424 5.11767 19.2911 4.50405 17.1547 4.50405C14.9126 4.50405 13.4765 5.2969 13.4765 6.52202C13.4765 10.2195 26.1786 9.1789 26.1786 17.7315C26.1786 22.4475 22.1716 25.1877 16.6048 25.1877C12.2381 25.1877 10.0878 24.0722 7.6108 22.8091V17.5186C11.1832 19.856 13.3698 20.6815 16.1255 20.6815C18.5149 20.6815 19.8035 19.856 19.8035 18.4169C19.8035 14.3904 7.10156 15.8654 7.10156 7.05863C7.10156 2.81183 10.8181 0 16.6048 0C19.3978 0 21.9175 0.578779 25.05 1.90933V6.69915ZM42.8342 24.0638C40.717 24.8218 38.9265 25.1835 37.1403 25.1835C31.2244 25.1835 27.4 21.7811 27.4 16.6044C27.4 11.5226 31.3728 7.9327 36.9203 7.9327C38.634 7.9327 40.8248 8.36598 42.5768 9.01021V12.9007C41.19 12.1732 39.5842 11.7746 38.2699 11.7746C35.0946 11.7746 33.0522 13.6587 33.0522 16.5665C33.0522 19.5155 35.0605 21.4564 38.0862 21.4564C39.3632 21.4564 40.4981 21.1675 42.8342 20.3041V24.0638ZM88.9573 14.6982C89.174 12.3893 90.5321 11.0545 92.6119 11.0545C94.6565 11.0545 96.0424 12.4272 96.2612 14.6982H88.9573ZM92.2468 7.93793C87.0558 7.93793 83.3606 11.5585 83.3606 16.6529C83.3606 21.7854 87.2031 25.1835 93.1255 25.1835C94.4376 25.1835 97.6107 25.1835 100.633 22.9746V19.7263C98.1574 21.4681 96.5196 22.0679 94.4056 22.0679C91.0692 22.0679 89.0288 20.3631 88.8442 17.4532H100.931C101.182 11.3792 97.1442 7.93793 92.2468 7.93793ZM102.976 24.8808H108.261V8.24478H102.976V24.8808ZM122.968 20.3336C121.867 21.312 120.952 21.7042 119.824 21.7042C117.335 21.7042 115.76 19.682 115.76 16.6508C115.76 13.3297 117.335 11.4151 119.999 11.4151C120.952 11.4151 122.197 11.8484 122.968 12.3914V20.3336ZM122.968 0.306765V8.97437C121.54 8.29218 120.117 7.9327 118.579 7.9327C113.758 7.9327 110.423 11.4509 110.423 16.5423C110.423 21.5239 113.758 25.1877 118.281 25.1877C120.074 25.1877 121.46 24.7238 122.968 23.5366V24.8756H128.252V0.306765H122.968ZM136.074 14.6982C136.294 12.3893 137.645 11.0545 139.722 11.0545C141.769 11.0545 143.169 12.4272 143.388 14.6982H136.074ZM139.361 7.93793C134.171 7.93793 130.482 11.5585 130.482 16.6529C130.482 21.7854 134.325 25.1835 140.24 25.1835C141.551 25.1835 144.73 25.1835 147.76 22.9746V19.7263C145.281 21.4681 143.64 22.0679 141.516 22.0679C138.198 22.0679 136.149 20.3631 135.964 17.4532H148.046C148.297 11.3792 144.256 7.93793 139.361 7.93793Z" fill="white"/>
<mask id="mask0_268_11664" style="mask-type:luminance" maskUnits="userSpaceOnUse" x="7" y="0" width="158" height="46">
<path d="M7.10156 4.82716e-05V46H164.898V4.82716e-05" fill="white"/>
</mask>
<g mask="url(#mask0_268_11664)">
<path d="M155.957 13.0083H156.035C157.604 9.54596 159.36 7.92231 161.398 7.92231C162.454 7.92231 163.365 8.31978 164.898 9.43947L163.444 14.0521C162.056 13.1876 161.144 12.8259 160.306 12.8259C158.367 12.8259 157.126 14.6309 155.957 17.6821V24.8589H150.666V8.22701H155.957V13.0083ZM108.508 1.24636C109.005 2.53895 108.111 4.34184 106.519 5.26964C104.921 6.19639 103.232 5.90223 102.74 4.60964C102.238 3.31493 103.127 1.50994 104.723 0.587407C106.317 -0.344611 108.008 -0.0494017 108.508 1.24636Z" fill="white"/>
</g>
<path d="M61.8686 14.2932C61.8686 9.78494 58.766 7.93878 55.7039 7.93878C53.622 7.93878 51.9106 8.80653 50.3795 10.7201H50.3069V0.307617H45.0166V24.8332H50.3069V14.2932C51.5443 12.5251 52.6013 11.7692 53.8409 11.7692C55.4861 11.7692 56.5794 12.9247 56.5794 15.4097V21.2538C58.3539 20.3534 60.1572 19.801 61.8686 19.5953V14.2932ZM75.1376 7.93355C72.983 7.93355 71.3378 8.72429 69.654 10.6263V8.24563H64.3659V19.5511C66.198 19.7314 68.5351 20.5611 69.654 21.9317V14.1625C71.0441 12.1023 72.0307 11.4159 73.346 11.4159C74.844 11.4159 75.9821 12.3922 75.9821 14.7381V24.8385H81.2713V14.3059C81.2713 9.40639 77.7673 7.93355 75.1376 7.93355ZM84.1925 29.6156H78.047V33.9278H83.9757V35.7781H78.047V40.2263H84.3761V42.0745H75.9864V27.7695H84.1925V29.6156ZM89.2115 42.083H91.094V27.7653H89.2115V42.083ZM100.413 34.0638C101.748 34.0638 102.576 34.9715 102.637 36.3981H97.8436C98.103 34.9083 98.9711 34.0638 100.413 34.0638ZM97.8095 37.639H104.515C104.515 34.1481 102.9 32.4633 100.371 32.4633C97.7464 32.4633 95.924 34.379 95.924 37.2362C95.924 39.8478 97.5703 42.259 100.534 42.259C102.149 42.259 103.194 41.9047 104.35 41.1467V39.3375C103.233 40.0597 102.149 40.4762 101.009 40.4762C99.1856 40.4762 98.103 39.5104 97.8095 37.639ZM116.808 35.1202C115.725 34.3885 115.002 34.1735 114.178 34.1735C112.455 34.1735 111.261 35.4787 111.261 37.3901C111.261 39.3375 112.531 40.5109 114.493 40.5109C115.3 40.5109 116.069 40.3043 117.018 39.8847V41.7182C116.384 42.0134 115.175 42.259 114.178 42.259C111.327 42.259 109.349 40.3233 109.349 37.5567C109.349 34.4349 111.156 32.4633 114.049 32.4633C115.154 32.4633 115.897 32.7174 116.808 33.1128V35.1202ZM125.384 32.6436H128.405V34.3189H125.384V39.1604C125.384 40.2684 126.197 40.5889 126.745 40.5889C127.426 40.5889 128.129 40.3539 128.891 39.8889V41.6327C128.23 41.9923 127.216 42.259 126.595 42.259C124.545 42.259 123.508 41.0022 123.508 39.3006V34.3189H121.848V34.1112L125.384 30.6942V32.6436ZM135.604 32.6436V34.8271H135.642C136.602 33.156 137.515 32.4633 138.403 32.4633C139.17 32.4633 139.887 32.8186 140.676 33.5556L139.679 35.194C139.106 34.6341 138.365 34.2483 137.917 34.2483C136.621 34.2483 135.604 35.5493 135.604 37.1614V42.083H133.724V32.6436H135.604ZM159.966 35.1202C158.878 34.3885 158.156 34.1735 157.326 34.1735C155.607 34.1735 154.423 35.4787 154.423 37.3901C154.423 39.3375 155.695 40.5109 157.645 40.5109C158.453 40.5109 159.217 40.3043 160.179 39.8847V41.7182C159.531 42.0134 158.321 42.259 157.326 42.259C154.48 42.259 152.493 40.3233 152.493 37.5567C152.493 34.4349 154.309 32.4633 157.202 32.4633C158.309 32.4633 159.044 32.7174 159.966 33.1128V35.1202ZM145.666 42.083H147.549V32.6439H145.666V42.083Z" fill="white"/>
<mask id="mask1_268_11664" style="mask-type:luminance" maskUnits="userSpaceOnUse" x="7" y="0" width="158" height="46">
<path d="M7 4.95911e-05V46H164.797V4.95911e-05" fill="white"/>
</mask>
<g mask="url(#mask1_268_11664)">
<path d="M147.612 29.2521C147.796 29.7075 147.475 30.3517 146.909 30.6796C146.339 31.0086 145.735 30.9031 145.563 30.4466C145.392 29.9859 145.703 29.347 146.276 29.018C146.84 28.6849 147.44 28.7913 147.612 29.2521ZM63.3554 30.0154C63.0234 30.0154 62.8835 30.0692 62.7479 30.2189C62.6945 30.2769 62.6732 30.3359 62.6539 30.454L60.966 36.7757C60.5699 38.9929 57.8121 41.207 54.2173 41.207H49.2195L50.0865 37.9586H53.2969C53.6247 37.9586 53.8809 37.8385 54.0955 37.6023C54.1746 37.5106 54.2771 37.3672 54.2909 37.2196L55.6234 31.696C56.0163 29.4777 58.3897 27.0275 61.9835 27.0275H67.1018L66.4474 30.0154H63.3554ZM64.5085 33.8679L65.0797 31.8225H70.2792C70.9209 28.8567 70.4159 26.1091 68.5934 24.3094C64.9046 20.6667 57.1875 21.9045 51.4381 27.3364C50.5402 28.1798 49.7822 29.0918 49.0914 30.0238H52.2218L51.4936 32.0734H47.7536C47.3959 32.7197 47.0607 33.3608 46.8045 34.0113H51.2396L50.5295 36.0609H46.1713C45.4261 39.1922 45.9012 42.1127 47.776 43.9672C51.4189 47.5635 59.1125 46.2994 64.8587 40.8686C65.8644 39.9239 66.6951 38.9044 67.4456 37.8574H63.4237L64.0366 35.812H68.7386C69.0834 35.1615 69.4005 34.5184 69.6482 33.8679H64.5085Z" fill="white"/>
</g>
</svg>
