<svg width="216" height="49" viewBox="0 0 216 49" fill="none" xmlns="http://www.w3.org/2000/svg">
<path fill-rule="evenodd" clip-rule="evenodd" d="M41.0174 27.1676H34.0099V30.3394C34.0099 31.3967 34.0099 31.9958 34.1851 32.313C34.1851 32.5949 34.3252 32.9121 34.5004 33.0883C34.7807 33.2293 35.0961 33.2293 35.7268 33.2293H36.1822V33.6874H30.0507V33.2293H30.5062C30.9616 33.2293 31.4171 33.2293 31.5573 33.0883C31.8726 32.9121 32.0128 32.7711 32.0128 32.4892C32.1529 32.172 32.1529 31.4319 32.1529 30.3746V23.8901C32.1529 22.8328 32.1529 22.2337 32.0128 21.9165C32.0128 21.6346 31.8726 21.3174 31.6974 21.3174C31.3821 21.1764 30.9266 21.1764 30.331 21.1764H30.0156V20.7183H36.1122V21.1764H35.7968C35.1662 21.1764 34.7107 21.1764 34.5705 21.3174C34.2552 21.3174 34.115 21.6346 34.115 21.9165C33.9398 22.0575 33.9398 22.8328 33.9398 23.8901V26.4628H40.9474V23.8901C40.9474 22.8328 40.8072 22.2337 40.8072 21.9165C40.8072 21.6346 40.6671 21.3174 40.3517 21.3174C40.2116 21.1764 39.7561 21.1764 39.1254 21.1764H38.8101V20.7183H44.7664V21.1764H44.5913C43.9956 21.1764 43.5401 21.1764 43.2248 21.3174C43.0846 21.3174 42.9095 21.6346 42.9095 21.9165C42.7693 22.0575 42.7693 22.8328 42.7693 23.8901V30.3746C42.7693 31.4319 42.7693 32.031 42.9095 32.3482C42.9095 32.6302 43.0496 32.9473 43.2248 33.1235C43.5401 33.2645 43.8204 33.2645 44.4511 33.2645H44.7664V33.7227H38.8101V33.2293H39.2655C39.721 33.2293 40.1765 33.2293 40.3167 33.0883C40.632 32.9121 40.7722 32.7711 40.7722 32.4892C40.7722 32.172 40.9123 31.4319 40.9123 30.3746V27.1676H41.0174Z" fill="white"/>
<path fill-rule="evenodd" clip-rule="evenodd" d="M55.5246 33.5111H55.6648C57.1714 33.5111 58.3977 32.912 59.1685 31.8547C60.0795 30.7974 60.535 29.282 60.535 27.1675C60.535 25.1939 60.0795 23.5375 59.1685 22.4803C58.3977 21.423 57.1714 20.8239 55.4896 20.8239V20.3657C57.6269 20.3657 59.3087 20.9648 60.6751 22.1983C62.0416 23.3966 62.7774 25.0882 62.7774 27.1675C62.7774 29.1411 62.0066 30.7974 60.6751 32.1719C59.4488 33.3701 57.6269 33.9692 55.4896 33.9692V33.5111H55.5246ZM50.6544 27.1675C50.6544 29.282 50.9697 30.7974 51.8807 31.8547C52.6515 32.912 54.018 33.5111 55.5597 33.5111V33.9692C53.4224 33.9692 51.7406 33.3701 50.3741 32.1719C49.0076 30.7974 48.377 29.1411 48.377 27.0265C48.377 25.0529 49.1478 23.3966 50.3741 22.1983C51.7406 21.0001 53.5625 20.3657 55.5597 20.3657V20.8239C54.018 20.8239 52.7917 21.423 51.8807 22.4803C50.9697 23.5728 50.6544 25.0882 50.6544 27.1675Z" fill="white"/>
<path fill-rule="evenodd" clip-rule="evenodd" d="M72.4827 27.0266C72.6228 27.0266 72.798 26.8504 72.9382 26.8504C73.3936 26.7094 73.8491 26.3922 74.1645 25.9341C74.4798 25.3349 74.62 24.7358 74.62 24.1015C74.62 23.0442 74.3046 22.1279 73.8491 21.705C73.5338 21.3878 73.0783 21.1059 72.4827 21.1059V20.542C73.1133 20.542 73.709 20.683 74.1645 20.8592C74.9353 21.0001 75.5309 21.4583 75.9864 21.9164C76.4419 22.5156 76.7573 23.2909 76.7573 24.031C76.7573 24.8063 76.6171 25.4054 76.3018 26.0045C75.8463 26.4627 75.3908 26.9208 74.7601 27.2028C74.3046 27.3438 73.5338 27.52 72.4827 27.52V27.0266ZM70.1702 27.0266H72.4827V27.4847C72.1673 27.6257 71.852 27.6257 71.7118 27.6257H70.1702V30.3393C70.1702 31.3966 70.1702 31.9957 70.3454 32.3129C70.3454 32.6301 70.4855 32.912 70.6607 33.0882C70.976 33.2292 71.2563 33.2292 71.887 33.2292H72.3425V33.6874H66.246V33.2292H66.7015C67.157 33.2292 67.6124 33.2292 67.7526 33.0882C68.0679 32.912 68.2081 32.7711 68.2081 32.4891C68.2081 32.2072 68.3482 31.4319 68.3482 30.3746V23.89C68.3482 22.8327 68.2081 22.2336 68.2081 21.9164C68.2081 21.6345 68.0329 21.3173 67.7526 21.3173C67.6124 21.1764 67.157 21.1764 66.5263 21.1764H66.2109V20.7182L67.8927 20.5772H72.4827V21.1764C72.0272 21.0354 71.7118 21.0354 71.2564 21.0354H70.2052V27.0266H70.1702Z" fill="white"/>
<path fill-rule="evenodd" clip-rule="evenodd" d="M85.9026 27.0266C86.0778 27.0266 86.2179 26.8504 86.5333 26.8504C86.9888 26.7094 87.3041 26.3922 87.6194 25.9341C87.8997 25.3349 88.0749 24.7358 88.0749 24.1015C88.0749 23.0442 87.9348 22.1279 87.3041 21.705C86.9888 21.3878 86.5333 21.1059 85.9376 21.1059V20.542C86.5683 20.542 87.1639 20.683 87.6194 20.8592C88.3903 21.0001 88.9859 21.4583 89.4414 21.9164C89.8969 22.5156 90.2122 23.2909 90.2122 24.031C90.2122 24.8063 90.0721 25.4054 89.7567 26.0045C89.4414 26.4627 88.9859 26.9208 88.3903 27.2028C87.7946 27.3438 87.0238 27.52 85.9376 27.52V27.0266H85.9026ZM83.6251 27.0266H85.9026V27.4847C85.5872 27.6257 85.4471 27.6257 85.1318 27.6257H83.5901V30.3393C83.5901 31.3966 83.5901 31.9957 83.7653 32.3129C83.7653 32.6301 83.9054 32.912 84.0456 33.0882C84.3609 33.2292 84.6412 33.2292 85.2719 33.2292H85.7274V33.6874H79.6309V33.2292H80.0863C80.5418 33.2292 80.9973 33.2292 81.1725 33.0882C81.4878 32.912 81.628 32.7711 81.628 32.4891C81.7682 32.2072 81.7682 31.4319 81.7682 30.3746V23.89C81.7682 22.8327 81.7682 22.2336 81.628 21.9164C81.628 21.6345 81.4879 21.3173 81.3127 21.3173C80.9973 21.1764 80.5418 21.1764 79.9462 21.1764H79.6309V20.7182L81.3127 20.5772H85.9026V21.1764C85.4471 21.0354 85.1318 21.0354 84.6763 21.0354H83.5901V27.0266H83.6251Z" fill="white"/>
<path fill-rule="evenodd" clip-rule="evenodd" d="M103.91 29.5989H104.366L104.051 33.687H93.0488V33.2289H93.3642C94.135 33.2289 94.4153 33.2289 94.7306 33.0879C94.8708 32.9117 95.046 32.6298 95.046 32.3126V21.8809C95.046 21.5989 94.9058 21.4227 94.5905 21.2817C94.4503 21.1408 93.9948 21.1408 93.3992 21.1408V20.6826H102.859L103.175 23.8544H102.719C102.579 22.9381 102.264 22.339 101.948 21.8809C101.633 21.5989 101.353 21.2817 100.897 21.2817C100.442 21.1408 99.8111 21.1408 98.9001 21.1408H97.0781V26.5681H98.4796C99.0753 26.5681 99.5308 26.5681 99.8461 26.3919C100.161 26.2509 100.302 26.1099 100.302 25.9337C100.442 25.6518 100.442 25.1936 100.442 24.5945H100.897V29.1055H100.442C100.442 28.3654 100.442 27.9073 100.302 27.5901C100.161 27.3082 99.9863 27.132 99.706 27.132C99.5658 26.991 99.0753 26.991 98.6548 26.991H97.1132V30.1628C97.1132 31.6782 97.2533 32.5593 97.4285 32.8764C97.5687 33.1936 98.1994 33.1936 99.1103 33.1936H100.021C100.792 33.1936 101.248 33.1936 101.703 33.0527C102.159 32.8764 102.614 32.4535 103.07 31.9954C103.315 31.3963 103.77 30.6562 103.91 29.5989Z" fill="white"/>
<path fill-rule="evenodd" clip-rule="evenodd" d="M114.002 26.8854C114.318 26.7444 114.458 26.7444 114.633 26.7444C115.088 26.6034 115.404 26.4272 115.544 26.2863C115.859 25.9691 115.999 25.6871 116.175 25.4052C116.315 24.947 116.315 24.4889 116.315 24.0307C116.315 23.1497 116.175 22.3744 115.684 21.7752C115.369 21.4581 114.773 21.1761 114.002 20.9999V20.5418C114.773 20.5418 115.369 20.6827 115.824 20.8589C116.595 20.9999 117.191 21.4581 117.646 21.9162C118.242 22.5153 118.417 23.1144 118.417 23.8898C118.417 24.6651 118.102 25.4052 117.506 26.0043C116.875 26.6034 115.964 27.0616 114.773 27.2026C115.229 27.5197 116.139 28.4008 117.366 30.0572C118.417 31.3964 119.223 32.1717 119.818 32.6299C120.274 33.088 121.045 33.229 121.816 33.229V33.6871H118.312C117.541 33.37 116.63 32.1717 115.404 30.3744C114.948 29.7752 114.493 29.1761 114.037 28.718V26.8854H114.002ZM111.725 27.0263C112.32 27.0263 112.776 26.8501 113.266 26.8501H114.037V28.6827V28.5418L113.126 27.6255C112.986 27.4845 112.671 27.4845 112.355 27.4845H111.76V30.3391C111.76 31.3964 111.76 31.9955 111.9 32.3127C111.9 32.6299 112.04 32.9118 112.215 33.088C112.531 33.229 112.811 33.229 113.442 33.229H114.037V33.6871H107.73V33.229H108.186C108.641 33.229 109.097 33.229 109.237 33.088C109.552 32.9118 109.693 32.7708 109.693 32.4889C109.833 32.207 109.833 31.4316 109.833 30.3744V23.8898C109.833 22.8325 109.833 22.2334 109.693 21.9162C109.693 21.6343 109.552 21.3171 109.377 21.3171C109.062 21.1761 108.606 21.1761 108.011 21.1761H107.871V20.718L109.693 20.577C110.919 20.577 111.97 20.436 112.741 20.436C113.196 20.436 113.652 20.577 113.967 20.577V21.0352H111.725V27.0263Z" fill="white"/>
<path fill-rule="evenodd" clip-rule="evenodd" d="M124.234 33.6871V29.4581H124.69C125.145 32.207 126.512 33.5462 128.649 33.5462C129.56 33.5462 130.191 33.229 130.786 32.7708C131.242 32.1717 131.522 31.5726 131.522 30.9735C131.522 30.3744 131.207 29.7752 130.786 29.3171C130.331 28.8942 129.56 28.436 128.334 27.9779C127.248 27.5197 126.512 27.0968 126.056 26.7796C125.461 26.4625 125.005 26.0396 124.69 25.4404C124.375 24.9823 124.234 24.3832 124.234 23.7841C124.234 22.7268 124.515 21.9515 125.286 21.3523C125.916 20.7532 126.652 20.436 127.738 20.436C128.334 20.436 128.789 20.577 129.28 20.7532C129.875 20.8942 130.331 21.2114 130.821 21.8105C131.137 21.4933 131.277 21.0352 131.417 20.7532H131.732V24.066H131.417C131.102 23.1849 130.646 22.4096 130.051 21.8105C129.455 21.2114 128.684 20.8942 127.913 20.8942C127.142 20.8942 126.547 21.0352 126.091 21.4933C125.776 21.9515 125.636 22.4096 125.636 22.8678C125.636 23.4669 125.776 24.066 126.232 24.5241C126.687 24.8061 127.598 25.4404 128.649 25.8633C129.875 26.3215 130.611 26.7796 131.242 27.0616C131.697 27.3435 132.153 27.8017 132.468 28.4008C132.784 28.8589 132.924 29.4581 132.924 30.1982C132.924 31.2554 132.608 32.1717 131.873 32.9118C131.102 33.6871 130.016 33.9691 128.824 33.9691C127.283 33.9691 126.091 33.37 125.145 32.3127C125.005 32.6299 124.69 33.088 124.69 33.6519H124.234V33.6871Z" fill="white"/>
<path fill-rule="evenodd" clip-rule="evenodd" d="M161.163 23.7135H160.707V20.6826H173.671V23.7135H173.25C173.11 22.9381 172.935 22.339 172.655 21.8809C172.34 21.5989 172.199 21.2817 171.884 21.1408H168.205V32.3126C168.205 32.6298 168.345 32.9117 168.661 33.0879C168.801 33.2289 169.256 33.2289 169.887 33.2289H170.483V33.687H163.93V33.2289H164.526C165.122 33.2289 165.437 33.2289 165.752 33.0879C165.893 32.9117 166.068 32.7707 166.208 32.4888V21.176H162.564C162.249 21.317 161.968 21.6342 161.793 21.9161C161.478 22.339 161.338 22.9381 161.163 23.7135Z" fill="white"/>
<path fill-rule="evenodd" clip-rule="evenodd" d="M183.62 33.5111H183.796C185.302 33.5111 186.528 32.912 187.299 31.8547C188.21 30.7974 188.666 29.282 188.666 27.1675C188.666 25.1939 188.21 23.5375 187.299 22.4803C186.528 21.423 185.302 20.8239 183.62 20.8239V20.3657C185.758 20.3657 187.439 20.9648 188.806 22.1983C190.172 23.3966 190.943 25.0882 190.943 27.1675C190.943 29.1411 190.172 30.7974 188.806 32.1719C187.58 33.3701 185.758 33.9692 183.62 33.9692V33.5111ZM178.75 27.1675C178.75 29.282 179.206 30.7974 179.976 31.8547C180.747 32.912 182.114 33.5111 183.655 33.5111V33.9692C181.518 33.9692 179.836 33.3701 178.47 32.1719C177.103 30.7974 176.473 29.1411 176.473 27.0265C176.473 25.0529 177.243 23.3966 178.61 22.1983C179.836 21.0001 181.658 20.3657 183.655 20.3657V20.8239C182.114 20.8239 180.887 21.423 179.976 22.4803C179.171 23.5728 178.75 25.0882 178.75 27.1675Z" fill="white"/>
<path fill-rule="evenodd" clip-rule="evenodd" d="M200.86 27.0266C201.175 27.0266 201.315 26.8504 201.456 26.8504C201.911 26.7094 202.367 26.3922 202.682 25.9341C202.997 25.3349 203.137 24.7358 203.137 24.1015C203.137 23.0442 202.822 22.1279 202.367 21.705C201.911 21.3878 201.456 21.1059 200.825 21.1059V20.542C201.596 20.542 202.191 20.683 202.647 20.8592C203.418 21.0001 204.013 21.4583 204.469 21.9164C204.924 22.5156 205.064 23.2909 205.064 24.031C205.064 24.8063 204.924 25.4054 204.609 26.0045C204.294 26.4627 203.838 26.9208 203.243 27.2028C202.787 27.3438 202.016 27.52 200.79 27.52V27.0266H200.86ZM198.723 27.0266H200.86V27.4847C200.685 27.6257 200.404 27.6257 200.089 27.6257H198.688V32.3129C198.828 32.6301 198.828 32.912 199.143 33.0882C199.283 33.2292 199.774 33.2292 200.369 33.2292H200.825V33.6874H194.693V33.2292H195.009C195.604 33.2292 195.92 33.2292 196.2 33.0882C196.34 32.912 196.515 32.7711 196.655 32.4891V21.9164C196.48 21.6345 196.34 21.3173 196.2 21.3173C196.06 21.1764 195.604 21.1764 195.009 21.1764H194.693V20.7182L196.375 20.5772H200.79V21.1764C200.475 21.0354 200.019 21.0354 199.564 21.0354H198.653V27.0266H198.723Z" fill="white"/>
<path fill-rule="evenodd" clip-rule="evenodd" d="M14.916 33.511V27.9427H15.5117C16.1423 31.5727 17.9643 33.3701 20.6972 33.3701C21.9235 33.3701 22.9747 33.0529 23.6053 32.4538C24.3762 31.7137 24.6915 30.9383 24.6915 30.022C24.6915 29.1057 24.5514 28.0485 23.9207 27.4493C23.29 26.9912 22.0987 26.2511 20.5571 25.652C19.1906 25.0529 18.1044 24.5947 17.3686 24.1366C16.5978 23.7137 15.827 23.2555 15.5117 22.4802C15.0912 21.7401 14.916 20.9648 14.916 20.2247C14.916 19.0264 15.3715 17.9692 16.2825 17.1938C17.0533 16.2775 18.2796 15.9956 19.5059 15.9956C20.2768 15.9956 21.0476 15.9956 21.6432 16.3128C22.4141 16.5947 23.0097 17.0881 23.7805 17.8282C24.0959 17.3701 24.4112 16.7709 24.4112 16.3128H24.8667V20.8238H24.4112C24.0959 19.4846 23.5002 18.3921 22.7294 17.652C21.8184 16.8767 20.9074 16.4538 19.6811 16.4538C18.7702 16.4538 17.8592 16.7709 17.4037 17.3701C16.808 17.9692 16.6329 18.5683 16.6329 19.3436C16.6329 20.0837 16.9132 21 17.5438 21.5991C18.1395 22.022 19.2256 22.7974 20.9074 23.3965C22.4491 24.1366 23.5002 24.5947 24.2711 25.0529C24.8667 25.511 25.4623 25.9339 25.9529 26.7093C26.4083 27.4493 26.5835 28.0837 26.5835 28.9648C26.5835 30.4802 26.128 31.6784 25.0419 32.5947C23.9557 33.511 22.7294 34.1101 20.9074 34.1101C19.0855 34.1101 17.4037 33.3348 16.1774 31.8546C15.862 32.3128 15.5467 32.7357 15.5467 33.511H14.916Z" fill="white"/>
<path fill-rule="evenodd" clip-rule="evenodd" d="M146.203 33.511V27.9427H146.834C147.429 31.5727 149.286 33.3701 152.019 33.3701C153.246 33.3701 154.297 33.0529 154.927 32.4538C155.838 31.7137 155.838 30.9383 155.838 30.022C155.838 29.1057 155.838 28.0485 155.208 27.4493C154.577 26.9912 153.386 26.2511 151.844 25.652C150.478 25.0529 149.426 24.5947 148.621 24.1366C147.85 23.7137 147.114 23.2555 146.799 22.4802C146.343 21.7401 146.168 20.9648 146.168 20.2247C146.168 19.0264 146.623 17.9692 147.569 17.1938C148.48 16.2775 149.532 15.9956 150.933 15.9956C151.564 15.9956 152.3 15.9956 152.93 16.3128C153.701 16.5947 154.297 17.0881 155.068 17.8282C155.383 17.3701 155.698 16.7709 155.698 16.3128H156.014V20.8238H155.698C155.383 19.4846 154.787 18.3921 154.016 17.652C153.105 16.8767 152.194 16.4538 151.108 16.4538C150.057 16.4538 149.146 16.7709 148.656 17.3701C148.06 17.9692 147.885 18.5683 147.885 19.3436C147.885 20.0837 148.2 21 148.796 21.5991C149.426 22.022 150.478 22.7974 152.159 23.3965C153.701 24.1366 154.752 24.5947 155.523 25.0529C155.978 25.511 156.609 25.9339 157.065 26.7093C157.52 27.4493 157.695 28.0837 157.695 28.9648C157.695 30.4802 157.24 31.6784 156.154 32.5947C155.243 33.511 154.016 34.1101 152.335 34.1101C150.337 34.1101 148.656 33.3348 147.429 31.8546C147.114 32.3128 146.974 32.7357 146.834 33.511H146.203Z" fill="white"/>
</svg>
