<svg width="215" height="80" viewBox="0 0 215 80" fill="none" xmlns="http://www.w3.org/2000/svg">
<path d="M66.998 18.0521C66.998 19.4246 67.4507 20.6988 69.6576 22.5055L70.5621 23.2526C72.3171 24.7051 72.8033 25.4503 72.8033 26.7374C72.8033 27.9818 71.87 29.2453 70.0879 29.2453C69.3524 29.2453 67.6207 29.0645 67.2722 27.3281C67.22 27.0594 67.22 26.7918 67.22 26.6162C67.22 26.5065 67.22 26.248 66.9259 26.248C66.6485 26.248 66.6343 26.5551 66.6204 26.7078L66.6015 26.945C66.5682 27.3562 66.5215 28.0301 66.5215 28.8344C66.5215 29.3799 66.5328 29.5476 66.8931 29.7313C67.6695 30.1013 68.573 30.285 69.651 30.285C70.8647 30.285 71.9411 29.9843 72.7522 29.4172C74.0566 28.4914 74.5179 27.0397 74.5179 25.9764C74.5179 24.4072 74.032 23.1196 71.5422 21.1575L70.9825 20.7146C69.0708 19.1467 68.5932 18.5111 68.5932 17.4756C68.5932 16.1751 69.5295 15.2979 70.9053 15.2979C72.5648 15.2979 73.1209 15.987 73.2815 16.2803C73.3885 16.4774 73.505 16.9949 73.5266 17.2242C73.5357 17.377 73.5701 17.6247 73.8341 17.6247C74.1228 17.6247 74.1228 17.2242 74.1228 17.0151C74.1228 15.9458 74.1674 15.312 74.1863 15.0457L74.1975 14.8851C74.1975 14.697 74.0831 14.5986 73.8527 14.5986C73.7163 14.5986 73.5704 14.5915 73.1849 14.502C72.6068 14.3666 72.0061 14.3052 71.289 14.3052C68.7208 14.3054 66.998 15.8096 66.998 18.0521Z" fill="white"/>
<path d="M91.4354 14.7162C91.4401 14.7327 86.1415 26.9199 86.1119 26.9771C86.0791 26.9417 80.5755 14.6944 80.5755 14.6944C80.4976 14.5091 80.3926 14.3076 80.1641 14.3076C79.8969 14.3076 79.8371 14.6414 79.808 14.7884C79.808 14.7941 78.4631 27.9192 78.4631 27.9192C78.398 28.6185 78.3406 29.2782 77.8562 29.3803C77.5896 29.4338 77.504 29.4338 77.3243 29.4338C77.1361 29.4338 76.9941 29.5374 76.9941 29.6747C76.9941 29.7959 77.0532 29.9927 77.4492 29.9927C77.7751 29.9927 78.3629 29.9662 78.5983 29.9555C78.8428 29.9452 78.9108 29.9452 78.9108 29.9452C78.9108 29.9452 79.1538 29.9452 79.3753 29.9452C79.5978 29.9452 80.2635 29.9828 80.7401 29.9927C80.8988 30.0014 81.2137 29.9927 81.2137 29.6747C81.2137 29.5374 81.0778 29.4285 80.913 29.4285C80.7248 29.4285 80.5543 29.4178 80.2522 29.3391C80.0339 29.295 79.8796 29.0929 79.8796 28.8565C79.8796 28.5127 79.8796 28.1616 79.899 27.8467C79.899 27.8467 80.5842 19.0119 80.6018 19.0119C80.554 19.0119 85.0971 29.0355 85.0971 29.0355C85.4753 29.7962 85.5527 29.9555 85.7645 29.9555C86.0069 29.9555 86.0791 29.7959 86.3759 29.1068C86.3851 29.1026 90.8707 18.824 90.8707 18.824L91.723 28.6904C91.7317 28.8127 91.7317 28.9121 91.7425 29.0019C91.7477 29.1625 91.7477 29.3506 91.7107 29.3637C91.5509 29.4243 91.5194 29.5327 91.5194 29.6293C91.5194 29.8844 91.8049 29.9458 92.1605 29.9686C92.8842 30.0087 94.8788 29.9933 95.2777 29.9933C95.7712 29.9933 95.8096 29.7489 95.8096 29.6752C95.8096 29.6012 95.7838 29.4343 95.5204 29.4343C95.3414 29.4343 94.8788 29.4343 94.3621 29.2653C93.6415 29.0087 93.5266 27.9194 93.4565 27.2644L92.2101 14.9794C92.1912 14.6981 92.1497 14.3079 91.8416 14.3079C91.6 14.3076 91.4945 14.5658 91.4354 14.7162Z" fill="white"/>
<path d="M122.654 22.1808C122.261 22.1895 121.568 22.2186 121.154 22.2283C120.941 22.2351 120.743 22.237 120.61 22.232C120.217 22.2157 119.54 22.2023 118.916 22.2023C118.808 22.2023 118.483 22.2023 118.483 22.5017C118.483 22.6503 118.606 22.761 118.769 22.761C118.925 22.761 119.083 22.7581 119.21 22.7925C119.849 22.9822 119.94 23.1158 119.94 24.7215V28.1221C119.94 28.4023 119.847 28.5826 119.634 28.7057C119.2 28.9796 118.281 29.104 117.613 29.104C115.792 29.104 114.204 28.3992 112.889 27.0073C112.227 26.3085 110.975 24.2706 110.975 21.561C110.975 19.4011 111.639 17.5416 112.75 16.5836C114.069 15.4528 115.379 15.2975 116.6 15.2975C118.843 15.2975 120.355 16.1023 120.804 16.8476C121.112 17.3779 121.166 17.9914 121.174 18.1126C121.192 18.2824 121.217 18.538 121.44 18.538C121.746 18.538 121.746 18.2005 121.746 17.9793C121.746 16.5292 121.813 15.8378 121.85 15.4667C121.866 15.3185 121.876 15.2175 121.876 15.1374C121.876 15.0327 121.83 14.8527 121.519 14.8191C121.038 14.7979 120.408 14.7152 120.055 14.6234C119.537 14.5037 118.277 14.2788 117.208 14.2788C115.775 14.2788 113.916 14.4255 112.233 15.5641C110.268 16.9053 109.098 19.4084 109.098 22.2601C109.098 24.9868 110.301 27.0895 111.332 28.0622C112.854 29.5086 114.924 30.2423 117.484 30.2423C118.634 30.2423 120.281 30.0009 121.46 29.3189C121.752 29.1342 121.763 29.014 121.763 28.1218V25.8821C121.763 25.0471 121.763 24.4451 121.8 23.8085C121.835 23.121 121.974 22.8759 122.367 22.7969C122.581 22.7584 122.684 22.7539 122.804 22.7397C122.953 22.7206 123.09 22.6282 123.09 22.4807C123.09 22.1808 122.837 22.1782 122.654 22.1808Z" fill="white"/>
<path d="M99.0212 28.3987C98.9362 29.0101 98.8378 29.3334 98.5363 29.3933C98.3179 29.4415 98.1038 29.4704 97.9637 29.4704C97.7679 29.4704 97.6797 29.5919 97.6797 29.7131C97.6797 29.9963 98.0017 29.9963 98.123 29.9963C98.551 29.9963 99.3022 29.9664 99.7496 29.9485C99.927 29.9409 100.186 29.9399 100.316 29.9451C100.76 29.9616 101.69 29.996 102.535 29.996C102.922 29.996 102.98 29.8184 102.98 29.7129C102.98 29.5916 102.892 29.4701 102.695 29.4701C102.526 29.4701 102.099 29.4324 101.814 29.3912C101.327 29.3261 101.204 29.007 101.142 28.4016C101.041 27.5695 101.042 25.9515 101.042 24.0818C101.042 24.0818 101.047 22.491 101.059 22.3263C101.814 22.3263 103.616 22.332 104.06 22.3861C104.607 22.4567 104.903 22.7621 104.997 23.0206C105.063 23.2192 105.086 23.4528 105.104 23.6391L105.11 23.7013C105.11 23.885 105.213 24.0033 105.372 24.0033C105.636 24.0033 105.636 23.69 105.636 23.5029C105.636 23.3649 105.675 22.5653 105.715 22.1741C105.752 21.7673 105.804 21.4844 105.838 21.2992C105.861 21.1751 105.875 21.1013 105.875 21.0449C105.875 20.799 105.736 20.7612 105.652 20.7612C105.525 20.7612 105.448 20.8612 105.375 20.9573L105.331 21.015C105.18 21.2323 104.962 21.2832 104.503 21.322C104.23 21.3422 101.047 21.3747 101.047 21.3747C101.047 21.37 101.042 15.7922 101.042 15.7922C101.042 15.6954 101.056 15.6954 101.096 15.6954L104.172 15.7555C104.904 15.7746 105.322 16.1068 105.421 16.3231C105.536 16.5734 105.59 16.8933 105.59 17.0311C105.59 17.3677 105.79 17.3942 105.853 17.3942C105.951 17.3942 106.08 17.3386 106.134 17.0717C106.16 16.9109 106.186 16.4936 106.206 16.1562C106.217 15.9733 106.228 15.8166 106.234 15.7466C106.269 15.4222 106.316 15.2112 106.351 15.0575C106.377 14.9459 106.394 14.8662 106.394 14.7937C106.394 14.5856 106.271 14.4917 106.151 14.4917C106.075 14.4917 106.009 14.5266 105.95 14.5602C105.917 14.5814 105.878 14.6032 105.834 14.6184C105.708 14.6604 105.477 14.6701 105.213 14.6817L104.988 14.6919C104.625 14.7085 101.989 14.6982 100.722 14.694L99.2684 14.6712C98.8241 14.6518 98.2914 14.6518 97.8241 14.6518C97.7015 14.6518 97.3809 14.6518 97.3809 14.9331C97.3809 15.075 97.5003 15.1771 97.6643 15.1771C97.8359 15.1771 98.1665 15.1965 98.3171 15.2335C98.8742 15.3521 99.0383 15.5739 99.0781 16.2601C99.1191 16.8951 99.1191 17.4551 99.1191 20.5655V24.082C99.1196 25.952 99.1196 27.57 99.0212 28.3987Z" fill="white"/>
<path d="M66.5215 59.1426H67.4672L69.7998 62.9087H69.8142V59.1426H70.6665V64.2549H69.7205L67.3943 60.4961H67.3738V64.2549H66.522V59.1426H66.5215Z" fill="white"/>
<path d="M74.7108 63.43C74.7108 63.5316 74.7231 63.6037 74.7491 63.6463C74.7758 63.6888 74.826 63.7103 74.9039 63.7103C74.927 63.7103 74.9551 63.7103 74.9879 63.7103C75.0222 63.7103 75.06 63.705 75.1031 63.6964V64.2611C75.0758 64.2713 75.0375 64.281 74.9929 64.2939C74.9477 64.3052 74.9015 64.3175 74.853 64.3262C74.8044 64.3348 74.7583 64.3435 74.7105 64.3461C74.6617 64.3521 74.6202 64.3537 74.5874 64.3537C74.4203 64.3537 74.282 64.3225 74.1723 64.2548C74.0637 64.1871 73.9915 64.0708 73.9571 63.9037C73.7957 64.0611 73.5963 64.1748 73.3607 64.2485C73.124 64.3183 72.8954 64.3535 72.6755 64.3535C72.5099 64.3535 72.3485 64.3309 72.1974 64.2847C72.0447 64.2396 71.9093 64.1745 71.793 64.0858C71.6757 63.9971 71.5823 63.8843 71.5138 63.7481C71.4445 63.6132 71.4102 63.4555 71.4102 63.2728C71.4102 63.0432 71.4511 62.8582 71.5338 62.7157C71.6193 62.5706 71.7279 62.4581 71.8654 62.378C72.0008 62.2969 72.1536 62.2382 72.322 62.2017C72.4908 62.1668 72.6634 62.1392 72.834 62.1216C72.9831 62.092 73.1221 62.0721 73.2562 62.0592C73.3901 62.0469 73.5073 62.0269 73.611 61.9991C73.7147 61.9705 73.795 61.9243 73.8545 61.8653C73.9136 61.8068 73.9448 61.7167 73.9448 61.5976C73.9448 61.4916 73.9196 61.4055 73.8684 61.3389C73.8196 61.2717 73.7566 61.2216 73.6829 61.1867C73.6071 61.1502 73.5249 61.1266 73.436 61.114C73.3457 61.1017 73.2591 61.0956 73.1788 61.0956C72.9492 61.0956 72.761 61.1444 72.6125 61.2392C72.4645 61.3355 72.3819 61.4832 72.3614 61.6829H71.5461C71.5616 61.4457 71.6164 61.2452 71.7161 61.0893C71.8187 60.9314 71.9468 60.8054 72.1006 60.7107C72.2549 60.6128 72.4317 60.5467 72.627 60.5091C72.8227 60.4703 73.0232 60.4517 73.2287 60.4517C73.41 60.4517 73.589 60.47 73.7658 60.5091C73.9411 60.5467 74.1014 60.6091 74.2418 60.6952C74.3812 60.7802 74.4972 60.893 74.5817 61.0287C74.6672 61.1641 74.7113 61.3299 74.7113 61.5254V63.43H74.7108ZM73.8931 62.4014C73.769 62.4814 73.6168 62.53 73.4354 62.5465C73.2541 62.5654 73.0725 62.589 72.8917 62.6213C72.8041 62.6368 72.723 62.6567 72.6406 62.6827C72.5606 62.7079 72.4879 62.7451 72.4249 62.7903C72.3624 62.8349 72.3152 62.8947 72.2798 62.9711C72.2428 63.0438 72.2255 63.1325 72.2255 63.2377C72.2255 63.3274 72.2517 63.4054 72.3045 63.4662C72.3556 63.5297 72.4189 63.5791 72.4947 63.614C72.5695 63.6489 72.6495 63.6741 72.7372 63.6888C72.8253 63.7016 72.9059 63.7103 72.977 63.7103C73.0678 63.7103 73.1673 63.699 73.2712 63.6738C73.3751 63.6512 73.4751 63.6098 73.5685 63.5539C73.6609 63.4948 73.7391 63.4227 73.8023 63.335C73.8624 63.2463 73.8936 63.1361 73.8936 63.0086V62.4014H73.8931Z" fill="white"/>
<path d="M75.1855 60.5527H76.0804L77.0455 63.3178H77.0605L77.9994 60.5527H78.8501L77.4105 64.454C77.3439 64.6217 77.2788 64.7815 77.2158 64.9337C77.1507 65.0864 77.0723 65.2229 76.9781 65.3402C76.8844 65.4564 76.7695 65.5488 76.6312 65.6191C76.4934 65.6868 76.316 65.7228 76.1011 65.7228C75.9103 65.7228 75.7219 65.7078 75.5369 65.6792V64.9919C75.602 65.0017 75.6655 65.0129 75.7282 65.0242C75.7912 65.0366 75.8547 65.0415 75.9219 65.0415C76.0182 65.0415 76.0966 65.0303 76.1596 65.0066C76.2205 64.9825 76.2719 64.9476 76.3134 64.9027C76.3528 64.8565 76.3871 64.8027 76.416 64.7429C76.4456 64.6794 76.4719 64.608 76.496 64.5267L76.5884 64.2407L75.1855 60.5527Z" fill="white"/>
<path d="M79.3281 59.1426H80.145V59.9149H79.3281V59.1426ZM79.3281 60.5525H80.145V64.2549H79.3281V60.5525Z" fill="white"/>
<path d="M84.5037 59.1426H85.4565L87.4241 64.2549H86.4658L85.9866 62.8998H83.9463L83.4661 64.2549H82.543L84.5037 59.1426ZM84.1886 62.2199H85.7512L84.985 60.0227H84.9624L84.1886 62.2199Z" fill="white"/>
<path d="M88.4141 63.0649C88.4399 63.3047 88.5299 63.4724 88.6878 63.5661C88.8442 63.6635 89.0324 63.7102 89.2531 63.7102C89.3294 63.7102 89.416 63.7049 89.515 63.6913C89.6123 63.6816 89.7036 63.6574 89.7897 63.6252C89.8768 63.5913 89.9466 63.5412 90.0004 63.4766C90.0563 63.4142 90.082 63.3276 90.0763 63.2224C90.071 63.1187 90.0322 63.0326 89.9618 62.9652C89.8897 62.9001 89.7968 62.8453 89.6855 62.8038C89.5732 62.7639 89.4467 62.729 89.3027 62.7012C89.1586 62.6726 89.0145 62.6403 88.866 62.6075C88.7128 62.5742 88.5671 62.5327 88.4257 62.4865C88.2853 62.4377 88.1591 62.3737 88.047 62.2929C87.9352 62.2113 87.8442 62.1079 87.7775 61.9804C87.7119 61.8552 87.677 61.6991 87.677 61.513C87.677 61.3115 87.7266 61.143 87.8248 61.0081C87.9216 60.8704 88.0473 60.7617 88.1969 60.6791C88.3464 60.594 88.5152 60.5366 88.6986 60.5043C88.8831 60.4704 89.0568 60.4531 89.2245 60.4531C89.4158 60.4531 89.5976 60.4731 89.7703 60.5132C89.9466 60.5542 90.1025 60.6192 90.2445 60.7121C90.3854 60.8019 90.5016 60.9181 90.5971 61.0659C90.6885 61.211 90.7478 61.3857 90.7709 61.5923H89.918C89.8797 61.397 89.7921 61.2648 89.6514 61.1981C89.5089 61.132 89.3486 61.0971 89.168 61.0971C89.1085 61.0971 89.041 61.1031 88.9636 61.112C88.8836 61.1207 88.8104 61.1383 88.7416 61.1658C88.6718 61.191 88.613 61.2293 88.5648 61.2808C88.517 61.3296 88.4939 61.397 88.4939 61.4786C88.4939 61.5786 88.5299 61.6586 88.5976 61.7211C88.6679 61.782 88.7574 61.835 88.8702 61.8749C88.9825 61.9158 89.1085 61.9512 89.2531 61.9785C89.3966 62.0071 89.5436 62.0376 89.6968 62.0722C89.844 62.105 89.9899 62.1459 90.1324 62.1937C90.2765 62.2409 90.4045 62.306 90.5168 62.3858C90.6297 62.4682 90.7192 62.5697 90.7884 62.6949C90.8577 62.8185 90.8934 62.9723 90.8934 63.152C90.8934 63.3725 90.8417 63.5585 90.7417 63.7112C90.6407 63.8634 90.5116 63.9875 90.3518 64.0823C90.1909 64.1786 90.0146 64.25 89.8178 64.2909C89.6236 64.3334 89.4294 64.3549 89.2376 64.3549C89.0038 64.3549 88.7875 64.3297 88.5907 64.2759C88.3929 64.2237 88.2202 64.1432 88.0756 64.0371C87.9289 63.9296 87.8143 63.7957 87.7308 63.6375C87.6492 63.4761 87.6038 63.2859 87.5996 63.066H88.4141V63.0649Z" fill="white"/>
<path d="M91.5156 59.1426H92.3315V61.039H92.3464C92.4459 60.8724 92.5944 60.7336 92.7933 60.6213C92.9922 60.5074 93.2126 60.4525 93.4569 60.4525C93.8608 60.4525 94.1802 60.5575 94.4158 60.7672C94.6496 60.9774 94.7648 61.2925 94.7648 61.7124V64.2549H93.9495V61.926C93.9393 61.636 93.8779 61.4263 93.7624 61.2936C93.6475 61.1624 93.4682 61.0962 93.2258 61.0962C93.0869 61.0962 92.9639 61.1225 92.8531 61.1726C92.7445 61.2222 92.6516 61.2925 92.5739 61.3786C92.4981 61.4673 92.438 61.5712 92.396 61.6911C92.354 61.811 92.3315 61.9373 92.3315 62.0708V64.2546H91.5156V59.1426Z" fill="white"/>
<path d="M98.7237 63.43C98.7237 63.5316 98.7381 63.6037 98.7641 63.6463C98.79 63.6888 98.8415 63.7103 98.9178 63.7103C98.9415 63.7103 98.9695 63.7103 99.0034 63.7103C99.0367 63.7103 99.0737 63.705 99.1183 63.6964V64.2611C99.0892 64.2713 99.0543 64.281 99.0086 64.2939C98.963 64.3052 98.9155 64.3175 98.8677 64.3262C98.8194 64.3348 98.7709 64.3435 98.7237 64.3461C98.6759 64.3521 98.636 64.3537 98.6037 64.3537C98.4355 64.3537 98.2972 64.3225 98.186 64.2548C98.0773 64.1871 98.0065 64.0708 97.9724 63.9037C97.8094 64.0611 97.611 64.1748 97.3764 64.2485C97.1387 64.3183 96.9101 64.3535 96.6913 64.3535C96.5236 64.3535 96.3659 64.3309 96.2111 64.2847C96.0599 64.2396 95.9245 64.1745 95.8067 64.0858C95.6889 63.9971 95.5975 63.8843 95.5283 63.7481C95.4585 63.6132 95.4238 63.4555 95.4238 63.2728C95.4238 63.0432 95.4658 62.8582 95.5485 62.7157C95.6324 62.5706 95.7437 62.4581 95.8791 62.378C96.014 62.2969 96.1688 62.2382 96.3378 62.2017C96.5065 62.1668 96.6766 62.1392 96.8487 62.1216C96.9965 62.092 97.1368 62.0721 97.2704 62.0592C97.4053 62.0469 97.5221 62.0269 97.6236 61.9991C97.7286 61.9705 97.8097 61.9243 97.8682 61.8653C97.9272 61.8068 97.9595 61.7167 97.9595 61.5976C97.9595 61.4916 97.9333 61.4055 97.8831 61.3389C97.8336 61.2717 97.7714 61.2216 97.6966 61.1867C97.6239 61.1502 97.5402 61.1266 97.4491 61.114C97.3599 61.1017 97.2728 61.0956 97.192 61.0956C96.9629 61.0956 96.7742 61.1444 96.6283 61.2392C96.4787 61.3355 96.395 61.4832 96.3777 61.6829H95.5592C95.5747 61.4457 95.6319 61.2452 95.733 61.0893C95.834 60.9314 95.9599 60.8054 96.1158 60.7107C96.2706 60.6128 96.4449 60.5467 96.6417 60.5091C96.8364 60.4703 97.0374 60.4517 97.2418 60.4517C97.4231 60.4517 97.6042 60.47 97.7805 60.5091C97.9558 60.5467 98.1167 60.6091 98.2558 60.6952C98.3972 60.7802 98.51 60.893 98.5956 61.0287C98.6827 61.1641 98.7247 61.3299 98.7247 61.5254V63.43H98.7237ZM97.907 62.4014C97.7834 62.4814 97.6297 62.53 97.4483 62.5465C97.2683 62.5654 97.087 62.589 96.9067 62.6213C96.8185 62.6368 96.7361 62.6567 96.6545 62.6827C96.5745 62.7079 96.5034 62.7451 96.4409 62.7903C96.3785 62.8349 96.3297 62.8947 96.2932 62.9711C96.2578 63.0438 96.2384 63.1325 96.2384 63.2377C96.2384 63.3274 96.2646 63.4054 96.3179 63.4662C96.3701 63.5297 96.4336 63.5791 96.5071 63.614C96.5818 63.6489 96.6624 63.6741 96.7522 63.6888C96.8382 63.7016 96.9214 63.7103 96.9909 63.7103C97.0823 63.7103 97.1791 63.699 97.2862 63.6738C97.3916 63.6512 97.4885 63.6098 97.5835 63.5539C97.6758 63.4948 97.7535 63.4227 97.8157 63.335C97.8766 63.2463 97.9076 63.1361 97.9076 63.0086V62.4014H97.907Z" fill="white"/>
<path d="M99.668 63.2876H100.665V64.2554H99.668V63.2876Z" fill="white"/>
<path d="M103.664 59.1426H104.611L106.944 62.9087H106.958V59.1426H107.809V64.2549H106.864L104.538 60.4961H104.517V64.2549H103.664V59.1426Z" fill="white"/>
<path d="M111.857 63.43C111.857 63.5316 111.869 63.6037 111.895 63.6463C111.922 63.6888 111.973 63.7103 112.049 63.7103C112.075 63.7103 112.101 63.7103 112.136 63.7103C112.167 63.7103 112.207 63.705 112.249 63.6964V64.2611C112.221 64.2713 112.184 64.281 112.139 64.2939C112.093 64.3052 112.046 64.3175 111.999 64.3262C111.951 64.3348 111.904 64.3435 111.857 64.3461C111.808 64.3521 111.769 64.3537 111.734 64.3537C111.569 64.3537 111.429 64.3225 111.319 64.2548C111.209 64.1871 111.138 64.0708 111.104 63.9037C110.942 64.0611 110.743 64.1748 110.507 64.2485C110.272 64.3183 110.042 64.3535 109.823 64.3535C109.656 64.3535 109.497 64.3309 109.343 64.2847C109.191 64.2396 109.055 64.1745 108.939 64.0858C108.821 63.9971 108.729 63.8843 108.659 63.7481C108.59 63.6132 108.557 63.4555 108.557 63.2728C108.557 63.0432 108.598 62.8582 108.682 62.7157C108.764 62.5706 108.875 62.4581 109.01 62.378C109.146 62.2969 109.3 62.2382 109.469 62.2017C109.638 62.1668 109.808 62.1392 109.98 62.1216C110.128 62.092 110.269 62.0721 110.402 62.0592C110.535 62.0469 110.654 62.0269 110.757 61.9991C110.86 61.9705 110.94 61.9243 111.001 61.8653C111.061 61.8068 111.089 61.7167 111.089 61.5976C111.089 61.4916 111.066 61.4055 111.015 61.3389C110.966 61.2717 110.903 61.2216 110.829 61.1867C110.754 61.1502 110.671 61.1266 110.581 61.114C110.49 61.1017 110.408 61.0956 110.325 61.0956C110.094 61.0956 109.907 61.1444 109.759 61.2392C109.611 61.3355 109.527 61.4832 109.508 61.6829H108.692C108.707 61.4457 108.764 61.2452 108.862 61.0893C108.964 60.9314 109.092 60.8054 109.247 60.7107C109.401 60.6128 109.578 60.5467 109.773 60.5091C109.968 60.4703 110.168 60.4517 110.374 60.4517C110.555 60.4517 110.735 60.47 110.912 60.5091C111.088 60.5467 111.247 60.6091 111.388 60.6952C111.528 60.7802 111.641 60.893 111.727 61.0287C111.813 61.1641 111.858 61.3299 111.858 61.5254V63.43H111.857ZM111.04 62.4014C110.915 62.4814 110.762 62.53 110.581 62.5465C110.4 62.5654 110.217 62.589 110.037 62.6213C109.951 62.6368 109.868 62.6567 109.786 62.6827C109.706 62.7079 109.634 62.7451 109.571 62.7903C109.509 62.8349 109.461 62.8947 109.425 62.9711C109.39 63.0438 109.371 63.1325 109.371 63.2377C109.371 63.3274 109.397 63.4054 109.451 63.4662C109.502 63.5297 109.565 63.5791 109.641 63.614C109.714 63.6489 109.795 63.6741 109.885 63.6888C109.972 63.7016 110.052 63.7103 110.122 63.7103C110.215 63.7103 110.312 63.699 110.416 63.6738C110.521 63.6512 110.621 63.6098 110.715 63.5539C110.806 63.4948 110.885 63.4227 110.949 63.335C111.01 63.2463 111.04 63.1361 111.04 63.0086V62.4014H111.04Z" fill="white"/>
<path d="M112.324 60.5527H113.22L114.186 63.3178H114.202L115.14 60.5527H115.991L114.552 64.454C114.485 64.6217 114.42 64.7815 114.355 64.9337C114.293 65.0864 114.213 65.2229 114.12 65.3402C114.025 65.4564 113.91 65.5488 113.771 65.6191C113.635 65.6868 113.457 65.7228 113.243 65.7228C113.051 65.7228 112.863 65.7078 112.677 65.6792V64.9919C112.744 65.0017 112.807 65.0129 112.869 65.0242C112.931 65.0366 112.995 65.0415 113.063 65.0415C113.158 65.0415 113.238 65.0303 113.3 65.0066C113.362 64.9825 113.413 64.9476 113.454 64.9027C113.494 64.8565 113.528 64.8027 113.557 64.7429C113.585 64.6794 113.613 64.608 113.637 64.5267L113.728 64.2407L112.324 60.5527Z" fill="white"/>
<path d="M119.55 63.43C119.55 63.5316 119.565 63.6037 119.591 63.6463C119.616 63.6888 119.668 63.7103 119.744 63.7103C119.768 63.7103 119.797 63.7103 119.83 63.7103C119.863 63.7103 119.902 63.705 119.945 63.6964V64.2611C119.917 64.2713 119.88 64.281 119.833 64.2939C119.788 64.3052 119.741 64.3175 119.694 64.3262C119.647 64.3348 119.597 64.3435 119.55 64.3461C119.503 64.3521 119.461 64.3537 119.43 64.3537C119.261 64.3537 119.123 64.3225 119.015 64.2548C118.902 64.1871 118.832 64.0708 118.8 63.9037C118.637 64.0611 118.436 64.1748 118.201 64.2485C117.964 64.3183 117.738 64.3535 117.517 64.3535C117.35 64.3535 117.191 64.3309 117.038 64.2847C116.885 64.2396 116.75 64.1745 116.634 64.0858C116.516 63.9971 116.423 63.8843 116.354 63.7481C116.286 63.6132 116.25 63.4555 116.25 63.2728C116.25 63.0432 116.293 62.8582 116.375 62.7157C116.459 62.5706 116.569 62.4581 116.706 62.378C116.842 62.2969 116.994 62.2382 117.163 62.2017C117.332 62.1668 117.503 62.1392 117.676 62.1216C117.824 62.092 117.965 62.0721 118.098 62.0592C118.231 62.0469 118.351 62.0269 118.451 61.9991C118.555 61.9705 118.636 61.9243 118.695 61.8653C118.755 61.8068 118.785 61.7167 118.785 61.5976C118.785 61.4916 118.76 61.4055 118.71 61.3389C118.659 61.2717 118.597 61.2216 118.524 61.1867C118.451 61.1502 118.368 61.1266 118.277 61.114C118.186 61.1017 118.1 61.0956 118.018 61.0956C117.791 61.0956 117.601 61.1444 117.453 61.2392C117.305 61.3355 117.223 61.4832 117.204 61.6829H116.387C116.401 61.4457 116.46 61.2452 116.559 61.0893C116.66 60.9314 116.788 60.8054 116.942 60.7107C117.098 60.6128 117.273 60.5467 117.468 60.5091C117.665 60.4703 117.864 60.4517 118.071 60.4517C118.251 60.4517 118.431 60.47 118.606 60.5091C118.784 60.5467 118.942 60.6091 119.083 60.6952C119.223 60.7802 119.337 60.893 119.423 61.0287C119.51 61.1641 119.551 61.3299 119.551 61.5254V63.43H119.55ZM118.733 62.4014C118.611 62.4814 118.458 62.53 118.277 62.5465C118.094 62.5654 117.913 62.589 117.732 62.6213C117.646 62.6368 117.562 62.6567 117.482 62.6827C117.402 62.7079 117.33 62.7451 117.268 62.7903C117.206 62.8349 117.155 62.8947 117.12 62.9711C117.083 63.0438 117.066 63.1325 117.066 63.2377C117.066 63.3274 117.092 63.4054 117.144 63.4662C117.197 63.5297 117.261 63.5791 117.335 63.614C117.409 63.6489 117.49 63.6741 117.577 63.6888C117.666 63.7016 117.747 63.7103 117.818 63.7103C117.909 63.7103 118.008 63.699 118.112 63.6738C118.217 63.6512 118.316 63.6098 118.409 63.5539C118.502 63.4948 118.579 63.4227 118.641 63.335C118.703 63.2463 118.734 63.1361 118.734 63.0086V62.4014H118.733Z" fill="white"/>
<path d="M121.957 59.1426H122.887L124.169 63.1874H124.184L125.494 59.1426H126.403L124.656 64.2549H123.66L121.957 59.1426Z" fill="white"/>
<path d="M126.889 59.1426H127.703V59.9149H126.889V59.1426ZM126.889 60.5525H127.703V64.2549H126.889V60.5525Z" fill="white"/>
<path d="M129.209 63.0649C129.233 63.3047 129.325 63.4724 129.481 63.5661C129.639 63.6635 129.827 63.7102 130.047 63.7102C130.122 63.7102 130.208 63.7049 130.308 63.6913C130.405 63.6816 130.498 63.6574 130.585 63.6252C130.669 63.5913 130.741 63.5412 130.795 63.4766C130.849 63.4142 130.876 63.3276 130.869 63.2224C130.864 63.1187 130.827 63.0326 130.755 62.9652C130.684 62.9001 130.591 62.8453 130.479 62.8038C130.368 62.7639 130.238 62.729 130.096 62.7012C129.953 62.6726 129.808 62.6403 129.661 62.6075C129.507 62.5742 129.36 62.5327 129.219 62.4865C129.078 62.4377 128.951 62.3737 128.839 62.2929C128.729 62.2113 128.639 62.1079 128.572 61.9804C128.505 61.8552 128.472 61.6991 128.472 61.513C128.472 61.3115 128.52 61.143 128.62 61.0081C128.716 60.8704 128.839 60.7617 128.99 60.6791C129.14 60.594 129.308 60.5366 129.491 60.5043C129.676 60.4704 129.852 60.4531 130.016 60.4531C130.208 60.4531 130.389 60.4731 130.567 60.5132C130.74 60.5542 130.897 60.6192 131.039 60.7121C131.178 60.8019 131.296 60.9181 131.388 61.0659C131.481 61.211 131.54 61.3857 131.564 61.5923H130.713C130.674 61.397 130.585 61.2648 130.443 61.1981C130.303 61.132 130.143 61.0971 129.96 61.0971C129.904 61.0971 129.836 61.1031 129.757 61.112C129.677 61.1207 129.603 61.1383 129.534 61.1658C129.463 61.191 129.407 61.2293 129.36 61.2808C129.31 61.3296 129.288 61.397 129.288 61.4786C129.288 61.5786 129.323 61.6586 129.392 61.7211C129.461 61.782 129.552 61.835 129.663 61.8749C129.776 61.9158 129.904 61.9512 130.047 61.9785C130.191 62.0071 130.337 62.0376 130.49 62.0722C130.637 62.105 130.785 62.1459 130.927 62.1937C131.07 62.2409 131.198 62.306 131.31 62.3858C131.423 62.4682 131.514 62.5697 131.581 62.6949C131.652 62.8185 131.685 62.9723 131.685 63.152C131.685 63.3725 131.635 63.5585 131.534 63.7112C131.436 63.8634 131.306 63.9875 131.146 64.0823C130.984 64.1786 130.808 64.25 130.613 64.2909C130.417 64.3334 130.224 64.3549 130.033 64.3549C129.799 64.3549 129.583 64.3297 129.384 64.2759C129.187 64.2237 129.016 64.1432 128.869 64.0371C128.722 63.9296 128.608 63.7957 128.525 63.6375C128.441 63.4761 128.397 63.2859 128.393 63.066H129.209V63.0649Z" fill="white"/>
<path d="M132.309 59.1426H133.126V61.039H133.139C133.241 60.8724 133.389 60.7336 133.588 60.6213C133.785 60.5074 134.006 60.4525 134.25 60.4525C134.655 60.4525 134.975 60.5575 135.209 60.7672C135.443 60.9774 135.56 61.2925 135.56 61.7124V64.2549H134.745V61.926C134.734 61.636 134.672 61.4263 134.557 61.2936C134.444 61.1624 134.263 61.0962 134.02 61.0962C133.882 61.0962 133.757 61.1225 133.648 61.1726C133.537 61.2222 133.446 61.2925 133.37 61.3786C133.292 61.4673 133.231 61.5712 133.19 61.6911C133.148 61.811 133.126 61.9373 133.126 62.0708V64.2546H132.309V59.1426Z" fill="white"/>
<path d="M136.082 60.5527H136.948L137.671 63.3178H137.687L138.38 60.5527H139.206L139.87 63.3178H139.885L140.636 60.5527H141.467L140.307 64.2551H139.469L138.782 61.505H138.767L138.088 64.2551H137.227L136.082 60.5527Z" fill="white"/>
<path d="M145.087 63.43C145.087 63.5316 145.1 63.6037 145.126 63.6463C145.152 63.6888 145.204 63.7103 145.28 63.7103C145.303 63.7103 145.331 63.7103 145.365 63.7103C145.4 63.7103 145.437 63.705 145.481 63.6964V64.2611C145.453 64.2713 145.416 64.281 145.37 64.2939C145.324 64.3052 145.277 64.3175 145.23 64.3262C145.182 64.3348 145.134 64.3435 145.087 64.3461C145.039 64.3521 144.997 64.3537 144.966 64.3537C144.797 64.3537 144.662 64.3225 144.549 64.2548C144.439 64.1871 144.368 64.0708 144.336 63.9037C144.173 64.0611 143.974 64.1748 143.737 64.2485C143.5 64.3183 143.272 64.3535 143.053 64.3535C142.885 64.3535 142.726 64.3309 142.574 64.2847C142.421 64.2396 142.285 64.1745 142.17 64.0858C142.054 63.9971 141.959 63.8843 141.89 63.7481C141.82 63.6132 141.785 63.4555 141.785 63.2728C141.785 63.0432 141.829 62.8582 141.911 62.7157C141.996 62.5706 142.105 62.4581 142.24 62.378C142.376 62.2969 142.53 62.2382 142.699 62.2017C142.868 62.1668 143.039 62.1392 143.211 62.1216C143.359 62.092 143.5 62.0721 143.634 62.0592C143.768 62.0469 143.885 62.0269 143.987 61.9991C144.09 61.9705 144.171 61.9243 144.231 61.8653C144.291 61.8068 144.321 61.7167 144.321 61.5976C144.321 61.4916 144.296 61.4055 144.246 61.3389C144.196 61.2717 144.135 61.2216 144.059 61.1867C143.984 61.1502 143.904 61.1266 143.813 61.114C143.721 61.1017 143.635 61.0956 143.554 61.0956C143.326 61.0956 143.137 61.1444 142.99 61.2392C142.84 61.3355 142.759 61.4832 142.739 61.6829H141.922C141.938 61.4457 141.993 61.2452 142.094 61.0893C142.194 60.9314 142.322 60.8054 142.479 60.7107C142.632 60.6128 142.808 60.5467 143.004 60.5091C143.199 60.4703 143.399 60.4517 143.606 60.4517C143.786 60.4517 143.966 60.47 144.141 60.5091C144.318 60.5467 144.477 60.6091 144.617 60.6952C144.76 60.7802 144.873 60.893 144.958 61.0287C145.043 61.1641 145.087 61.3299 145.087 61.5254V63.43ZM144.27 62.4014C144.147 62.4814 143.995 62.53 143.813 62.5465C143.632 62.5654 143.449 62.589 143.268 62.6213C143.182 62.6368 143.099 62.6567 143.019 62.6827C142.937 62.7079 142.866 62.7451 142.803 62.7903C142.742 62.8349 142.694 62.8947 142.657 62.9711C142.621 63.0438 142.602 63.1325 142.602 63.2377C142.602 63.3274 142.629 63.4054 142.681 63.4662C142.734 63.5297 142.797 63.5791 142.871 63.614C142.945 63.6489 143.026 63.6741 143.114 63.6888C143.204 63.7016 143.284 63.7103 143.355 63.7103C143.446 63.7103 143.543 63.699 143.648 63.6738C143.754 63.6512 143.851 63.6098 143.945 63.5539C144.038 63.4948 144.115 63.4227 144.177 63.335C144.241 63.2463 144.27 63.1361 144.27 63.0086V62.4014H144.27Z" fill="white"/>
<path d="M146.586 63.0649C146.611 63.3047 146.701 63.4724 146.857 63.5661C147.016 63.6635 147.205 63.7102 147.422 63.7102C147.499 63.7102 147.587 63.7049 147.684 63.6913C147.784 63.6816 147.874 63.6574 147.959 63.6252C148.048 63.5913 148.116 63.5412 148.171 63.4766C148.226 63.4142 148.253 63.3276 148.246 63.2224C148.243 63.1187 148.204 63.0326 148.131 62.9652C148.061 62.9001 147.968 62.8453 147.856 62.8038C147.745 62.7639 147.616 62.729 147.472 62.7012C147.33 62.6726 147.184 62.6403 147.037 62.6075C146.883 62.5742 146.737 62.5327 146.595 62.4865C146.457 62.4377 146.33 62.3737 146.217 62.2929C146.105 62.2113 146.016 62.1079 145.949 61.9804C145.883 61.8552 145.849 61.6991 145.849 61.513C145.849 61.3115 145.898 61.143 145.997 61.0081C146.093 60.8704 146.217 60.7617 146.368 60.6791C146.518 60.594 146.684 60.5366 146.87 60.5043C147.053 60.4704 147.228 60.4531 147.397 60.4531C147.586 60.4531 147.767 60.4731 147.944 60.5132C148.116 60.5542 148.274 60.6192 148.415 60.7121C148.555 60.8019 148.672 60.9181 148.766 61.0659C148.859 61.211 148.917 61.3857 148.94 61.5923H148.09C148.051 61.397 147.962 61.2648 147.82 61.1981C147.68 61.132 147.52 61.0971 147.338 61.0971C147.28 61.0971 147.213 61.1031 147.134 61.112C147.055 61.1207 146.982 61.1383 146.912 61.1658C146.843 61.191 146.784 61.2293 146.736 61.2808C146.689 61.3296 146.664 61.397 146.664 61.4786C146.664 61.5786 146.7 61.6586 146.768 61.7211C146.838 61.782 146.929 61.835 147.04 61.8749C147.152 61.9158 147.28 61.9512 147.423 61.9785C147.567 62.0071 147.714 62.0376 147.866 62.0722C148.016 62.105 148.162 62.1459 148.306 62.1937C148.448 62.2409 148.575 62.306 148.687 62.3858C148.8 62.4682 148.889 62.5697 148.96 62.6949C149.029 62.8185 149.065 62.9723 149.065 63.152C149.065 63.3725 149.012 63.5585 148.913 63.7112C148.813 63.8634 148.681 63.9875 148.524 64.0823C148.362 64.1786 148.185 64.25 147.99 64.2909C147.794 64.3334 147.599 64.3549 147.41 64.3549C147.174 64.3549 146.96 64.3297 146.761 64.2759C146.564 64.2237 146.392 64.1432 146.246 64.0371C146.1 63.9296 145.986 63.7957 145.901 63.6375C145.819 63.4761 145.774 63.2859 145.77 63.066H146.586V63.0649Z" fill="white"/>
<path d="M149.75 63.2876H150.745V64.2554H149.75V63.2876Z" fill="white"/>
<path d="M38.6982 14.3057V52.3477H28.6738V24.1403L38.6982 14.3057Z" fill="white"/>
<path d="M56.5365 25.713V52.3231H41.4531V14.3052L56.5365 25.713Z" fill="white"/>
<path d="M82.1796 52.3237H80.2711L79.816 50.3186C79.0207 51.2263 78.2242 51.855 77.4312 52.2048C76.6327 52.5549 75.7185 52.7301 74.6841 52.7301C73.4114 52.7301 72.2691 52.495 71.2583 52.0248C70.248 51.5574 69.3938 50.9161 68.6932 50.105C67.9915 49.2926 67.4559 48.346 67.0812 47.2636C66.7081 46.1827 66.5215 45.0284 66.5215 43.8034C66.5215 42.5935 66.7081 41.4483 67.0812 40.3664C67.4559 39.2842 67.9915 38.3374 68.6932 37.5247C69.3938 36.7141 70.2482 36.0696 71.2583 35.5921C72.2691 35.1158 73.4114 34.8765 74.6841 34.8765C75.6067 34.8765 76.486 34.9998 77.3236 35.2473C78.1565 35.4934 78.9013 35.8589 79.5536 36.3441C80.206 36.8299 80.7473 37.4384 81.1764 38.1697C81.6075 38.9029 81.8781 39.7455 81.9883 40.6996H79.076C78.9965 40.1438 78.8249 39.6537 78.5625 39.2317C78.3011 38.8111 77.9726 38.456 77.5737 38.1697C77.1741 37.8834 76.7285 37.669 76.236 37.5247C75.7434 37.3822 75.2233 37.3111 74.6841 37.3111C73.7769 37.3111 72.9933 37.4943 72.3321 37.8585C71.6734 38.2261 71.1357 38.7163 70.7222 39.3288C70.3091 39.9421 70.0032 40.6372 69.8027 41.4163C69.6038 42.1964 69.5043 42.9902 69.5043 43.8037C69.5043 44.6151 69.6038 45.4099 69.8027 46.1901C70.0032 46.9702 70.3091 47.6651 70.7222 48.2791C71.1357 48.8926 71.6734 49.3799 72.3321 49.7465C72.9933 50.1139 73.7769 50.2955 74.6841 50.2955C75.4471 50.3128 76.1242 50.2131 76.7135 49.9977C77.3019 49.783 77.7997 49.4728 78.2061 49.0664C78.6095 48.6615 78.917 48.1629 79.1246 47.5753C79.3311 46.9865 79.4424 46.3341 79.4591 45.6175H74.9228V43.35H82.1796V52.3237Z" fill="white"/>
<path d="M84.7969 39.9839H87.3512V42.3713H87.3989C87.4779 42.0378 87.6346 41.7111 87.8634 41.3939C88.0946 41.074 88.3738 40.784 88.7 40.5216C89.0259 40.2589 89.3872 40.049 89.7861 39.8889C90.1839 39.7307 90.5888 39.6504 91.004 39.6504C91.3217 39.6504 91.5411 39.6591 91.66 39.6748C91.7794 39.6898 91.904 39.7065 92.03 39.7223V42.348C91.8387 42.3168 91.6445 42.2879 91.4456 42.264C91.2467 42.2404 91.0509 42.2281 90.8612 42.2281C90.3978 42.2281 89.9638 42.3194 89.5599 42.5028C89.1534 42.6852 88.8 42.9555 88.4953 43.3142C88.1946 43.6729 87.955 44.1143 87.7823 44.6391C87.6044 45.1644 87.5183 45.7693 87.5183 46.4529V52.3243H84.7969V39.9839Z" fill="white"/>
<path d="M93.1094 35.2822H95.8298V37.8581H93.1094V35.2822ZM93.1094 39.9833H95.8298V52.3232H93.1094V39.9833Z" fill="white"/>
<path d="M98.3086 35.2827H101.03V41.6076H101.078C101.412 41.05 101.91 40.5853 102.571 40.2116C103.23 39.8384 103.967 39.6503 104.778 39.6503C106.131 39.6503 107.197 40.0009 107.976 40.6999C108.757 41.4 109.147 42.4513 109.147 43.8504V52.324H106.424V44.5674C106.393 43.5977 106.186 42.8924 105.804 42.4552C105.421 42.0175 104.826 41.7976 104.015 41.7976C103.553 41.7976 103.139 41.881 102.774 42.0487C102.407 42.2148 102.096 42.4476 101.841 42.7412C101.589 43.0349 101.388 43.3813 101.244 43.7801C101.101 44.1779 101.03 44.5986 101.03 45.0449V52.3237H98.3089V35.2827H98.3086Z" fill="white"/>
<path d="M121.913 49.5785C121.913 49.912 121.957 50.1527 122.045 50.2949C122.133 50.4384 122.303 50.5095 122.56 50.5095C122.639 50.5095 122.733 50.5095 122.845 50.5095C122.955 50.5095 123.084 50.4946 123.228 50.4633V52.3475C123.132 52.3797 123.008 52.4162 122.857 52.4572C122.706 52.4947 122.549 52.5309 122.392 52.5632C122.232 52.5944 122.073 52.6185 121.914 52.6343C121.754 52.6498 121.618 52.6584 121.509 52.6584C120.951 52.6584 120.489 52.5456 120.124 52.3233C119.76 52.1018 119.52 51.7109 119.408 51.1548C118.867 51.6796 118.204 52.062 117.414 52.2997C116.628 52.5385 115.868 52.6584 115.136 52.6584C114.58 52.6584 114.044 52.5821 113.535 52.4309C113.026 52.2798 112.578 52.0572 112.186 51.7636C111.796 51.4684 111.488 51.0947 111.255 50.6407C111.026 50.1881 110.91 49.6598 110.91 49.0545C110.91 48.2898 111.049 47.6708 111.328 47.1919C111.607 46.7148 111.973 46.3406 112.427 46.0711C112.879 45.8011 113.388 45.6048 113.952 45.4859C114.519 45.366 115.088 45.2747 115.66 45.2122C116.153 45.1159 116.624 45.0482 117.069 45.0083C117.513 44.9685 117.907 44.9013 118.251 44.806C118.592 44.7102 118.863 44.5636 119.061 44.3636C119.26 44.1647 119.36 43.8661 119.36 43.4688C119.36 43.1198 119.278 42.8322 119.11 42.6089C118.942 42.3874 118.736 42.2147 118.489 42.0964C118.243 41.9764 117.968 41.8985 117.665 41.8576C117.362 41.8187 117.078 41.7975 116.807 41.7975C116.041 41.7975 115.413 41.9583 114.921 42.2745C114.429 42.5934 114.149 43.0875 114.086 43.7538H111.363C111.411 42.96 111.602 42.2997 111.938 41.7749C112.27 41.2485 112.696 40.8273 113.213 40.5085C113.732 40.1913 114.315 39.9687 114.968 39.8407C115.62 39.715 116.287 39.6499 116.973 39.6499C117.578 39.6499 118.173 39.7147 118.764 39.8407C119.353 39.9687 119.88 40.1755 120.351 40.4613C120.82 40.7484 121.198 41.1173 121.483 41.571C121.771 42.025 121.913 42.5787 121.913 43.231V49.5785ZM119.193 46.1409C118.78 46.4136 118.269 46.576 117.664 46.6308C117.06 46.6872 116.456 46.7707 115.85 46.882C115.564 46.9297 115.285 46.9972 115.016 47.0848C114.743 47.1735 114.507 47.2908 114.3 47.4435C114.093 47.5947 113.929 47.793 113.81 48.0395C113.69 48.2856 113.632 48.5842 113.632 48.9343C113.632 49.2382 113.718 49.4919 113.894 49.6979C114.068 49.9055 114.279 50.0695 114.527 50.1878C114.772 50.3083 115.042 50.3893 115.339 50.4379C115.632 50.4867 115.9 50.509 116.138 50.509C116.44 50.509 116.766 50.4691 117.116 50.3891C117.467 50.3117 117.798 50.1755 118.106 49.9842C118.417 49.7929 118.676 49.5517 118.883 49.2565C119.089 48.9629 119.193 48.5994 119.193 48.1694V46.1409H119.193Z" fill="white"/>
<path d="M126.702 48.3622C126.781 49.1571 127.084 49.7147 127.609 50.0325C128.134 50.3513 128.762 50.5095 129.496 50.5095C129.749 50.5095 130.04 50.4896 130.366 50.451C130.693 50.4096 130.998 50.3348 131.284 50.2235C131.572 50.1133 131.806 49.9498 131.989 49.7346C132.173 49.52 132.255 49.2384 132.24 48.886C132.224 48.5375 132.096 48.2499 131.858 48.0271C131.619 47.8035 131.314 47.6264 130.938 47.49C130.563 47.3546 130.14 47.2409 129.661 47.1436C129.184 47.0499 128.699 46.9463 128.206 46.8334C127.695 46.7222 127.207 46.5873 126.738 46.4285C126.268 46.2698 125.846 46.0548 125.472 45.7848C125.097 45.5137 124.801 45.1671 124.578 44.7459C124.354 44.3248 124.244 43.8033 124.244 43.1822C124.244 42.5133 124.407 41.9547 124.734 41.4996C125.059 41.0459 125.472 40.6796 125.972 40.4022C126.476 40.1241 127.033 39.9291 127.646 39.8168C128.258 39.7061 128.843 39.6499 129.398 39.6499C130.036 39.6499 130.644 39.7168 131.226 39.8527C131.806 39.9887 132.331 40.2081 132.8 40.5082C133.27 40.8105 133.661 41.2047 133.969 41.6907C134.282 42.1772 134.475 42.7608 134.554 43.4459H131.715C131.588 42.7936 131.289 42.3559 130.821 42.1318C130.349 41.9093 129.813 41.7972 129.209 41.7972C129.018 41.7972 128.79 41.8145 128.529 41.846C128.267 41.8783 128.019 41.9373 127.79 42.025C127.557 42.1137 127.363 42.2396 127.204 42.4063C127.044 42.5734 126.964 42.7939 126.964 43.0649C126.964 43.3977 127.081 43.6687 127.31 43.8747C127.54 44.0823 127.845 44.2523 128.219 44.3872C128.594 44.5226 129.018 44.6383 129.496 44.7336C129.973 44.8283 130.466 44.9325 130.975 45.0448C131.468 45.1561 131.954 45.2912 132.43 45.4487C132.908 45.6101 133.333 45.825 133.706 46.0934C134.082 46.3661 134.384 46.7075 134.614 47.121C134.845 47.5351 134.962 48.0437 134.962 48.6472C134.962 49.3796 134.793 50.0012 134.461 50.5098C134.126 51.0197 133.692 51.4337 133.159 51.751C132.626 52.0698 132.033 52.3 131.382 52.4435C130.728 52.586 130.084 52.6587 129.448 52.6587C128.666 52.6587 127.947 52.571 127.287 52.3963C126.627 52.2199 126.054 51.9533 125.569 51.5962C125.084 51.2385 124.701 50.7922 124.423 50.2584C124.144 49.726 123.996 49.0936 123.98 48.362H126.702V48.3622Z" fill="white"/>
<path d="M136.715 35.2827H139.437V41.6076H139.485C139.819 41.05 140.316 40.5853 140.977 40.2116C141.637 39.8384 142.374 39.6503 143.185 39.6503C144.538 39.6503 145.604 40.0009 146.383 40.6999C147.163 41.4 147.553 42.4513 147.553 43.8504V52.324H144.832V44.5674C144.799 43.5977 144.593 42.8924 144.211 42.4552C143.83 42.0175 143.233 41.7976 142.42 41.7976C141.959 41.7976 141.545 41.881 141.182 42.0487C140.814 42.2148 140.505 42.4476 140.25 42.7412C139.994 43.0349 139.795 43.3813 139.652 43.7801C139.508 44.1779 139.438 44.5986 139.438 45.0449V52.3237H136.715V35.2827H136.715Z" fill="white"/>
<path d="M160.319 49.5785C160.319 49.912 160.363 50.1527 160.451 50.2949C160.538 50.4384 160.708 50.5095 160.964 50.5095C161.044 50.5095 161.138 50.5095 161.25 50.5095C161.362 50.5095 161.489 50.4946 161.633 50.4633V52.3475C161.537 52.3797 161.413 52.4162 161.263 52.4572C161.11 52.4947 160.956 52.5309 160.797 52.5632C160.638 52.5944 160.479 52.6185 160.319 52.6343C160.161 52.6498 160.024 52.6584 159.914 52.6584C159.356 52.6584 158.893 52.5456 158.53 52.3233C158.163 52.1018 157.925 51.7109 157.813 51.1548C157.271 51.6796 156.607 52.062 155.819 52.2997C155.033 52.5385 154.272 52.6584 153.541 52.6584C152.983 52.6584 152.453 52.5821 151.941 52.4309C151.433 52.2798 150.983 52.0572 150.593 51.7636C150.201 51.4684 149.892 51.0947 149.662 50.6407C149.431 50.1881 149.316 49.6598 149.316 49.0545C149.316 48.2898 149.454 47.6708 149.732 47.1919C150.011 46.7148 150.379 46.3406 150.831 46.0711C151.284 45.8011 151.794 45.6048 152.357 45.4859C152.924 45.366 153.493 45.2747 154.065 45.2122C154.558 45.1159 155.029 45.0482 155.474 45.0083C155.92 44.9685 156.313 44.9013 156.656 44.806C156.998 44.7102 157.269 44.5636 157.467 44.3636C157.666 44.1647 157.766 43.8661 157.766 43.4688C157.766 43.1198 157.683 42.8322 157.515 42.6089C157.347 42.3874 157.142 42.2147 156.893 42.0964C156.648 41.9764 156.373 41.8985 156.07 41.8576C155.769 41.8187 155.482 41.7975 155.212 41.7975C154.446 41.7975 153.818 41.9583 153.326 42.2745C152.831 42.5934 152.554 43.0875 152.489 43.7538H149.769C149.816 42.96 150.008 42.2997 150.342 41.7749C150.676 41.2485 151.102 40.8273 151.619 40.5085C152.136 40.1913 152.721 39.9687 153.373 39.8407C154.025 39.715 154.693 39.6499 155.378 39.6499C155.983 39.6499 156.579 39.7147 157.169 39.8407C157.757 39.9687 158.287 40.1755 158.756 40.4613C159.226 40.7484 159.603 41.1173 159.89 41.571C160.176 42.025 160.319 42.5787 160.319 43.231V49.5785ZM157.6 46.1409C157.185 46.4136 156.676 46.576 156.07 46.6308C155.465 46.6872 154.861 46.7707 154.256 46.882C153.97 46.9297 153.691 46.9972 153.421 47.0848C153.149 47.1735 152.913 47.2908 152.705 47.4435C152.499 47.5947 152.335 47.793 152.217 48.0395C152.096 48.2856 152.037 48.5842 152.037 48.9343C152.037 49.2382 152.124 49.4919 152.301 49.6979C152.475 49.9055 152.684 50.0695 152.931 50.1878C153.178 50.3083 153.449 50.3893 153.743 50.4379C154.037 50.4867 154.304 50.509 154.543 50.509C154.844 50.509 155.173 50.4691 155.522 50.3891C155.871 50.3117 156.203 50.1755 156.513 49.9842C156.823 49.7929 157.079 49.5517 157.288 49.2565C157.496 48.9629 157.6 48.5994 157.6 48.1694V46.1409Z" fill="white"/>
<path d="M163.04 35.2827H165.759V44.9728L170.675 39.9838H174.018L169.292 44.5201L174.473 52.3237H171.155L167.382 46.3339L165.759 47.9089V52.3237H163.039V35.2827H163.04Z" fill="white"/>
<path d="M174.773 39.9837H176.829V36.2842H179.549V39.9837H182.007V42.0121H179.549V48.5999C179.549 48.886 179.56 49.1334 179.586 49.341C179.609 49.547 179.663 49.7233 179.751 49.8658C179.838 50.0083 179.97 50.1159 180.146 50.1883C180.321 50.2586 180.559 50.2948 180.862 50.2948C181.053 50.2948 181.245 50.2922 181.436 50.2836C181.627 50.276 181.816 50.2471 182.008 50.1996V52.2999C181.705 52.3322 181.411 52.365 181.124 52.3962C180.837 52.4275 180.544 52.4435 180.242 52.4435C179.525 52.4435 178.947 52.3747 178.51 52.2412C178.072 52.1047 177.732 51.9076 177.486 51.6436C177.239 51.3828 177.072 51.0527 176.981 50.6541C176.895 50.2563 176.845 49.8028 176.829 49.2927V42.0124H174.774V39.9837H174.773Z" fill="white"/>
<path d="M183.604 35.2827H186.324V37.8585H183.604V35.2827ZM183.604 39.9838H186.324V52.3237H183.604V39.9838Z" fill="white"/>
</svg>
