<svg width="195" height="66" viewBox="0 0 195 66" fill="none" xmlns="http://www.w3.org/2000/svg">
<path d="M97.5204 19.961V25.2578H88.1264V50.6868H82.1899V25.2569H72.7969V19.96L97.5204 19.961ZM100.045 50.6858H105.983V19.961H100.045V35.3229V50.6858ZM136.675 50.6858H130.565L127.406 43.1252H116.997L113.875 50.6858H107.901L120.99 19.5493H123.587L136.675 50.6858ZM165.449 50.6858H159.339L156.18 43.1252H145.769L142.646 50.6858H136.675L149.764 19.5493H152.359L165.449 50.6858ZM125.37 38.1055L122.231 30.4535L119.068 38.1055H125.37ZM154.144 38.1055L151.005 30.4535L147.842 38.1055H154.144Z" fill="white"/>
<path d="M48.0521 15.3145C46.0815 15.315 44.1912 16.0959 42.7947 17.4864C41.3983 18.8769 40.6094 20.7639 40.6006 22.7346V25.2577H56.1011V40.7533H58.5879C60.5638 40.7533 62.4588 39.9685 63.8562 38.5715C65.2536 37.1744 66.0389 35.2796 66.0394 33.3037V15.3145H48.0521Z" fill="white"/>
<path d="M63.1122 41.5913C61.7257 42.3521 60.1692 42.7499 58.5877 42.7478H38.6059L30.6689 50.6856H51.2933C52.284 50.6867 53.2648 50.4888 54.1776 50.1036C55.0903 49.7185 55.9164 49.154 56.6069 48.4435L63.2862 41.7642L63.1122 41.5913Z" fill="white"/>
<path d="M39.7623 18.2413C39.0018 19.628 38.604 21.1843 38.6059 22.7659V42.7477L30.6689 50.6856V30.0612C30.6689 28.0548 31.4648 26.1674 32.9101 24.7476L39.5894 18.0684L39.7623 18.2413Z" fill="white"/>
</svg>
