<svg width="214" height="48" viewBox="0 0 214 48" fill="none" xmlns="http://www.w3.org/2000/svg">
<g clip-path="url(#clip0_268_11511)">
<path fill-rule="evenodd" clip-rule="evenodd" d="M98.1564 24.9176H122.455C125.78 24.9176 129.067 24.6127 131.426 23.0505C131.686 22.8784 131.799 22.77 132.016 22.6039C132.329 22.3642 132.308 22.309 132.555 22.0264C132.949 21.5757 133.114 21.2785 133.348 20.666C133.779 19.5443 133.817 18.063 133.265 16.9603C133.003 16.4355 132.666 16.1106 132.275 15.717C130.14 13.5655 124.048 13.1349 124.048 10.5498V10.0709C124.048 8.82451 125.553 8.31474 126.837 8.31474H138.07V24.6783C138.07 24.8623 138.125 24.9178 138.309 24.9178H143.806C143.99 24.9178 144.045 24.8623 144.045 24.6783V8.31474H150.896C151.08 8.31474 151.136 8.25913 151.136 8.07524V5.99978H126.279C124.235 5.99978 121.459 6.50337 119.841 7.61101C117.941 8.91088 117.386 11.1377 118.231 13.2652C120.138 18.0645 127.474 16.2508 127.474 20.3678C127.474 20.747 127.237 21.2467 127.056 21.4657C126.377 22.2909 124.456 22.5229 123.331 22.5229H105.167V16.6161H115.444C115.628 16.6161 115.683 16.5604 115.683 16.3766V14.4607C115.683 14.2768 115.628 14.2212 115.444 14.2212H105.167V8.31448H116.4C116.584 8.31448 116.639 8.25886 116.639 8.07497V5.99951H98.1562L98.1564 24.9176Z" fill="white"/>
<path fill-rule="evenodd" clip-rule="evenodd" d="M11 6C11.0641 6.27644 11.4852 6.93276 11.6418 7.19281L21.8348 24.9178H29.0846C29.8626 23.4451 30.7091 22.0544 31.5298 20.5829L39.0432 7.59659C40.2088 7.62265 41.7039 7.92488 42.6304 8.63224C44.27 9.88415 44.1302 13.171 41.3815 14.5689C40.643 14.9446 39.5757 15.2745 38.7204 15.3351L37.6093 15.4192C37.5079 16.64 36.9438 15.9096 38.2653 17.396L38.9973 18.2589C39.1443 18.4485 39.2358 18.5086 39.3737 18.68C39.531 18.8758 39.564 18.921 39.7401 19.111L43.7244 23.7398C43.8947 23.9221 43.9112 23.9946 44.0824 24.1793C44.9565 25.1215 44.2537 24.9178 46.5321 24.9178C48.6301 24.9178 50.728 24.9178 52.826 24.9178C52.7109 24.4234 52.2381 24.1699 51.9301 23.8197C51.7455 23.6097 51.7064 23.5132 51.4928 23.3004L46.2329 17.5549C45.8648 17.1361 45.5825 16.9432 45.2574 16.4567C46.8623 16.3229 49.3475 15.0905 50.0621 13.4481C51.0074 11.2755 50.6942 9.34846 49.0623 7.69559C47.7683 6.38471 45.5124 5.99933 42.9472 6C40.5479 6.00067 38.1488 6.00014 35.7495 6H35.1398L28.2626 18.746C28.1412 18.9637 27.8615 19.4564 27.8103 19.6496H27.6509C27.5115 19.05 20.1522 6.64234 20.0029 6H11Z" fill="white"/>
<path fill-rule="evenodd" clip-rule="evenodd" d="M84.0558 22.9222H80.8691V7.91575C83.0379 7.91575 84.8612 7.67329 86.8177 8.66058C87.7783 9.14523 88.1763 9.45659 88.8963 10.17C89.4776 10.7461 89.9514 11.5354 90.3239 12.3316C91.5048 14.8557 91.0065 18.5772 88.9758 20.588C87.7303 21.8214 86.0249 22.9222 84.0558 22.9222ZM74.0176 24.6783C74.0176 24.8624 74.0729 24.9178 74.2565 24.9178H83.4184C87.4549 24.9178 90.3319 24.526 92.8048 22.9079C94.5926 21.7382 95.7815 20.0119 96.372 17.941C96.801 16.4371 96.8221 14.7524 96.4368 13.2313C96.2372 12.4436 96.0839 11.9767 95.7673 11.3478C95.077 9.97697 94.6064 9.47298 93.5569 8.53378C91.7779 6.94176 88.528 6 85.9679 6H74.0178L74.0176 24.6783Z" fill="white"/>
<path fill-rule="evenodd" clip-rule="evenodd" d="M203.001 6H199.257V18.8514C198.815 18.5553 197.854 17.486 197.404 17.0355L187.207 6.81831C186.815 6.42595 186.563 6.04997 186.213 6.00013H182.447L182.438 24.4482C182.442 25.1145 182.703 24.9225 183.403 24.9184C184.358 24.9127 185.315 24.918 186.271 24.918V13.4235L197.959 24.6213C198.174 24.8473 198.142 24.9029 198.534 24.9242C198.796 24.9383 199.142 24.9181 199.416 24.9181C200.611 24.9177 201.806 24.918 203.001 24.918L203.001 6Z" fill="white"/>
<path fill-rule="evenodd" clip-rule="evenodd" d="M53.4629 24.6783C53.4629 24.8624 53.5184 24.9178 53.7021 24.9178H71.9459V22.5232H60.4737V16.6164H70.8306C71.014 16.6164 71.0696 16.5608 71.0696 16.3769V14.461C71.0696 14.2771 71.014 14.2215 70.8306 14.2215H60.4737V8.31483H71.9459V6H53.4629V24.6783Z" fill="white"/>
<path fill-rule="evenodd" clip-rule="evenodd" d="M152.73 24.9181H170.975C171.158 24.9181 171.214 24.8626 171.214 24.6786V22.7629C171.214 22.579 171.158 22.5234 170.975 22.5234H159.741V16.6165H170.018C170.202 16.6165 170.257 16.5609 170.257 16.377V14.4612C170.257 14.2773 170.202 14.2217 170.018 14.2217H159.741V8.31496H170.975C171.158 8.31496 171.214 8.25935 171.214 8.07546V6H152.73V24.9181Z" fill="white"/>
<path fill-rule="evenodd" clip-rule="evenodd" d="M173.762 24.9178H179.02C179.204 24.9178 179.259 24.8624 179.259 24.6783V6H173.762L173.762 24.9178Z" fill="white"/>
<path fill-rule="evenodd" clip-rule="evenodd" d="M128.67 36.0131C128.67 39.4243 137.433 38.0007 137.433 39.4454C137.433 40.7464 133.029 40.5159 131.866 40.0742C131.202 39.8218 130.955 39.6049 130.582 39.0463C130.224 39.0762 129.794 39.2065 129.467 39.2866C129.173 39.3589 128.58 39.5184 128.271 39.5252C128.335 40.2879 129.584 41.1328 130.252 41.3723C131.647 41.8723 132.517 41.9803 133.623 41.9997H135.282C136.295 41.9997 137.578 41.7451 138.284 41.4156C139.032 41.0669 139.903 40.394 139.903 39.4454C139.903 37.0442 135.69 36.9304 133.537 36.7241C132.798 36.6533 131.139 36.5562 131.139 35.9332C131.139 34.9834 135.546 34.8176 136.89 35.7587C136.934 35.7892 137.022 35.8579 137.068 35.8998C137.782 36.5482 136.925 36.533 138.634 36.1793C139.001 36.1035 139.398 35.9622 139.743 35.9332C139.344 34.2184 136.293 33.6184 134.724 33.6184C132.951 33.6184 130.482 33.5218 129.203 34.7916C128.965 35.0277 128.67 35.5819 128.67 36.0131Z" fill="white"/>
<path fill-rule="evenodd" clip-rule="evenodd" d="M107.24 37.5301H103.654V35.375H108.833C109.89 35.375 110.143 37.1612 108.882 37.4199C108.461 37.5063 107.709 37.5301 107.24 37.5301ZM101.424 41.8406H103.415C103.599 41.8406 103.654 41.785 103.654 41.6011V39.2063H106.443C106.667 39.2063 106.877 39.5243 107.019 39.6668L109.246 41.666C109.534 41.9229 109.596 41.8473 110.106 41.8418C110.822 41.8341 111.542 41.8406 112.259 41.8406C111.906 41.3127 111.486 41.0845 111.162 40.784L110.366 40.0656C110.226 39.9363 110.149 39.8339 110.009 39.7044C109.702 39.4198 109.474 39.3302 109.231 38.967C110.727 38.967 112.02 37.6897 112.02 36.5724C112.02 35.5352 111.875 34.8392 110.822 34.18C110.242 33.8164 109.221 33.6987 108.275 33.6987H101.424V41.8406Z" fill="white"/>
<path fill-rule="evenodd" clip-rule="evenodd" d="M115.605 41.8402H125.405C125.779 41.8402 125.644 41.3498 125.644 40.4034C125.644 40.2195 125.588 40.164 125.405 40.164H117.756V38.4876H124.767V36.8913H117.756V35.3746H125.405C125.779 35.3746 125.644 34.8842 125.644 33.9377C125.644 33.7539 125.588 33.6982 125.405 33.6982H115.605V41.8402Z" fill="white"/>
<path fill-rule="evenodd" clip-rule="evenodd" d="M74.0977 33.9377V35.4544H78.5591V41.8402H80.7898V35.4544H85.2512C85.2512 34.3786 85.4112 33.6982 85.0123 33.6982H74.3368C74.1532 33.6982 74.0977 33.7539 74.0977 33.9377Z" fill="white"/>
<path fill-rule="evenodd" clip-rule="evenodd" d="M91.8648 38.8073V41.8406H94.0954C94.0954 37.1391 93.8508 39.3139 95.8245 36.9478C96.4315 36.2206 96.989 35.719 97.6623 35.0373C97.8968 34.7997 97.9737 34.6384 98.2171 34.3959C98.4388 34.1752 98.7102 34.0206 98.7958 33.6986C98.051 33.6986 97.306 33.7017 96.5611 33.6946C95.9959 33.6892 95.8393 33.7516 95.2108 34.5767L92.9799 36.8916L90.2527 34.0365C89.9646 33.7348 90.0368 33.6929 89.4803 33.6929C88.7088 33.693 87.9361 33.6985 87.1641 33.6985C87.2401 33.9831 88.5563 35.2259 88.8607 35.5908C89.2989 36.1161 90.2489 36.8783 90.7156 37.4839C91.103 37.9866 91.8648 38.5528 91.8648 38.8073Z" fill="white"/>
</g>
<defs>
<clipPath id="clip0_268_11511">
<rect width="192" height="36" fill="white" transform="translate(11 6)"/>
</clipPath>
</defs>
</svg>
