<svg width="129" height="102" viewBox="0 0 129 102" fill="none" xmlns="http://www.w3.org/2000/svg">
<g clip-path="url(#clip0_268_11571)">
<path d="M110.728 41.358C111.363 43.7799 113.846 45.233 116.298 44.567C118.72 43.9312 120.173 41.4488 119.507 38.9967C118.871 36.5748 116.389 35.1217 113.937 35.7877C111.545 36.4538 110.092 38.9362 110.728 41.358Z" fill="white"/>
<path d="M104.581 46.202C106.216 45.7479 107.215 44.0526 106.761 42.4179C106.307 40.7831 104.612 39.7841 102.977 40.2382C101.342 40.6923 100.343 42.3876 100.797 44.0223C101.221 45.6571 102.916 46.6258 104.581 46.202Z" fill="white"/>
<path d="M95.4988 47.7762C96.7098 47.4432 97.4363 46.202 97.1033 44.991C96.7703 43.7801 95.5291 43.0535 94.3182 43.3865C93.1072 43.7196 92.3807 44.9608 92.7137 46.1717C93.0467 47.3826 94.2879 48.1092 95.4988 47.7762Z" fill="white"/>
<path d="M88.4462 48.8358C89.203 48.6239 89.6571 47.8368 89.4755 47.08C89.2938 46.3232 88.4765 45.8691 87.7196 46.0507C86.9628 46.2626 86.5087 47.0497 86.6903 47.8065C86.872 48.5634 87.6591 49.0175 88.4462 48.8358Z" fill="white"/>
<path d="M107.365 32.1548C108.515 34.1226 111.028 34.8189 112.996 33.6685C114.963 32.5181 115.66 30.0054 114.509 28.0377C113.359 26.0699 110.846 25.3737 108.879 26.524C106.911 27.6744 106.214 30.1871 107.365 32.1548Z" fill="white"/>
<path d="M98.253 37.3924C99.0401 38.785 100.796 39.2391 102.189 38.452C103.581 37.6648 104.035 35.909 103.248 34.5164C102.461 33.1239 100.705 32.6698 99.3126 33.4569C97.9503 34.244 97.4659 35.9998 98.253 37.3924Z" fill="white"/>
<path d="M91.7765 38.7546C90.7775 39.3298 90.4445 40.571 91.0197 41.57C91.5949 42.569 92.8361 42.902 93.8351 42.3268C94.8341 41.7516 95.1671 40.5104 94.592 39.5114C94.047 38.5427 92.7756 38.2097 91.7765 38.7546Z" fill="white"/>
<path d="M85.9929 42.9324C85.3572 43.2957 85.115 44.1131 85.4783 44.7488C85.8416 45.3845 86.659 45.6267 87.2947 45.2634C87.9304 44.9002 88.1726 44.0828 87.8093 43.447C87.446 42.8113 86.6287 42.5691 85.9929 42.9324Z" fill="white"/>
<path d="M106.913 24.0722C108.366 22.6191 108.366 20.2881 106.913 18.835C105.46 17.3818 103.129 17.3818 101.676 18.835C100.223 20.2881 100.223 22.6191 101.676 24.0722C103.099 25.5253 105.46 25.5253 106.913 24.0722Z" fill="white"/>
<path d="M97.8601 27.8562C96.8005 26.7966 95.1052 26.7966 94.0759 27.8562C93.0164 28.9158 93.0164 30.6111 94.0759 31.6403C95.1355 32.6999 96.8308 32.6999 97.8601 31.6403C98.9196 30.5808 98.9196 28.8855 97.8601 27.8562Z" fill="white"/>
<path d="M88.1738 34.9098C87.4473 35.6364 87.4473 36.8171 88.1738 37.5436C88.9004 38.2702 90.081 38.2702 90.8076 37.5436C91.5341 36.8171 91.5341 35.6364 90.8076 34.9401C90.081 34.1833 88.9004 34.1833 88.1738 34.9098Z" fill="white"/>
<path d="M83.6016 42.1147C84.0859 42.5991 84.873 42.5991 85.3574 42.1147C85.8418 41.6304 85.8418 40.8433 85.3574 40.3589C84.873 39.8745 84.0859 39.8745 83.6016 40.3589C83.1172 40.8433 83.1172 41.6304 83.6016 42.1147Z" fill="white"/>
<path d="M93.8641 17.8357C95.5292 18.8044 97.6786 18.2292 98.6473 16.5642C99.616 14.8992 99.0408 12.7498 97.3758 11.781C95.7108 10.8123 93.5614 11.3875 92.5927 13.0525C91.5936 14.7175 92.1688 16.8669 93.8641 17.8357Z" fill="white"/>
<path d="M87.5982 23.7393C86.9019 24.9199 87.3257 26.4336 88.5064 27.1299C89.687 27.8262 91.2007 27.4023 91.897 26.2217C92.5932 25.041 92.1694 23.5274 90.9888 22.8311C89.7778 22.1348 88.2642 22.5586 87.5982 23.7393Z" fill="white"/>
<path d="M85.962 31.4889C85.1749 31.0348 84.1759 31.3072 83.7218 32.0943C83.2677 32.8814 83.5401 33.8804 84.3272 34.3345C85.1143 34.7886 86.1133 34.5162 86.5674 33.7291C87.0215 32.942 86.7491 31.943 85.962 31.4889Z" fill="white"/>
<path d="M82.1488 38.0887C81.6038 37.786 80.9076 37.9676 80.6048 38.5125C80.3021 39.0574 80.4837 39.7537 81.0286 40.0565C81.5736 40.3592 82.2698 40.1776 82.5726 39.6326C82.8753 39.0877 82.6937 38.3914 82.1488 38.0887Z" fill="white"/>
<path d="M84.6614 13.8097C86.4172 14.2941 88.2336 13.2345 88.6877 11.4787C89.1721 9.72285 88.1125 7.90646 86.3567 7.45236C84.6009 6.99826 82.7845 8.02755 82.3304 9.78339C81.846 11.5392 82.9056 13.3556 84.6614 13.8097Z" fill="white"/>
<path d="M81.8782 24.1629C83.0891 24.4959 84.3303 23.7693 84.6633 22.5584C84.9963 21.3475 84.2698 20.1063 83.0588 19.7733C81.8479 19.4403 80.6067 20.1668 80.2737 21.3777C79.971 22.5887 80.6673 23.8299 81.8782 24.1629Z" fill="white"/>
<path d="M79.6962 32.3368C80.5136 32.5487 81.3612 32.0644 81.5731 31.247C81.7851 30.4296 81.3007 29.582 80.4833 29.37C79.6659 29.1581 78.8183 29.6425 78.6064 30.4599C78.3945 31.247 78.8788 32.0946 79.6962 32.3368Z" fill="white"/>
<path d="M77.2749 37.4223C77.1235 37.9672 77.4565 38.5424 78.0014 38.6938C78.5463 38.8452 79.1215 38.5122 79.2729 37.9672C79.4243 37.4223 79.0913 36.8471 78.5463 36.6958C77.9712 36.5444 77.396 36.8774 77.2749 37.4223Z" fill="white"/>
<path d="M74.6718 12.2958C76.3671 12.2958 77.7597 10.9033 77.7597 9.20798C77.7597 7.51268 76.3671 6.12012 74.6718 6.12012C72.9766 6.12012 71.584 7.51268 71.584 9.20798C71.584 10.9336 72.9766 12.2958 74.6718 12.2958Z" fill="white"/>
<path d="M74.6699 18.8955C73.5195 18.8955 72.6113 19.8037 72.6113 20.9541C72.6113 22.1045 73.5195 23.0127 74.6699 23.0127C75.8203 23.0127 76.7285 22.1045 76.7285 20.9541C76.7285 19.834 75.8203 18.8955 74.6699 18.8955Z" fill="white"/>
<path d="M76.125 30.1269C76.125 29.3398 75.4892 28.6738 74.6719 28.6738C73.8545 28.6738 73.2188 29.3096 73.2188 30.1269C73.2188 30.9443 73.8545 31.5801 74.6719 31.5801C75.4892 31.5801 76.125 30.914 76.125 30.1269Z" fill="white"/>
<path d="M74.6709 36.3027C74.1562 36.3027 73.7324 36.7266 73.7324 37.2412C73.7324 37.7558 74.1562 38.1797 74.6709 38.1797C75.1855 38.1797 75.6094 37.7558 75.6094 37.2412C75.6094 36.7266 75.1855 36.3027 74.6709 36.3027Z" fill="white"/>
<path d="M64.5895 13.4459C66.1334 13.0221 67.0416 11.4479 66.6178 9.90392C66.1939 8.35999 64.6197 7.45179 63.0758 7.87562C61.5319 8.29944 60.6237 9.87365 61.0475 11.4176C61.4713 12.9312 63.0758 13.8394 64.5895 13.4459Z" fill="white"/>
<path d="M65.1045 22.4674C65.377 23.4665 66.376 24.0416 67.375 23.7692C68.3741 23.4967 68.9492 22.4977 68.6768 21.4987C68.4043 20.4997 67.4053 19.9245 66.4063 20.197C65.4376 20.4694 64.8321 21.4987 65.1045 22.4674Z" fill="white"/>
<path d="M67.9815 31.2167C68.1632 31.9433 68.92 32.3671 69.6163 32.1552C70.3428 31.9736 70.7667 31.2167 70.5547 30.5204C70.3731 29.7939 69.6163 29.3701 68.92 29.582C68.1934 29.7636 67.7999 30.4902 67.9815 31.2167Z" fill="white"/>
<path d="M70.3121 37.9373C70.4332 38.3914 70.8873 38.6335 71.3111 38.5124C71.7652 38.3914 72.0074 37.9373 71.8863 37.5134C71.7652 37.0593 71.3111 36.8171 70.8873 36.9382C70.4635 37.0593 70.191 37.4832 70.3121 37.9373Z" fill="white"/>
<path d="M55.1153 17.17C56.3867 16.4434 56.8408 14.7784 56.1143 13.5069C55.3877 12.2354 53.7227 11.7813 52.4512 12.5079C51.1798 13.2344 50.7257 14.8995 51.4522 16.1709C52.209 17.4727 53.8438 17.8965 55.1153 17.17Z" fill="white"/>
<path d="M60.4737 26.4332C61.2608 25.9791 61.5333 24.9801 61.0792 24.193C60.6251 23.4058 59.6261 23.1334 58.8389 23.5875C58.0518 24.0416 57.7794 25.0406 58.2335 25.8277C58.6573 26.6148 59.6866 26.8873 60.4737 26.4332Z" fill="white"/>
<path d="M64.8328 34.032C65.4382 33.699 65.6199 32.9422 65.2869 32.3367C64.9539 31.7312 64.197 31.5496 63.5916 31.8826C62.9861 32.2156 62.8045 32.9724 63.1375 33.5779C63.5008 34.1531 64.2576 34.365 64.8328 34.032Z" fill="white"/>
<path d="M68.4047 38.7548C68.1928 38.4218 67.7689 38.3007 67.4057 38.4823C67.0727 38.6942 66.9516 39.1181 67.1332 39.4813C67.3451 39.8143 67.7689 39.9354 68.1019 39.7538C68.4955 39.5419 68.6166 39.0878 68.4047 38.7548Z" fill="white"/>
<path d="M46.8496 23.2548C47.8183 22.2861 47.8183 20.7119 46.8496 19.7432C45.8808 18.7744 44.3066 18.7744 43.3379 19.7432C42.3691 20.7119 42.3691 22.2861 43.3379 23.2548C44.3369 24.2236 45.9111 24.2236 46.8496 23.2548Z" fill="white"/>
<path d="M54.448 28.7947C53.8728 28.2195 52.9646 28.2195 52.4197 28.7947C51.8445 29.3699 51.8445 30.2781 52.4197 30.823C52.9949 31.3982 53.9031 31.3982 54.448 30.823C54.9929 30.2478 54.9929 29.3396 54.448 28.7947Z" fill="white"/>
<path d="M60.7146 35.4851C60.2605 35.031 59.5642 35.031 59.1101 35.4851C58.656 35.9392 58.656 36.6355 59.1101 37.0896C59.5642 37.5437 60.2605 37.5437 60.7146 37.0896C61.1384 36.6355 61.1384 35.9392 60.7146 35.4851Z" fill="white"/>
<path d="M65.3762 40.8738C65.134 40.6316 64.7404 40.6618 64.5285 40.904C64.2864 41.1462 64.3166 41.5398 64.5588 41.7517C64.801 41.9636 65.1643 41.9636 65.4065 41.7517C65.6184 41.5095 65.6184 41.1159 65.3762 40.8738Z" fill="white"/>
<path d="M37.2845 32.0644C38.3743 32.7002 39.7669 32.3066 40.3724 31.2471C41.0081 30.1572 40.6145 28.7647 39.555 28.1592C38.4651 27.5235 37.0726 27.917 36.4671 28.9766C35.8314 30.0361 36.1947 31.4287 37.2845 32.0644Z" fill="white"/>
<path d="M49.2715 34.9708C48.6661 34.6377 47.9395 34.8497 47.5762 35.4248C47.2432 36.0303 47.4551 36.7569 48.0303 37.1201C48.6358 37.4532 49.3623 37.2715 49.7256 36.666C50.0586 36.0606 49.8467 35.3038 49.2715 34.9708Z" fill="white"/>
<path d="M57.112 39.7233C56.6276 39.4508 55.9918 39.6022 55.7194 40.1168C55.4469 40.6012 55.5983 41.237 56.1129 41.5094C56.5973 41.7819 57.233 41.6305 57.5055 41.1461C57.778 40.6618 57.5963 40.026 57.112 39.7233Z" fill="white"/>
<path d="M116.57 46.0503C113.846 46.0503 111.605 48.2602 111.605 51.0151C111.605 53.7397 113.815 55.9799 116.57 55.9799C119.295 55.9799 121.505 53.77 121.535 51.0454C121.505 48.2905 119.295 46.0503 116.57 46.0503Z" fill="white"/>
<path d="M108.365 51.0151C108.365 49.0473 106.791 47.4731 104.823 47.4731C102.855 47.4731 101.281 49.0473 101.281 51.0151C101.281 52.9829 102.855 54.5571 104.823 54.5571C106.761 54.5571 108.365 52.9829 108.365 51.0151Z" fill="white"/>
<path d="M95.6523 48.5933C94.3203 48.5933 93.2305 49.6831 93.2305 51.0151C93.2305 52.3471 94.3203 53.437 95.6523 53.437C96.9843 53.437 98.0742 52.3471 98.0742 51.0151C98.0742 49.6831 96.9843 48.5933 95.6523 48.5933Z" fill="white"/>
<path d="M90.1113 51.0156C90.1113 50.1377 89.415 49.4414 88.5371 49.4414C87.6592 49.4414 86.9629 50.1377 86.9629 51.0156C86.9629 51.8935 87.6592 52.5898 88.5371 52.5898C89.415 52.5898 90.1113 51.8935 90.1113 51.0156Z" fill="white"/>
<path d="M116.296 57.4332C113.875 56.7672 111.392 58.2204 110.726 60.6422C110.06 63.0641 111.513 65.5465 113.935 66.2125C116.357 66.8785 118.839 65.4254 119.505 63.0035V62.9732C120.141 60.5817 118.688 58.0993 116.296 57.4332Z" fill="white"/>
<path d="M102.977 61.7626C104.612 62.2167 106.307 61.2176 106.761 59.5829C107.215 57.9481 106.216 56.2528 104.582 55.7987C102.947 55.3446 101.251 56.3437 100.797 57.9784C100.343 59.6132 101.312 61.3085 102.977 61.7626Z" fill="white"/>
<path d="M94.3176 58.614C95.5286 58.9471 96.7698 58.2205 97.1028 57.0096C97.4358 55.7986 96.7092 54.5574 95.4983 54.2244C94.2874 53.8914 93.0462 54.618 92.7132 55.8289C92.4104 57.0398 93.1067 58.281 94.3176 58.614Z" fill="white"/>
<path d="M87.6907 55.9802C88.4475 56.1921 89.2346 55.738 89.4465 54.9509C89.6584 54.1941 89.2043 53.407 88.4172 53.1951C87.6604 52.9832 86.8733 53.4372 86.6614 54.2244C86.4495 54.9509 86.9036 55.7683 87.6907 55.9802Z" fill="white"/>
<path d="M112.996 68.3316C111.028 67.1813 108.515 67.8776 107.365 69.8453C106.214 71.8131 106.911 74.3257 108.879 75.4761C110.846 76.6265 113.359 75.9302 114.509 73.9625C115.629 71.9947 114.963 69.482 112.996 68.3316Z" fill="white"/>
<path d="M103.28 67.4837C104.067 66.0911 103.613 64.3353 102.221 63.5482C100.828 62.7611 99.0721 63.2152 98.285 64.6077C97.4979 66.0003 97.952 67.7562 99.3446 68.5433C100.707 69.3304 102.463 68.846 103.28 67.4837Z" fill="white"/>
<path d="M94.592 62.4889C95.1671 61.4899 94.8341 60.2487 93.8351 59.6735C92.8361 59.0983 91.5949 59.4313 91.0197 60.4304C90.4445 61.4294 90.7775 62.6706 91.7765 63.2458C92.7756 63.7907 94.0168 63.4577 94.592 62.4889Z" fill="white"/>
<path d="M87.84 58.5531C88.2033 57.9174 87.9914 57.1 87.3556 56.7065C86.7199 56.3432 85.9025 56.5551 85.509 57.1908C85.1154 57.8266 85.3576 58.644 85.9934 59.0375H86.0236C86.6594 59.4008 87.4767 59.1889 87.84 58.5531Z" fill="white"/>
<path d="M101.645 77.928C100.191 79.3811 100.191 81.7121 101.645 83.1652C103.098 84.6183 105.429 84.6183 106.882 83.1652C108.335 81.7121 108.335 79.3811 106.882 77.928C105.459 76.5051 103.098 76.5051 101.645 77.928Z" fill="white"/>
<path d="M97.8601 74.1438C98.9196 73.0842 98.9196 71.3889 97.8601 70.3596C96.8005 69.3001 95.1052 69.3001 94.0759 70.3596C93.0164 71.4192 93.0164 73.1145 94.0759 74.1438C95.1052 75.2033 96.8005 75.2033 97.8601 74.1438Z" fill="white"/>
<path d="M90.8076 67.0903C91.5341 66.3637 91.5341 65.1831 90.8076 64.4565C90.081 63.73 88.9004 63.73 88.1738 64.4565C87.4473 65.1831 87.4473 66.3638 88.1738 67.06C88.9004 67.8169 90.081 67.8169 90.8076 67.0903Z" fill="white"/>
<path d="M83.6016 61.6108C84.0859 62.0952 84.873 62.0952 85.3574 61.6108C85.8418 61.1265 85.8418 60.3393 85.3574 59.855C84.873 59.3706 84.0859 59.3706 83.6016 59.855C83.1172 60.3393 83.1172 61.1265 83.6016 61.6108Z" fill="white"/>
<path d="M93.8635 84.1643C92.1985 85.1331 91.6233 87.2825 92.5921 88.9475C93.5608 90.6125 95.7102 91.1877 97.3752 90.219C99.0403 89.2502 99.6154 87.1008 98.6467 85.4358C97.678 83.7708 95.5286 83.1956 93.8635 84.1643Z" fill="white"/>
<path d="M91.8657 75.8091C91.1694 74.6284 89.686 74.2046 88.4751 74.9009C87.2945 75.5972 86.8706 77.0806 87.5669 78.2915C88.2632 79.4721 89.7466 79.896 90.9575 79.1997C92.1382 78.5034 92.562 76.9897 91.8657 75.8091Z" fill="white"/>
<path d="M85.962 70.5113C86.7491 70.0572 87.0215 69.0582 86.5674 68.2711C86.1133 67.484 85.1143 67.2115 84.3272 67.6656C83.5401 68.1197 83.2677 69.1187 83.7218 69.9058C84.1759 70.6929 85.1749 70.9654 85.962 70.5113Z" fill="white"/>
<path d="M81.0286 61.9442C80.4837 62.2469 80.3021 62.9432 80.6048 63.4881C80.9076 64.033 81.6038 64.2147 82.1488 63.9119C82.6937 63.6092 82.8753 62.9129 82.5726 62.368C82.2698 61.8231 81.5736 61.6414 81.0286 61.9442Z" fill="white"/>
<path d="M84.6614 88.1907C82.9056 88.6751 81.846 90.4612 82.3304 92.217C82.8147 93.9729 84.6009 95.0325 86.3567 94.5481C88.1125 94.0637 89.1721 92.2776 88.6877 90.5217C88.2336 88.7659 86.4172 87.7063 84.6614 88.1907Z" fill="white"/>
<path d="M83.0588 82.1966C84.2698 81.8636 84.9963 80.6224 84.6633 79.4114C84.3303 78.2005 83.0891 77.474 81.8782 77.807C80.6673 78.14 79.971 79.3812 80.2737 80.5921C80.6067 81.8333 81.8479 82.5296 83.0588 82.1966Z" fill="white"/>
<path d="M81.5731 70.7533C81.3612 69.936 80.5136 69.4516 79.6962 69.6635C78.8788 69.8754 78.3945 70.7231 78.6064 71.5404C78.8183 72.3578 79.6659 72.8422 80.4833 72.6303C81.331 72.4486 81.8153 71.601 81.5731 70.7533Z" fill="white"/>
<path d="M79.2417 64.0327C79.0903 63.4878 78.5151 63.1548 77.9702 63.3061C77.4253 63.4575 77.0923 64.0327 77.2436 64.5776C77.395 65.1225 77.9399 65.4555 78.5151 65.3042C79.06 65.1528 79.393 64.5776 79.2417 64.0327Z" fill="white"/>
<path d="M74.6718 89.7041C72.9766 89.7041 71.584 91.0967 71.584 92.792C71.584 94.4873 72.9766 95.8798 74.6718 95.8798C76.3671 95.8798 77.7597 94.5175 77.7597 92.792C77.7597 91.0967 76.3974 89.7041 74.6718 89.7041Z" fill="white"/>
<path d="M72.6113 81.0464C72.6113 82.1968 73.5195 83.1049 74.6699 83.1049C75.8203 83.1049 76.7285 82.1968 76.7285 81.0464C76.7285 79.896 75.8203 78.9878 74.6699 78.9878C73.5498 78.9878 72.6113 79.896 72.6113 81.0464Z" fill="white"/>
<path d="M74.6719 73.2964C75.459 73.2964 76.125 72.6606 76.125 71.8433C76.125 71.0259 75.4892 70.3901 74.6719 70.3901C73.8848 70.3901 73.2188 71.0259 73.2188 71.8433C73.249 72.6606 73.8848 73.2964 74.6719 73.2964Z" fill="white"/>
<path d="M74.6709 63.8208C74.1562 63.8208 73.7324 64.2446 73.7324 64.7593C73.7324 65.2739 74.1562 65.6977 74.6709 65.6977C75.1855 65.6977 75.6094 65.2739 75.6094 64.7593C75.6094 64.2446 75.1855 63.8208 74.6709 63.8208Z" fill="white"/>
<path d="M64.5894 88.5542C63.0454 88.1304 61.4712 89.0689 61.0474 90.5825C60.6236 92.1265 61.562 93.7007 63.0757 94.1245C64.6196 94.5483 66.1938 93.6098 66.6177 92.0962C67.0415 90.5523 66.1333 88.978 64.5894 88.5542Z" fill="white"/>
<path d="M67.375 78.2007C66.376 77.9283 65.377 78.5337 65.1045 79.5025C64.8321 80.5015 65.4376 81.5005 66.4063 81.773C67.4053 82.0454 68.4043 81.44 68.6768 80.4712C68.9492 79.5025 68.3741 78.4732 67.375 78.2007Z" fill="white"/>
<path d="M69.6143 69.8453C68.8878 69.6637 68.1612 70.0875 67.9796 70.7838C67.7979 71.5103 68.2218 72.2369 68.918 72.4185C69.6446 72.6002 70.3712 72.1763 70.5528 71.48C70.7647 70.7838 70.3409 70.0572 69.6143 69.8453Z" fill="white"/>
<path d="M71.9174 64.4867C72.0385 64.0326 71.766 63.5785 71.3422 63.4877C70.9184 63.3969 70.434 63.6391 70.3432 64.0629C70.2524 64.4867 70.4946 64.9711 70.9184 65.0619C71.3422 65.183 71.7963 64.9408 71.9174 64.4867Z" fill="white"/>
<path d="M55.1151 84.8304C53.8436 84.1039 52.2088 84.5277 51.452 85.7992C50.7254 87.0706 51.1493 88.7054 52.4207 89.4622C53.6922 90.1888 55.327 89.7649 56.0838 88.4935C56.8406 87.222 56.3865 85.5872 55.1151 84.8304Z" fill="white"/>
<path d="M60.4737 75.567C59.6866 75.1129 58.6876 75.3853 58.2335 76.1724C57.7794 76.9595 58.0518 77.9586 58.8389 78.4127C59.6261 78.8668 60.6251 78.5943 61.0792 77.8072C61.5333 77.0201 61.2608 76.0211 60.4737 75.567Z" fill="white"/>
<path d="M63.6209 70.1179C64.2263 70.4509 64.9832 70.2693 65.3162 69.6638C65.6492 69.0584 65.4675 68.3015 64.8621 67.9685C64.2566 67.6355 63.4998 67.8172 63.1668 68.4226C62.8338 69.0281 63.0154 69.7849 63.6209 70.1179Z" fill="white"/>
<path d="M68.1629 62.2469C67.8299 62.0349 67.3758 62.156 67.1941 62.5193C66.9822 62.8523 67.1033 63.3064 67.4666 63.4881C67.7996 63.7 68.2537 63.5789 68.4353 63.2156C68.617 62.9129 68.4959 62.4588 68.1629 62.2469Z" fill="white"/>
<path d="M43.3672 78.7456C42.3984 79.7143 42.3984 81.2885 43.3672 82.2573C44.3359 83.226 45.9101 83.226 46.8789 82.2573C47.8476 81.2885 47.8476 79.7143 46.8789 78.7456C45.9101 77.7769 44.3359 77.7769 43.3672 78.7456Z" fill="white"/>
<path d="M52.4197 71.177C51.8445 71.7522 51.8445 72.6604 52.4197 73.2053C52.9949 73.7805 53.9031 73.7805 54.448 73.2053C54.9929 72.6301 55.0232 71.7219 54.448 71.177C53.9031 70.6018 52.9646 70.6018 52.4197 71.177Z" fill="white"/>
<path d="M59.1101 64.9104C58.656 65.3645 58.656 66.0608 59.1101 66.5149C59.5642 66.969 60.2605 66.969 60.7146 66.5149C61.1687 66.0608 61.1687 65.3645 60.7146 64.9104C60.2605 64.4563 59.5339 64.4563 59.1101 64.9104Z" fill="white"/>
<path d="M65.3762 60.2488C65.134 60.0066 64.7404 60.0368 64.5285 60.279C64.2864 60.5212 64.3166 60.9148 64.5588 61.1267C64.801 61.3386 65.1643 61.3386 65.4065 61.1267C65.6184 60.8845 65.6184 60.4909 65.3762 60.2488Z" fill="white"/>
<path d="M37.345 69.8753C36.2552 70.5111 35.8919 71.8734 36.5277 72.9632C37.1634 74.053 38.5257 74.4163 39.6155 73.7806C40.7054 73.1448 41.0686 71.7825 40.4329 70.6927C39.8274 69.6029 38.4349 69.2396 37.345 69.8753Z" fill="white"/>
<path d="M48.0303 64.8804C47.4551 65.2134 47.2432 65.9703 47.5762 66.5757C47.9092 67.1509 48.6661 67.3628 49.2715 67.0298C49.8467 66.6968 50.0586 65.94 49.7256 65.3345C49.3926 64.7593 48.6358 64.5474 48.0303 64.8804Z" fill="white"/>
<path d="M56.0835 60.4908C55.5992 60.7632 55.4175 61.399 55.7203 61.8833C55.9927 62.3677 56.6285 62.5493 57.1128 62.2466C57.5972 61.9742 57.7788 61.3384 57.4761 60.8541C57.2037 60.3697 56.5679 60.188 56.0835 60.4908Z" fill="white"/>
<path d="M32.743 43.8103H36.3757V57.7965H32.743V43.8103ZM34.9529 37.574C33.8328 37.2713 32.6824 37.9373 32.3797 39.0574C32.0769 40.1775 32.743 41.3279 33.8631 41.6306C34.9832 41.9334 36.1336 41.2674 36.4363 40.1472C36.739 39.0271 36.073 37.8465 34.9529 37.574ZM47.6071 58.0992C46.7292 58.0992 45.8512 57.9479 45.0339 57.5846C44.3073 57.2516 43.6716 56.737 43.1872 56.1012V64.7896H39.6452V43.8103H43.1569V45.7478C43.611 45.0515 44.2468 44.5066 45.0036 44.113C45.7907 43.7195 46.6686 43.5076 47.5768 43.5076C48.4547 43.5076 49.3024 43.6892 50.1198 44.0222C50.9371 44.3552 51.6637 44.8699 52.2692 45.4753C52.9049 46.1413 53.4195 46.9284 53.7525 47.7761C54.1461 48.7448 54.3277 49.7438 54.2975 50.7731C54.3277 51.8024 54.1158 52.8317 53.7223 53.8005C53.359 54.6481 52.8444 55.4352 52.2086 56.1012C51.028 57.3727 49.3327 58.0992 47.6071 58.0992ZM46.8805 54.7086C47.3952 54.7086 47.9098 54.6178 48.3942 54.4059C48.8483 54.194 49.2721 53.9215 49.6354 53.5583C49.9987 53.195 50.2711 52.7712 50.4528 52.3171C50.8463 51.3181 50.8463 50.2282 50.4528 49.2292C50.2711 48.7751 49.9684 48.3513 49.6354 47.988C49.2721 47.6247 48.8483 47.3523 48.3942 47.1404C47.9098 46.9284 47.3952 46.8376 46.8805 46.8376C45.8512 46.8376 44.8522 47.2614 44.0954 47.988C43.7321 48.3513 43.4597 48.7751 43.278 49.2292C42.8845 50.2282 42.8845 51.3181 43.278 52.2868C43.4597 52.7409 43.7321 53.1647 44.0954 53.528C44.8522 54.3151 45.8512 54.7389 46.8805 54.7086ZM56.901 43.8103H60.4126V45.9597C60.7154 45.2029 61.23 44.5671 61.9263 44.1433C62.6529 43.7498 63.44 43.5378 64.2876 43.5681C64.7417 43.5681 65.1655 43.6287 65.5894 43.7195C65.9526 43.8103 66.3159 43.9314 66.6489 44.113L65.3472 47.6247C65.105 47.4734 64.8325 47.3523 64.5601 47.2614C64.1968 47.1706 63.8335 47.1101 63.4702 47.1101C62.6529 47.0798 61.8658 47.3523 61.2603 47.8669C60.7154 48.3816 60.4429 49.2292 60.4429 50.3796V57.7662H56.901V43.8103ZM74.5502 58.0992C73.5512 58.0992 72.5522 57.9176 71.6137 57.5241C70.7358 57.1608 69.9487 56.6159 69.2524 55.9499C67.8901 54.5876 67.1333 52.7409 67.1333 50.8034C67.1333 49.8347 67.3149 48.8659 67.6782 47.9577C68.0415 47.0798 68.5561 46.2927 69.2221 45.6267C72.1586 42.781 76.8207 42.781 79.7572 45.6267C81.1195 46.989 81.9066 48.8357 81.9066 50.7731C81.9066 51.7419 81.725 52.7106 81.3314 53.5885C80.9681 54.4665 80.4232 55.2536 79.7875 55.9196C79.1215 56.5856 78.3344 57.1305 77.4262 57.4938C76.5483 57.8873 75.5492 58.0992 74.5502 58.0992ZM74.5805 54.7086C75.0951 54.7086 75.6098 54.6178 76.0942 54.4059C76.5483 54.194 76.9418 53.9215 77.3051 53.5885C77.6684 53.2253 77.9408 52.8014 78.1225 52.3473C78.516 51.3483 78.516 50.2585 78.1225 49.2898C77.9408 48.8357 77.6684 48.4118 77.3051 48.0485C76.9418 47.6853 76.5483 47.4128 76.0942 47.2312C75.1254 46.8073 74.0356 46.8073 73.0971 47.2312C72.643 47.4431 72.2495 47.7155 71.8862 48.0485C71.5229 48.4118 71.2505 48.8357 71.0688 49.2898C70.6753 50.2888 70.6753 51.3786 71.0688 52.3473C71.2505 52.8014 71.5229 53.2253 71.8862 53.5885C72.2495 53.9518 72.643 54.2243 73.0971 54.4059C73.5512 54.5876 74.0659 54.7086 74.5805 54.7086ZM7.46484 43.8103H11.0976L13.913 52.7409L17.2431 43.8103H20.3915L23.661 52.7409L26.5975 43.8103H30.2303L25.4774 57.7965H22.1171L18.787 48.6843L15.4267 57.7965H12.0058L7.46484 43.8103Z" fill="white"/>
</g>
<defs>
<clipPath id="clip0_268_11571">
<rect width="114.069" height="89.76" fill="white" transform="translate(7.46484 6.12012)"/>
</clipPath>
</defs>
</svg>
