<svg width="114" height="56" viewBox="0 0 114 56" fill="none" xmlns="http://www.w3.org/2000/svg">
<g clip-path="url(#clip0_268_12496)">
<path fill-rule="evenodd" clip-rule="evenodd" d="M45.9677 8.69039H43.1971C40.936 8.69039 40.8312 8.80843 40.3855 10.6602C40.3841 10.6687 35.7429 32.0931 35.365 33.8452L29.6965 10.7085C29.2083 8.8255 29.0852 8.68896 26.807 8.68896H22.1092C19.8296 8.68896 19.7419 8.85963 19.2042 10.6943L13.196 33.4499L8.33262 10.6943C7.89113 8.84256 7.78642 8.69039 5.52523 8.69039H2.56361C0.299583 8.69039 -0.347078 8.80843 0.165157 11.0797L7.96613 44.6285C8.43591 46.4632 8.55902 46.6196 10.8188 46.6196H14.6761C17.025 46.6196 17.1128 46.4447 17.6703 44.492L24.2713 19.495L30.7931 44.8049C31.294 46.4447 31.4002 46.6196 33.6614 46.6196H37.4479C39.7785 46.6196 39.8846 46.4091 40.394 44.4237L48.4836 10.6061C48.86 8.84256 48.1936 8.69039 45.9677 8.69039ZM77.8537 8.69039H75.1199C72.8587 8.69039 72.7497 8.78994 72.7497 11.0797V33.0388L58.8854 10.3786C57.8878 8.80843 57.66 8.69039 55.4172 8.69039H52.5235C50.2793 8.69039 50.1222 8.8255 50.1222 11.0797V44.2132C50.1222 46.4987 50.2623 46.6196 52.5065 46.6196H55.2234C57.5553 46.6196 57.6416 46.4632 57.6416 44.2075V22.7747L71.3078 44.9883C72.3507 46.604 72.4724 46.6196 74.718 46.6196H77.8551C80.1517 46.6196 80.2705 46.5158 80.2705 44.1876V11.0826C80.2705 8.79137 80.1517 8.69181 77.8551 8.69181" fill="white"/>
<path fill-rule="evenodd" clip-rule="evenodd" d="M60.4629 46.6256V33.5767L68.7421 46.6256H60.4629Z" fill="#797979"/>
<path fill-rule="evenodd" clip-rule="evenodd" d="M110.921 29.4208C109.912 27.7738 108.497 26.4583 106.717 25.5097C104.959 24.5738 102.216 23.6579 98.5669 22.7861C94.9827 21.9328 92.7045 21.1093 91.7975 20.3413C91.114 19.7625 90.7829 19.0883 90.7829 18.2819C90.7829 17.3973 91.1338 16.7118 91.8569 16.1842C93.0356 15.3209 94.7011 14.8842 96.8066 14.8842C98.8414 14.8842 100.381 15.2882 101.38 16.0874C102.031 16.6066 102.539 17.3603 102.898 18.3374C103.484 19.9971 103.484 20.2958 105.764 20.2133L109.007 20.0938C111.25 19.9971 111.567 19.7141 111.194 17.6874C110.722 15.1004 109.523 12.9429 107.6 11.2576C105.205 9.15411 101.602 8.08887 96.8901 8.08887C94.0134 8.08887 91.5159 8.53402 89.4712 9.41438C87.4109 10.299 85.8091 11.6103 84.7111 13.307C83.6145 15.0023 83.0584 16.8526 83.0584 18.8039C83.0584 21.8332 84.2371 24.4345 86.5633 26.5379C88.2048 28.0242 91.0871 29.2914 95.1242 30.304C98.2231 31.0819 100.231 31.6309 101.096 31.9324C102.321 32.3719 103.187 32.8867 103.667 33.4642C104.142 34.0387 104.374 34.7171 104.374 35.5378C104.374 36.8362 103.807 37.9456 102.638 38.9255C101.472 39.904 99.6975 40.4003 97.3627 40.4003C95.1624 40.4003 93.3979 39.8414 92.113 38.7392C91.1706 37.9285 90.4532 36.7609 89.9693 35.2562C89.4783 33.4755 89.392 33.2466 87.111 33.4613L84.029 33.7543C81.7834 33.952 81.5372 34.1454 81.9391 35.9388C81.9391 35.9431 83.1135 41.1925 86.2832 44.0398C88.8104 46.3097 92.5446 47.4034 97.2891 47.4034C100.538 47.4034 103.294 46.9354 105.482 46.0138C107.688 45.0823 109.42 43.6402 110.628 41.7244C111.834 39.8115 112.445 37.7294 112.445 35.5392C112.445 33.1285 111.932 31.0691 110.921 29.4208Z" fill="white"/>
</g>
<defs>
<clipPath id="clip0_268_12496">
<rect width="113.201" height="39.8222" fill="white" transform="translate(0 8.08887)"/>
</clipPath>
</defs>
</svg>
