<?xml version="1.0" encoding="UTF-8"?>
<svg id="Layer_2" data-name="Layer 2" xmlns="http://www.w3.org/2000/svg" viewBox="0 0 1920.59 1081">
  <defs>
    <style>
      .cls-1 {
        stroke-width: 1px;
      }

      .cls-1, .cls-2, .cls-3 {
        fill: none;
        stroke: #231f20;
        stroke-miterlimit: 10;
      }

      .cls-2 {
        stroke-width: 1px;
      }

      .cls-3 {
        stroke-width: 1px;
      }
    </style>
  </defs>
  <g id="Layer_1-2" data-name="Layer 1">
    <g>
      <g>
        <line class="cls-1" x1=".59" y1="903.73" x2="1090.38" y2="903.73"/>
        <line class="cls-1" x1=".59" y1="722.12" x2="1090.38" y2="722.12"/>
        <line class="cls-1" x1=".59" y1="540.5" x2="1090.38" y2="540.5"/>
        <line class="cls-1" x1=".59" y1="358.88" x2="1090.38" y2="358.88"/>
        <line class="cls-1" x1=".59" y1="177.27" x2="1090.38" y2="177.27"/>
        <line class="cls-1" x1=".59" y1="268.08" x2="1090.38" y2="268.08"/>
        <line class="cls-1" x1=".59" y1="449.69" x2="1090.38" y2="449.69"/>
        <line class="cls-1" x1=".59" y1="631.31" x2="1090.38" y2="631.31"/>
        <line class="cls-1" x1=".59" y1="812.92" x2="1090.38" y2="812.92"/>
        <line class="cls-1" x1=".59" y1="994.54" x2="1090.38" y2="994.54"/>
        <line class="cls-1" x1=".59" y1="86.46" x2="1090.38" y2="86.46"/>
        <polyline class="cls-2" points=".09 1080.5 1090.88 1080.5 1090.88 1064.45"/>
        <line class="cls-3" y1=".5" x2="1090.88" y2=".5"/>
        <line class="cls-1" x1="838.89" y1=".5" x2="838.89" y2="1080.5"/>
        <line class="cls-1" x1="671.23" y1=".5" x2="671.23" y2="1080.5"/>
        <line class="cls-1" x1="503.57" y1=".5" x2="503.57" y2="1080.5"/>
        <line class="cls-1" x1="335.91" y1=".5" x2="335.91" y2="1080.5"/>
        <line class="cls-1" x1="168.25" y1=".5" x2="168.25" y2="1080.5"/>
        <line class="cls-1" x1="84.42" y1=".5" x2="84.42" y2="1080.5"/>
        <line class="cls-1" x1=".59" y1=".5" x2=".59" y2="1080.5"/>
        <line class="cls-1" x1="252.08" y1=".5" x2="252.08" y2="1080.5"/>
        <line class="cls-1" x1="419.74" y1=".5" x2="419.74" y2="1080.5"/>
        <line class="cls-1" x1="587.4" y1=".5" x2="587.4" y2="1080.5"/>
        <line class="cls-1" x1="755.06" y1=".5" x2="755.06" y2="1080.5"/>
        <line class="cls-1" x1="922.72" y1=".5" x2="922.72" y2="1080.5"/>
        <line class="cls-1" x1="1006.55" y1=".5" x2="1006.55" y2="1080.5"/>
      </g>
      <path class="cls-1" d="M1920.09.5v1080h-808.34c-7.06-5.22-14.01-10.57-20.86-16.05V.5h829.2Z"/>
      <path class="cls-1" d="M1920.09,65.62v918.02c-45.31,39.37-96.49,72.16-152.03,96.86h-492.55c-69.31-30.82-131.82-74.25-184.62-127.34V96.1c36.64-36.85,77.97-69.05,123.01-95.6h615.78c32.14,18.95,62.4,40.78,90.41,65.12Z"/>
      <path class="cls-1" d="M1920.09,182.97v683.32c-96.35,112.18-239.17,183.34-398.3,183.34-178.2,0-335.95-89.24-430.9-225.38V225.01C1180.42,96.65,1325.77,9.98,1491.47.5h60.64c146.88,8.4,277.79,77.47,367.98,182.47Z"/>
      <path class="cls-1" d="M1920.09,333.08v383.1c-71.5,148.06-223.17,250.45-398.3,250.45-209.82,0-385.97-146.96-430.9-343.36v-197.28c44.93-196.4,221.08-343.36,430.9-343.36,175.13,0,326.8,102.39,398.3,250.45Z"/>
      <path class="cls-1" d="M1521.78,883.63c-197.95,0-359-161.05-359-359s161.05-359,359-359,359,161.05,359,359-161.05,359-359,359Z"/>
      <path class="cls-1" d="M1521.78,800.63c-152.19,0-276-123.81-276-276s123.81-276,276-276,276,123.81,276,276-123.81,276-276,276Z"/>
      <path class="cls-1" d="M1521.78,717.63c-106.42,0-193-86.58-193-193s86.58-193,193-193,193,86.58,193,193-86.58,193-193,193Z"/>
      <path class="cls-1" d="M1521.78,634.63c-60.65,0-110-49.35-110-110s49.35-110,110-110,110,49.35,110,110-49.35,110-110,110Z"/>
      <circle class="cls-1" cx="1521.78" cy="524.63" r="27"/>
    </g>
  </g>
</svg>