<svg width="1729" height="1117" viewBox="0 0 1729 1117" fill="none" xmlns="http://www.w3.org/2000/svg">
<g clip-path="url(#clip0_250_1777)">
<path d="M-127.391 933.826H998.38" stroke="#1E222B" stroke-miterlimit="10"/>
<path d="M-127.391 746.168H998.38" stroke="#1E222B" stroke-miterlimit="10"/>
<path d="M-127.391 558.5H998.38" stroke="#1E222B" stroke-miterlimit="10"/>
<path d="M-127.391 370.832H998.38" stroke="#1E222B" stroke-miterlimit="10"/>
<path d="M-127.391 183.174H998.38" stroke="#1E222B" stroke-miterlimit="10"/>
<path d="M-127.391 277.008H998.38" stroke="#1E222B" stroke-miterlimit="10"/>
<path d="M-127.391 464.666H998.38" stroke="#1E222B" stroke-miterlimit="10"/>
<path d="M-127.391 652.334H998.38" stroke="#1E222B" stroke-miterlimit="10"/>
<path d="M-127.391 839.992H998.38" stroke="#1E222B" stroke-miterlimit="10"/>
<path d="M-127.391 1027.66H998.38" stroke="#1E222B" stroke-miterlimit="10"/>
<path d="M-127.391 89.3394H998.38" stroke="#1E222B" stroke-miterlimit="10"/>
<path d="M-127.907 1116.48H998.896V1099.9" stroke="#1E222B" stroke-miterlimit="10"/>
<path d="M-128 0.516663H998.896" stroke="#1E222B" stroke-miterlimit="10"/>
<path d="M738.587 0.516663V1116.48" stroke="#1E222B" stroke-miterlimit="10"/>
<path d="M565.392 0.516663V1116.48" stroke="#1E222B" stroke-miterlimit="10"/>
<path d="M392.195 0.516663V1116.48" stroke="#1E222B" stroke-miterlimit="10"/>
<path d="M219 0.516663V1116.48" stroke="#1E222B" stroke-miterlimit="10"/>
<path d="M45.8047 0.516663V1116.48" stroke="#1E222B" stroke-miterlimit="10"/>
<path d="M132.402 0.516663V1116.48" stroke="#1E222B" stroke-miterlimit="10"/>
<path d="M305.598 0.516663V1116.48" stroke="#1E222B" stroke-miterlimit="10"/>
<path d="M478.794 0.516663V1116.48" stroke="#1E222B" stroke-miterlimit="10"/>
<path d="M651.989 0.516663V1116.48" stroke="#1E222B" stroke-miterlimit="10"/>
<path d="M825.185 0.516663V1116.48" stroke="#1E222B" stroke-miterlimit="10"/>
<path d="M911.782 0.516663V1116.48" stroke="#1E222B" stroke-miterlimit="10"/>
<path d="M1020.46 1116.48H1855.48V0.516663H998.907V1099.9M1020.46 1116.48C1013.16 1111.09 1005.98 1105.56 998.907 1099.9M1020.46 1116.48H998.907V1099.9" stroke="#1E222B" stroke-miterlimit="10"/>
<path d="M1855.48 67.8053V1016.4C1808.68 1057.08 1755.81 1090.96 1698.43 1116.48H1189.62C1118.02 1084.64 1053.45 1039.76 998.907 984.903V99.3004C1036.76 61.2232 1079.45 27.9508 1125.98 0.516663H1762.09C1795.29 20.0977 1826.55 42.6547 1855.48 67.8053Z" stroke="#1E222B" stroke-miterlimit="10"/>
<path d="M1855.48 189.063V895.14C1755.95 1011.06 1608.42 1084.59 1444.03 1084.59C1259.95 1084.59 1096.99 992.373 998.907 851.7V232.503C1091.39 99.8687 1241.54 10.3124 1412.71 0.516663H1475.35C1627.08 9.1964 1762.32 80.5666 1855.48 189.063Z" stroke="#1E222B" stroke-miterlimit="10"/>
<path d="M1855.48 344.172V740.031C1781.62 893.021 1624.95 998.821 1444.03 998.821C1227.29 998.821 1045.32 846.967 998.907 644.026V440.176C1045.32 237.236 1227.29 85.3818 1444.03 85.3818C1624.95 85.3818 1781.62 191.182 1855.48 344.172Z" stroke="#1E222B" stroke-miterlimit="10"/>
<path d="M1444.02 913.057C1239.54 913.057 1073.17 746.644 1073.17 542.101C1073.17 337.559 1239.54 171.146 1444.02 171.146C1648.51 171.146 1814.88 337.559 1814.88 542.101C1814.88 746.644 1648.51 913.057 1444.02 913.057Z" stroke="#1E222B" stroke-miterlimit="10"/>
<path d="M1444.02 827.293C1286.81 827.293 1158.91 699.36 1158.91 542.102C1158.91 384.843 1286.81 256.91 1444.02 256.91C1601.24 256.91 1729.13 384.843 1729.13 542.102C1729.13 699.36 1601.24 827.293 1444.02 827.293Z" stroke="#1E222B" stroke-miterlimit="10"/>
<path d="M1444.02 741.529C1334.09 741.529 1244.65 652.066 1244.65 542.101C1244.65 432.137 1334.09 342.674 1444.02 342.674C1553.96 342.674 1643.39 432.137 1643.39 542.101C1643.39 652.066 1553.96 741.529 1444.02 741.529Z" stroke="#1E222B" stroke-miterlimit="10"/>
<path d="M1444.02 655.765C1381.37 655.765 1330.39 604.771 1330.39 542.102C1330.39 479.432 1381.37 428.438 1444.02 428.438C1506.67 428.438 1557.65 479.432 1557.65 542.102C1557.65 604.771 1506.67 655.765 1444.02 655.765Z" stroke="#1E222B" stroke-miterlimit="10"/>
<path d="M1444.02 570.001C1459.43 570.001 1471.91 557.51 1471.91 542.102C1471.91 526.693 1459.43 514.202 1444.02 514.202C1428.62 514.202 1416.13 526.693 1416.13 542.102C1416.13 557.51 1428.62 570.001 1444.02 570.001Z" stroke="#1E222B" stroke-miterlimit="10"/>
</g>
<defs>
<clipPath id="clip0_250_1777">
<rect width="1729" height="1117" fill="white"/>
</clipPath>
</defs>
</svg>
