<svg width="167" height="56" viewBox="0 0 167 56" fill="none" xmlns="http://www.w3.org/2000/svg">
<path d="M15.5225 28.9124C14.729 28.9124 13.9625 28.6268 13.3673 28.1091C11.4555 26.4491 7.47867 22.9952 7.38398 16.5471C7.33889 12.5979 8.60138 9.23321 11.0317 6.79674C14.8327 2.99032 20.1036 2.6958 21.6276 2.6958C31.4615 2.6958 35.0235 7.86325 35.0822 12.2944C35.0822 15.0432 33.8828 16.9041 33.1704 17.8412C33.7565 18.1312 34.2525 18.5908 34.5817 19.1843C35.2129 20.3267 35.0912 21.7324 34.2751 22.7498L30.3163 27.6941C29.694 28.4661 28.7517 28.9213 27.7552 28.9213H15.5271L15.5225 28.9124ZM21.3255 11.6964C20.6943 11.6964 20.559 12.638 20.559 13.4279C20.559 13.9812 20.559 14.4944 20.6221 14.9585C20.6402 14.9228 20.6537 14.8915 20.6717 14.8558C21.5329 13.178 21.6141 12.1204 21.5645 11.7098C21.5059 11.7009 21.4247 11.6964 21.321 11.6964H21.3255Z" fill="white"/>
<path d="M10.6485 16.4981C10.5493 7.92584 17.732 5.93115 21.6231 5.93115C28.364 5.93115 31.7592 8.77816 31.8042 12.3347C31.8042 14.5034 30.6229 15.793 30.2081 16.3285H23.589C25.83 11.9732 25.0905 8.46579 21.3256 8.46579C19.1613 8.46579 17.2901 10.0499 17.2901 13.4324C17.2901 16.8149 17.3622 22.1966 31.7051 20.7374L27.7462 25.6817H15.5181C13.6965 24.102 10.7206 21.4692 10.6485 16.5026V16.4981Z" fill="white"/>
<path d="M33.2738 28.9123C31.4658 28.9123 30.0049 27.462 30.0049 25.6771V9.85345C30.0049 8.06403 31.4703 6.61821 33.2738 6.61821H40.1634C40.7676 6.61821 41.3358 6.78332 41.8272 7.06891C43.1303 6.41294 44.3973 6.22998 45.4028 6.22998C47.6978 6.22998 53.0273 7.21617 53.0273 16.3552C53.0273 18.1446 51.5619 19.5904 49.7584 19.5904H43.6849C43.5406 21.121 43.4324 23.1201 43.4324 25.6771C43.4324 27.4665 41.967 28.9123 40.1634 28.9123H33.2738Z" fill="white"/>
<path d="M33.2744 9.84923H40.164L40.2362 11.3352C39.5463 12.2857 38.3154 15.3023 37.8014 18.2965L38.9556 18.417C39.889 12.5981 42.1028 9.45654 45.4034 9.45654C48.7039 9.45654 49.759 12.2322 49.759 16.3465H42.8694C42.8694 14.6909 43.1399 13.3031 42.3283 13.3031C41.174 13.3031 40.164 17.712 40.164 25.6729H33.2744V9.84923Z" fill="white"/>
<path d="M54.4932 28.9123C53.6951 28.9123 52.9241 28.6222 52.3244 28.1001C50.6877 26.6632 47.2789 23.6823 47.2113 18.1177C47.1662 14.7174 48.2574 11.7945 50.3766 9.67043C53.6726 6.35934 58.2175 6.10498 59.5341 6.10498C67.6051 6.10498 71.2212 10.4112 71.2212 14.6728C71.2212 16.1052 70.8289 17.4528 70.1391 18.6398C70.369 18.8585 70.5674 19.1084 70.7297 19.394C71.3384 20.4694 71.2798 21.7992 70.5719 22.8166L67.2985 27.5155C66.6898 28.3902 65.6798 28.9123 64.6066 28.9123H54.4977H54.4932Z" fill="white"/>
<path d="M50.485 18.0778C50.3858 10.9915 56.342 9.33594 59.5389 9.33594C65.1479 9.33594 67.9525 11.7233 67.9525 14.6685C67.9525 17.6137 65.1479 20.0011 61.7031 20.0011C59.3405 20.0011 57.2979 18.881 56.2158 17.2254L55.3546 18.0287C57.5414 21.8753 64.3814 21.1702 67.8758 20.9739L64.6024 25.6728H54.4934C52.9919 24.3608 50.5346 22.1921 50.4805 18.0778H50.485ZM60.6706 15.0835C61.5318 13.6198 61.5543 12.0401 60.7202 11.5761C59.886 11.0897 58.5063 11.8929 57.6451 13.3789C56.7839 14.8872 56.7614 16.4713 57.6181 16.9309C58.4071 17.395 59.7823 16.5918 60.6706 15.0835Z" fill="white"/>
<path d="M76.6587 29.3186C74.6207 29.3186 72.6548 28.743 70.973 27.6541C65.9005 24.3877 64.6425 17.3282 68.1729 11.9153C70.4725 8.43907 74.1833 6.37744 78.1196 6.37744C79.6075 6.37744 81.0549 6.68088 82.3805 7.26992C82.9306 6.85938 83.6114 6.61395 84.3509 6.61395H91.2405C93.0485 6.61395 94.5094 8.06423 94.5094 9.84918V25.6728C94.5094 27.4623 93.044 28.9081 91.2405 28.9081H84.3509C83.4536 28.9081 82.6375 28.5511 82.0468 27.9665C80.383 28.8411 78.5434 29.3141 76.6587 29.3141V29.3186Z" fill="white"/>
<path d="M86.7135 17.2252L85.4374 17.0556C85.4374 17.6402 85.3382 19.9561 83.9134 22.049C81.2802 25.9224 76.334 27.2611 72.7674 24.9451C69.1738 22.6336 68.3622 17.5911 70.9233 13.6731C73.5294 9.72834 78.4982 8.43871 82.0693 10.777C82.953 11.3616 83.8142 12.2407 84.3553 13.1376V9.85329H91.2449V25.6769H84.3553L84.2832 23.95C85.2661 23.0754 86.718 20.3935 86.718 17.2296L86.7135 17.2252ZM80.9331 20.5853C82.5067 18.1757 82.8268 15.7169 81.7176 15.0609C80.6355 14.4049 78.4937 15.8374 76.9472 18.2515C75.4232 20.688 75.0805 23.12 76.1626 23.776C77.2944 24.4364 79.4361 23.0441 80.9331 20.5853Z" fill="white"/>
<path d="M102.986 29.3005C96.5477 29.3005 91.2632 24.7444 90.88 19.0147C90.0098 18.4346 89.4326 17.4484 89.4326 16.3283V13.8919C89.4326 12.1025 90.898 10.6566 92.7016 10.6566C93.5357 10.6566 94.672 10.0631 95.0507 9.63475C95.0462 9.62582 95.0372 9.61244 95.0282 9.60351C94.3203 8.61732 94.2301 7.32323 94.7892 6.24779C95.3483 5.17236 96.471 4.49854 97.6929 4.49854H106.228C108.036 4.49854 109.497 5.94881 109.497 7.73377C109.497 8.75566 109.254 9.74185 108.789 10.6789C110.408 10.8708 111.661 12.2363 111.661 13.8919V16.3283C111.661 16.5425 111.639 16.7478 111.603 16.9531C111.643 17.1539 111.661 17.3592 111.661 17.5733V24.4633C111.661 25.5298 111.134 26.5249 110.246 27.1273C108.154 28.5508 105.642 29.305 102.977 29.305L102.986 29.3005Z" fill="white"/>
<path d="M94.1309 18.3455C94.1309 17.1764 94.8929 16.5204 95.0913 16.3241H92.7061V13.8876C95.5106 13.8876 100.159 11.1611 97.7019 7.72949H106.237C106.237 10.4783 102.549 12.9639 98.0446 14.1553L98.4369 15.2977C100.159 14.8336 101.12 14.3963 102.373 13.8876H108.402V16.3241H101.268C101.048 16.4222 100.236 17.3727 100.899 18.1269C101.589 18.9301 104.371 18.6356 105.281 18.4437C106.463 18.2027 107.518 17.8814 108.406 17.5691V24.459C106.905 25.4809 105.033 26.0655 102.995 26.0655C98.0987 26.0655 94.1399 22.6116 94.1399 18.3455H94.1309Z" fill="white"/>
<path d="M110.85 28.9124C109.042 28.9124 107.581 27.4621 107.581 25.6772V15.2084C107.581 14.9897 107.604 14.7755 107.644 14.5613C107.27 13.7715 107.062 12.8701 107.062 11.8973C107.062 7.71156 110.967 2.59766 115.521 2.59766C118.745 2.59766 121.175 5.10998 121.175 8.43893C121.175 9.31356 121.004 10.2283 120.693 11.1298C120.891 11.5492 121.004 12.0178 121.004 12.5086V25.6816C121.004 27.471 119.539 28.9169 117.735 28.9169H110.845L110.85 28.9124Z" fill="white"/>
<path d="M115.526 5.83307C116.856 5.83307 117.911 6.78356 117.911 8.43911C117.911 11.0184 115.278 14.499 112.721 14.499C111.368 14.499 110.336 13.5262 110.336 11.893C110.336 9.33605 112.969 5.82861 115.526 5.82861V5.83307ZM112.55 15.7173C115.354 15.7173 116.932 13.6467 117.744 12.5044V25.6773H110.854V15.2086C111.274 15.4763 111.964 15.7173 112.55 15.7173Z" fill="white"/>
<path d="M124.868 28.9124C123.547 28.9124 122.356 28.127 121.847 26.9177L115.205 11.094C114.786 10.0944 114.899 8.95653 115.507 8.05512C116.116 7.15372 117.135 6.61377 118.226 6.61377H125.359C126.631 6.61377 127.771 7.34114 128.313 8.45674C128.849 7.33668 129.994 6.61377 131.266 6.61377H138.399C139.49 6.61377 140.514 7.15372 141.118 8.05512C141.722 8.95653 141.835 10.0944 141.42 11.094L134.778 26.9177C134.273 28.1225 133.078 28.9124 131.757 28.9124H124.868Z" fill="white"/>
<path d="M118.23 9.84912H125.364L127.699 16.2036V20.8043H128.93V16.2036L131.27 9.84912H138.403L131.762 25.6728H124.872L118.23 9.84912Z" fill="white"/>
<path d="M142.403 28.9123C141.605 28.9123 140.834 28.6223 140.238 28.1002C138.602 26.6678 135.188 23.6824 135.125 18.1178C135.08 14.7175 136.171 11.7946 138.291 9.6705C141.587 6.3594 146.136 6.10059 147.448 6.10059C155.519 6.10059 159.131 10.4068 159.131 14.6684C159.131 16.1008 158.738 17.4485 158.049 18.6354C158.279 18.8541 158.477 19.104 158.639 19.3896C159.252 20.465 159.189 21.7948 158.481 22.8122L155.208 27.5111C154.599 28.3858 153.589 28.9123 152.516 28.9123H142.407H142.403Z" fill="white"/>
<path d="M138.39 18.0778C138.291 10.9915 144.247 9.33594 147.444 9.33594C153.053 9.33594 155.858 11.7233 155.858 14.6685C155.858 17.6137 153.053 20.0011 149.608 20.0011C147.246 20.0011 145.203 18.881 144.121 17.2254L143.26 18.0287C145.451 21.8753 152.287 21.1702 155.781 20.9739L152.508 25.6728H142.399C140.897 24.3608 138.435 22.1921 138.386 18.0778H138.39ZM148.576 15.0835C149.437 13.6198 149.464 12.0401 148.625 11.5761C147.787 11.0897 146.412 11.8929 145.55 13.3789C144.689 14.8872 144.662 16.4713 145.523 16.9309C146.312 17.395 147.688 16.5918 148.571 15.0835H148.576Z" fill="white"/>
<path d="M13.5795 53.3842C9.24192 53.3842 4.72851 52.4917 3.07826 51.3092C2.22607 50.7023 1.72559 49.725 1.72559 48.6853V42.6968C1.72559 41.5678 2.32076 40.5191 3.29468 39.9345C3.50209 39.8096 3.72303 39.7114 3.94847 39.6311C2.92045 38.578 2.21706 37.2035 2.21706 35.3695C2.21706 31.1838 5.53561 26.6768 12.8175 26.6768C17.1325 26.6768 21.195 27.6585 22.3899 28.1047C23.6614 28.5822 24.5 29.787 24.5 31.1302V36.8019C24.5 37.748 24.0807 38.6404 23.3683 39.2518C24.6038 40.3495 25.483 41.8578 25.483 43.9864C25.483 48.3194 22.3673 53.3842 13.5795 53.3842Z" fill="white"/>
<path d="M4.99414 48.6897V42.7012C6.61735 43.5312 8.51108 44.5263 11.5862 44.5263C12.7675 44.5263 15.058 44.6736 15.058 42.5049C15.058 39.4615 5.49012 39.9256 5.49012 35.3739C5.49012 33.0089 7.38386 29.9209 12.8216 29.9209C16.8796 29.9209 20.5228 30.8714 21.2352 31.1391V36.8108C19.8329 36.253 17.4928 35.4721 15.5991 35.4721C14.2464 35.4721 12.6953 35.7889 12.6953 36.9358C12.6953 40.0282 22.2181 39.1982 22.2181 43.9953C22.2181 45.7267 21.3569 50.1534 13.5836 50.1534C9.18291 50.1534 5.71106 49.2029 4.99865 48.6942L4.99414 48.6897Z" fill="white"/>
<path d="M30.677 53.4021C28.639 53.4021 26.6731 52.8265 24.9913 51.7376C19.9233 48.4712 18.6608 41.4117 22.1912 36.0032C24.4908 32.527 28.2016 30.4609 32.1379 30.4609C33.6258 30.4609 35.0732 30.7688 36.3988 31.3534C36.9489 30.9429 37.6297 30.6974 38.3692 30.6974H45.2588C47.0669 30.6974 48.5277 32.1477 48.5277 33.9327V49.7563C48.5277 51.5457 47.0623 52.9916 45.2588 52.9916H38.3692C37.4719 52.9916 36.6558 52.6346 36.0651 52.05C34.4013 52.9246 32.5617 53.3976 30.677 53.3976V53.4021Z" fill="white"/>
<path d="M40.7323 41.3135L39.4518 41.144C39.4518 41.7285 39.3526 44.0401 37.9278 46.1374C35.2946 50.0063 30.3483 51.3495 26.7818 49.0335C23.1927 46.722 22.3811 41.6795 24.9376 37.7615C27.5438 33.8167 32.5171 32.5271 36.0836 34.8654C36.9719 35.45 37.8331 36.3291 38.3742 37.226V33.9417H45.2638V49.7653H38.3742L38.302 48.0384C39.285 47.1593 40.7368 44.4818 40.7368 41.318L40.7323 41.3135ZM34.9474 44.6693C36.521 42.2596 36.8411 39.8008 35.7365 39.1448C34.6543 38.4888 32.5126 39.9213 30.9615 42.3354C29.4375 44.7719 29.0949 47.2039 30.177 47.8599C31.3087 48.5158 33.4504 47.128 34.9474 44.6693Z" fill="white"/>
<path d="M58.2849 52.9958C57.5996 52.9958 56.9638 52.7861 56.4408 52.4291C55.9133 52.7861 55.2775 52.9958 54.5921 52.9958H47.7025C45.8945 52.9958 44.4336 51.5455 44.4336 49.7606V33.9369C44.4336 32.1475 45.899 30.7017 47.7025 30.7017H54.5921C55.291 30.7017 55.9403 30.9204 56.4724 31.2907C57.9828 30.4786 59.4031 30.3135 60.323 30.3135C64.2457 30.3135 68.439 32.8481 68.439 39.9522V49.765C68.439 51.5545 66.9736 53.0003 65.17 53.0003H58.2804L58.2849 52.9958Z" fill="white"/>
<path d="M47.7076 33.9327H54.5972L54.6694 35.6597C53.9795 36.6102 52.7486 39.3858 52.2346 42.38L53.4655 42.5005C54.5476 36.6816 57.032 33.54 60.3281 33.54C63.6241 33.54 65.1751 35.8292 65.1751 39.9436V49.7564H58.2855V39.9436C58.2855 38.288 58.0646 37.3866 57.2259 37.3866C55.6027 37.3866 54.5927 41.7955 54.5927 49.7564H47.7031V33.9327H47.7076Z" fill="white"/>
<path d="M75.708 53.2327C71.7763 53.2327 68.0609 51.1666 65.7704 47.7082C62.2309 42.282 63.4889 35.2225 68.5659 31.9515C70.2387 30.8672 72.2046 30.2915 74.2471 30.2915C75.7666 30.2915 77.2636 30.5994 78.6569 31.1795L78.6704 30.238C78.6974 28.4664 80.1538 27.0474 81.9393 27.0474H88.8289C90.637 27.0474 92.0979 28.4976 92.0979 30.2826V49.761C92.0979 51.5504 90.6325 52.9962 88.8289 52.9962H81.9393C81.1999 52.9962 80.5145 52.7508 79.9689 52.3402C78.6388 52.9292 77.1915 53.2327 75.708 53.2327Z" fill="white"/>
<path d="M81.9435 46.4719C81.4024 47.3733 80.5412 48.248 79.653 48.8325C76.0864 51.1708 71.1176 49.8767 68.507 45.932C65.9504 42.014 66.762 36.9715 70.3511 34.66C73.9177 32.3485 78.8639 33.6872 81.4971 37.5561C82.9219 39.6489 83.0211 41.9649 83.0211 42.545L84.3017 42.3755C84.3017 39.2116 82.8498 36.5297 81.8668 35.6551L81.939 30.2734H88.8286V49.7518H81.939V46.4675L81.9435 46.4719ZM78.2507 44.6959C79.8243 42.2862 80.1444 39.8274 79.0353 39.1715C77.9531 38.511 75.8159 39.9479 74.2648 42.3576C72.7408 44.7941 72.3982 47.2261 73.4803 47.8865C74.612 48.5425 76.7538 47.1547 78.2507 44.6959Z" fill="white"/>
<path d="M99.4873 53.2324C95.5556 53.2324 91.8402 51.1663 89.5497 47.7079C86.0102 42.2817 87.2682 35.2222 92.3452 31.9512C94.0316 30.8579 96.0064 30.2778 98.0625 30.2778C101.999 30.2778 105.714 32.335 108.009 35.78C111.558 41.2107 110.295 48.2747 105.214 51.5456C103.536 52.6434 101.548 53.2324 99.4873 53.2324Z" fill="white"/>
<path d="M92.2873 45.9363C89.7307 42.0184 90.5423 36.9759 94.1314 34.6643C97.6979 32.3528 102.667 33.6424 105.277 37.5604C107.834 41.4784 107.022 46.5209 103.429 48.8324C99.8622 51.1707 94.8934 49.8766 92.2828 45.9319L92.2873 45.9363ZM102.302 44.7672C103.826 42.3307 104.173 39.8987 103.091 39.2383C101.959 38.5823 99.8171 39.9701 98.3157 42.4289C96.742 44.8386 96.4219 47.2974 97.5311 47.9578C98.6132 48.6138 100.755 47.1769 102.302 44.7672Z" fill="white"/>
<path d="M116.946 53.2324C113.01 53.2324 109.299 51.1663 107.009 47.7079C103.469 42.2817 104.727 35.2222 109.804 31.9512C111.491 30.8579 113.465 30.2778 115.521 30.2778C119.458 30.2778 123.173 32.335 125.468 35.78C129.012 41.2107 127.754 48.2747 122.677 51.5456C121 52.6434 119.011 53.2324 116.946 53.2324Z" fill="white"/>
<path d="M109.745 45.9363C107.189 42.0184 108 36.9759 111.589 34.6643C115.156 32.3528 120.125 33.6424 122.735 37.5604C125.292 41.4784 124.48 46.5209 120.891 48.8324C117.325 51.1707 112.356 49.8766 109.745 45.9319V45.9363ZM119.76 44.7672C121.284 42.3307 121.631 39.8987 120.549 39.2383C119.417 38.5823 117.275 39.9701 115.774 42.4289C114.2 44.8386 113.88 47.2974 114.989 47.9578C116.071 48.6138 118.213 47.1769 119.76 44.7672Z" fill="white"/>
<path d="M136.109 52.9962C135.564 52.9962 135.045 52.8623 134.585 52.6213C134.13 52.8578 133.611 52.9962 133.061 52.9962H126.199C124.391 52.9962 122.93 51.5459 122.93 49.761V30.2826C122.93 28.4932 124.395 27.0474 126.199 27.0474H132.989C134.797 27.0474 136.258 28.4976 136.258 30.2826V30.6976H142.507C143.779 30.6976 144.933 31.425 145.47 32.5673C146.006 33.7053 145.826 35.0529 145.01 36.0168L142.643 38.8013L146.529 48.574C146.926 49.5691 146.8 50.6936 146.191 51.5816C145.582 52.4696 144.572 52.9962 143.49 52.9962H136.109Z" fill="white"/>
<path d="M126.193 30.2823H132.984V34.227L128.777 38.7073L129.638 39.5819L134.877 33.9325H142.507L138.89 38.1941L143.49 49.7606H136.108L133.822 43.7453L133.06 44.62V49.7562H126.198V30.2778L126.193 30.2823Z" fill="white"/>
<path d="M154.627 52.9962C154.081 52.9962 153.563 52.8623 153.103 52.6213C152.647 52.8578 152.129 52.9962 151.579 52.9962H144.716C142.908 52.9962 141.447 51.5459 141.447 49.761V30.2826C141.447 28.4932 142.913 27.0474 144.716 27.0474H151.507C153.315 27.0474 154.776 28.4976 154.776 30.2826V30.6976H161.025C162.296 30.6976 163.451 31.425 163.987 32.5673C164.524 33.7053 164.343 35.0529 163.527 36.0168L161.16 38.8013L165.047 48.574C165.444 49.5691 165.317 50.6936 164.709 51.5816C164.1 52.4696 163.09 52.9962 162.008 52.9962H154.627Z" fill="white"/>
<path d="M144.712 30.2823H151.502V34.227L147.296 38.7073L148.157 39.5819L153.396 33.9325H161.025L157.409 38.1941L162.008 49.7606H154.627L152.341 43.7453L151.579 44.62V49.7562H144.716V30.2778L144.712 30.2823Z" fill="white"/>
<path d="M10.6485 16.4981C10.5493 7.92584 17.732 5.93115 21.6231 5.93115C28.364 5.93115 31.7592 8.77816 31.8042 12.3347C31.8042 14.5034 30.6229 15.793 30.2081 16.3285H23.589C25.83 11.9732 25.0905 8.46579 21.3256 8.46579C19.1613 8.46579 17.2901 10.0499 17.2901 13.4324C17.2901 16.8149 17.3622 22.1966 31.7051 20.7374L27.7462 25.6817H15.5181C13.6965 24.102 10.7206 21.4692 10.6485 16.5026V16.4981Z" fill="#121212"/>
<path d="M33.2744 9.84923H40.164L40.2362 11.3352C39.5463 12.2857 38.3154 15.3023 37.8014 18.2965L38.9556 18.417C39.889 12.5981 42.1028 9.45654 45.4034 9.45654C48.7039 9.45654 49.759 12.2322 49.759 16.3465H42.8694C42.8694 14.6909 43.1399 13.3031 42.3283 13.3031C41.174 13.3031 40.164 17.712 40.164 25.6729H33.2744V9.84923Z" fill="#121212"/>
<path d="M50.485 18.0778C50.3858 10.9915 56.342 9.33594 59.5389 9.33594C65.1479 9.33594 67.9525 11.7233 67.9525 14.6685C67.9525 17.6137 65.1479 20.0011 61.7031 20.0011C59.3405 20.0011 57.2979 18.881 56.2158 17.2254L55.3546 18.0287C57.5414 21.8753 64.3814 21.1702 67.8758 20.9739L64.6024 25.6728H54.4934C52.9919 24.3608 50.5346 22.1921 50.4805 18.0778H50.485ZM60.6706 15.0835C61.5318 13.6198 61.5543 12.0401 60.7202 11.5761C59.886 11.0897 58.5063 11.8929 57.6451 13.3789C56.7839 14.8872 56.7614 16.4713 57.6181 16.9309C58.4071 17.395 59.7823 16.5918 60.6706 15.0835Z" fill="#121212"/>
<path d="M86.7135 17.2257L85.4374 17.0561C85.4374 17.6407 85.3382 19.9566 83.9134 22.0495C81.2802 25.9229 76.334 27.2616 72.7674 24.9456C69.1738 22.6341 68.3622 17.5916 70.9233 13.6736C73.5294 9.72883 78.4982 8.4392 82.0693 10.7775C82.953 11.3621 83.8142 12.2412 84.3553 13.1381V9.85378H91.2449V25.6774H84.3553L84.2832 23.9505C85.2661 23.0759 86.718 20.394 86.718 17.2301L86.7135 17.2257ZM80.9331 20.5858C82.5067 18.1761 82.8268 15.7174 81.7176 15.0614C80.6355 14.4054 78.4937 15.8378 76.9472 18.252C75.4232 20.6885 75.0805 23.1205 76.1626 23.7764C77.2944 24.4369 79.4361 23.0446 80.9331 20.5858Z" fill="#121212"/>
<path d="M94.1309 18.3455C94.1309 17.1764 94.8929 16.5204 95.0913 16.3241H92.7061V13.8876C95.5106 13.8876 100.159 11.1611 97.7019 7.72949H106.237C106.237 10.4783 102.549 12.9639 98.0446 14.1553L98.4369 15.2977C100.159 14.8336 101.12 14.3963 102.373 13.8876H108.402V16.3241H101.268C101.048 16.4222 100.236 17.3727 100.899 18.1269C101.589 18.9301 104.371 18.6356 105.281 18.4437C106.463 18.2027 107.518 17.8814 108.406 17.5691V24.459C106.905 25.4809 105.033 26.0655 102.995 26.0655C98.0987 26.0655 94.1399 22.6116 94.1399 18.3455H94.1309Z" fill="#121212"/>
<path d="M115.526 5.83307C116.856 5.83307 117.911 6.78356 117.911 8.43911C117.911 11.0184 115.278 14.499 112.721 14.499C111.368 14.499 110.336 13.5262 110.336 11.893C110.336 9.33605 112.969 5.82861 115.526 5.82861V5.83307ZM112.55 15.7173C115.354 15.7173 116.932 13.6467 117.744 12.5044V25.6773H110.854V15.2086C111.274 15.4763 111.964 15.7173 112.55 15.7173Z" fill="#121212"/>
<path d="M118.23 9.84912H125.364L127.699 16.2036V20.8043H128.93V16.2036L131.27 9.84912H138.403L131.762 25.6728H124.872L118.23 9.84912Z" fill="#121212"/>
<path d="M138.39 18.0778C138.291 10.9915 144.247 9.33594 147.444 9.33594C153.053 9.33594 155.858 11.7233 155.858 14.6685C155.858 17.6137 153.053 20.0011 149.608 20.0011C147.246 20.0011 145.203 18.881 144.121 17.2254L143.26 18.0287C145.451 21.8753 152.287 21.1702 155.781 20.9739L152.508 25.6728H142.399C140.897 24.3608 138.435 22.1921 138.386 18.0778H138.39ZM148.576 15.0835C149.437 13.6198 149.464 12.0401 148.625 11.5761C147.787 11.0897 146.412 11.8929 145.55 13.3789C144.689 14.8872 144.662 16.4713 145.523 16.9309C146.312 17.395 147.688 16.5918 148.571 15.0835H148.576Z" fill="#121212"/>
<path d="M4.99414 48.6897V42.7012C6.61735 43.5312 8.51108 44.5263 11.5862 44.5263C12.7675 44.5263 15.058 44.6736 15.058 42.5049C15.058 39.4615 5.49012 39.9256 5.49012 35.3739C5.49012 33.0089 7.38386 29.9209 12.8216 29.9209C16.8796 29.9209 20.5228 30.8714 21.2352 31.1391V36.8108C19.8329 36.253 17.4928 35.4721 15.5991 35.4721C14.2464 35.4721 12.6953 35.7889 12.6953 36.9358C12.6953 40.0282 22.2181 39.1982 22.2181 43.9953C22.2181 45.7267 21.3569 50.1534 13.5836 50.1534C9.18291 50.1534 5.71106 49.2029 4.99865 48.6942L4.99414 48.6897Z" fill="#121212"/>
<path d="M40.7313 41.3135L39.4508 41.144C39.4508 41.7285 39.3516 44.0401 37.9268 46.1374C35.2936 50.0063 30.3473 51.3495 26.7808 49.0335C23.1917 46.722 22.3801 41.6795 24.9367 37.7615C27.5428 33.8167 32.5161 32.5271 36.0827 34.8654C36.9709 35.45 37.8321 36.3291 38.3732 37.226V33.9417H45.2628V49.7653H38.3732L38.301 48.0384C39.284 47.1593 40.7359 44.4818 40.7359 41.318L40.7313 41.3135ZM34.9464 44.6693C36.52 42.2596 36.8402 39.8008 35.7355 39.1448C34.6533 38.4888 32.5116 39.9213 30.9606 42.3354C29.4365 44.7719 29.0939 47.2039 30.176 47.8599C31.3077 48.5158 33.4495 47.128 34.9464 44.6693Z" fill="#121212"/>
<path d="M47.7067 33.9327H54.5963L54.6684 35.6597C53.9785 36.6102 52.7476 39.3858 52.2336 42.38L53.4645 42.5005C54.5467 36.6816 57.0311 33.54 60.3271 33.54C63.6231 33.54 65.1741 35.8292 65.1741 39.9436V49.7564H58.2845V39.9436C58.2845 38.288 58.0636 37.3866 57.2249 37.3866C55.6017 37.3866 54.5917 41.7955 54.5917 49.7564H47.7021V33.9327H47.7067Z" fill="#121212"/>
<path d="M81.9435 46.4719C81.4024 47.3733 80.5412 48.248 79.653 48.8325C76.0864 51.1708 71.1176 49.8767 68.507 45.932C65.9504 42.014 66.762 36.9715 70.3511 34.66C73.9177 32.3485 78.8639 33.6872 81.4971 37.5561C82.9219 39.6489 83.0211 41.9649 83.0211 42.545L84.3017 42.3755C84.3017 39.2116 82.8498 36.5297 81.8668 35.6551L81.939 30.2734H88.8286V49.7518H81.939V46.4675L81.9435 46.4719ZM78.2507 44.6959C79.8243 42.2862 80.1444 39.8274 79.0353 39.1715C77.9531 38.511 75.8159 39.9479 74.2648 42.3576C72.7408 44.7941 72.3982 47.2261 73.4803 47.8865C74.612 48.5425 76.7538 47.1547 78.2507 44.6959Z" fill="#121212"/>
<path d="M92.2863 45.9363C89.7297 42.0184 90.5413 36.9759 94.1304 34.6643C97.697 32.3528 102.666 33.6424 105.276 37.5604C107.833 41.4784 107.021 46.5209 103.428 48.8324C99.8612 51.1707 94.8924 49.8766 92.2818 45.9319L92.2863 45.9363ZM102.301 44.7672C103.825 42.3307 104.172 39.8987 103.09 39.2383C101.958 38.5823 99.8161 39.9701 98.3147 42.4289C96.7411 44.8386 96.4209 47.2974 97.5301 47.9578C98.6123 48.6138 100.754 47.1769 102.301 44.7672Z" fill="#121212"/>
<path d="M109.745 45.9363C107.189 42.0184 108 36.9759 111.589 34.6643C115.156 32.3528 120.125 33.6424 122.735 37.5604C125.292 41.4784 124.48 46.5209 120.891 48.8324C117.325 51.1707 112.356 49.8766 109.745 45.9319V45.9363ZM119.76 44.7672C121.284 42.3307 121.631 39.8987 120.549 39.2383C119.417 38.5823 117.275 39.9701 115.774 42.4289C114.2 44.8386 113.88 47.2974 114.989 47.9578C116.071 48.6138 118.213 47.1769 119.76 44.7672Z" fill="#121212"/>
<path d="M126.193 30.2823H132.984V34.227L128.777 38.7073L129.638 39.5819L134.877 33.9325H142.507L138.89 38.1941L143.49 49.7606H136.108L133.822 43.7453L133.06 44.62V49.7562H126.198V30.2778L126.193 30.2823Z" fill="#121212"/>
<path d="M144.712 30.2823H151.502V34.227L147.296 38.7073L148.157 39.5819L153.396 33.9325H161.025L157.409 38.1941L162.008 49.7606H154.627L152.341 43.7453L151.579 44.62V49.7562H144.716V30.2778L144.712 30.2823Z" fill="#121212"/>
</svg>
