<?xml version="1.0" encoding="UTF-8"?>
<svg id="Layer_2" data-name="Layer 2" xmlns="http://www.w3.org/2000/svg" viewBox="0 0 536.9 173.45">
  <defs>
    <style>
      .cls-1 {
        fill: #231f20;
      }
    </style>
  </defs>
  <g id="Layer_1-2" data-name="Layer 1">
    <g>
      <g>
        <path class="cls-1" d="M225.97,73.55c4.97,0,7.09-2.72,7.09-8.16v-14.9h12.53v13.01c0,15.13-7.09,21.87-20.1,21.87s-20.1-6.74-20.1-21.87V21.87c0-15.13,7.21-21.87,20.1-21.87s20.1,6.74,20.1,21.87v10.52h-12.53v-12.42c0-5.44-2.13-8.16-7.09-8.16s-6.98,2.72-6.98,8.16v45.4c0,5.44,2.01,8.16,6.98,8.16Z"/>
        <path class="cls-1" d="M253.88,84.07V22.82h11.23v8.16c1.66-5.32,6.03-9.46,12.65-9.46,7.45,0,11.94,3.78,11.94,16.67v15.96h-11.11v-14.78c0-5.79-1.89-7.57-5.68-7.57-4.14,0-6.98,3.67-6.98,8.39v43.87h-12.06Z"/>
        <path class="cls-1" d="M307.32,56.99v10.52c0,4.97,1.89,7.57,6.62,7.57s6.5-2.6,6.5-7.57v-4.02h11.11v2.37c0,13.36-6.5,19.51-18.09,19.51s-18.09-6.15-18.09-19.51v-24.83c0-13.36,6.39-19.51,18.09-19.51s18.09,6.15,18.09,19.51v15.96h-24.24ZM307.32,47.18h13.13v-7.8c0-4.97-2.01-7.57-6.5-7.57-4.73,0-6.62,2.6-6.62,7.57v7.8Z"/>
        <path class="cls-1" d="M363.36,76.62c-1.77,4.97-6.15,8.75-12.42,8.75-7.57,0-13.12-3.67-13.12-15.96v-.95c0-22.23,25.07-18.09,25.07-28.38v-.71c0-4.97-1.77-7.69-6.15-7.69s-6.27,2.72-6.27,7.69v4.49h-11.23v-2.96c0-13.36,6.15-19.39,17.97-19.39s17.74,6.03,17.74,19.39v23.17c0,10.29.24,14.43,1.3,19.98h-11.47c-.71-1.77-1.18-4.49-1.42-7.45ZM362.89,53.92c-6.03,3.07-13.13,4.97-13.13,13.36v.83c0,5.56,2.13,7.09,5.91,7.09,4.26,0,7.21-3.67,7.21-8.39v-12.89Z"/>
        <path class="cls-1" d="M385.94,71.3v-38.19h-5.2v-10.29h5.2v-13.12h11.94v13.12h8.75v10.29h-8.75v36.54c0,3.31,1.3,4.61,4.14,4.61,2.13,0,3.31,0,4.61-.35v10.17c-2.25.47-5.08.71-7.8.71-9.1,0-12.89-3.67-12.89-13.48Z"/>
        <path class="cls-1" d="M412.55,13.6V1.3h12.06v12.3h-12.06ZM412.55,84.07V22.82h12.06v61.25h-12.06Z"/>
        <path class="cls-1" d="M459.72,22.82h11.35l-13.12,61.25h-14.9l-13.12-61.25h12.41l5.68,28.38c1.3,6.62,2.48,14.19,2.96,19.86.71-5.68,1.77-13.24,3.07-19.86l5.68-28.38Z"/>
        <path class="cls-1" d="M487.39,56.99v10.52c0,4.97,1.89,7.57,6.62,7.57s6.5-2.6,6.5-7.57v-4.02h11.11v2.37c0,13.36-6.5,19.51-18.09,19.51s-18.09-6.15-18.09-19.51v-24.83c0-13.36,6.39-19.51,18.09-19.51s18.09,6.15,18.09,19.51v15.96h-24.24ZM487.39,47.18h13.12v-7.8c0-4.97-2.01-7.57-6.5-7.57-4.73,0-6.62,2.6-6.62,7.57v7.8Z"/>
      </g>
      <g>
        <path class="cls-1" d="M216.21,154.9c0,5.05,1.65,7.57,6.15,7.57s6.26-2.52,6.26-7.57v-1.65c0-17.01-24.15-13.94-24.15-39.95v-.22c0-12.62,6.15-18.88,18.44-18.88s18.33,6.26,18.33,20.3v5.82h-11.74v-7.57c0-5.05-1.65-7.57-6.15-7.57s-6.26,2.52-6.26,7.57v.66c0,17.12,24.15,14.05,24.15,39.95v1.32c0,12.51-6.15,18.77-18.44,18.77s-18.33-6.37-18.33-20.3v-7.79h11.74v9.55Z"/>
        <path class="cls-1" d="M270.43,165.33c-1.65,4.61-5.71,8.12-11.52,8.12-7.02,0-12.18-3.4-12.18-14.82v-.88c0-20.63,23.27-16.79,23.27-26.34v-.66c0-4.61-1.65-7.13-5.71-7.13s-5.82,2.52-5.82,7.13v4.17h-10.43v-2.74c0-12.4,5.71-18,16.68-18s16.46,5.6,16.46,18v21.51c0,9.55.22,13.39,1.21,18.55h-10.65c-.66-1.65-1.1-4.17-1.32-6.91ZM269.99,144.25c-5.6,2.85-12.18,4.61-12.18,12.4v.77c0,5.16,1.98,6.59,5.49,6.59,3.95,0,6.69-3.4,6.69-7.79v-11.96Z"/>
        <path class="cls-1" d="M289.63,172.24v-56.85h10.43v7.68c1.54-4.94,5.71-8.89,11.85-8.89,7.02,0,12.18,3.73,12.18,15.8v42.25h-11.19v-41.49c0-5.38-1.87-7.02-5.49-7.02-3.84,0-6.59,3.4-6.59,7.79v40.72h-11.19Z"/>
        <path class="cls-1" d="M355.37,165.44c-1.76,4.61-5.93,8.01-11.63,8.01-7.02,0-12.18-3.73-12.18-15.8v-27.66c0-12.07,5.16-15.8,12.18-15.8,5.27,0,9.22,2.96,11.19,7.02v-25.79h11.08v58.28c0,9.55.22,13.39,1.32,18.55h-10.76c-.66-1.65-.99-4.06-1.21-6.8ZM354.94,131.52c0-4.39-2.85-7.79-6.69-7.79-3.62,0-5.49,1.65-5.49,7.02v26.12c0,5.38,1.87,7.02,5.49,7.02,3.84,0,6.69-3.4,6.69-7.79v-24.58Z"/>
        <path class="cls-1" d="M391.26,173.45c-11.08,0-17.23-5.71-17.23-18.11v-23.05c0-12.4,6.15-18.11,17.23-18.11s17.12,5.71,17.12,18.11v23.05c0,12.4-6.15,18.11-17.12,18.11ZM391.26,123.73c-4.39,0-6.15,2.41-6.15,7.02v26.12c0,4.61,1.76,7.02,6.15,7.02s6.04-2.41,6.04-7.02v-26.12c0-4.61-1.87-7.02-6.04-7.02Z"/>
        <path class="cls-1" d="M432.64,173.45c-11.08,0-17.23-5.71-17.23-18.11v-23.05c0-12.4,6.15-18.11,17.23-18.11s17.12,5.71,17.12,18.11v23.05c0,12.4-6.15,18.11-17.12,18.11ZM432.64,123.73c-4.39,0-6.15,2.41-6.15,7.02v26.12c0,4.61,1.76,7.02,6.15,7.02s6.04-2.41,6.04-7.02v-26.12c0-4.61-1.87-7.02-6.04-7.02Z"/>
        <path class="cls-1" d="M468.97,141.84c1.54-3.51,3.4-7.46,6.59-13.06l7.57-13.39h10.65l-12.84,23.71,13.94,33.14h-11.63l-9.55-23.38-4.72,8.12v15.26h-11.19v-76.83h11.19v46.42Z"/>
        <path class="cls-1" d="M511,141.84c1.54-3.51,3.4-7.46,6.59-13.06l7.57-13.39h10.65l-12.84,23.71,13.94,33.14h-11.63l-9.55-23.38-4.72,8.12v15.26h-11.19v-76.83h11.19v46.42Z"/>
      </g>
      <path class="cls-1" d="M24.02,31.68c-.45.45-.72,1.07-.72,1.75,0,13.54,10.98,24.52,24.52,24.52h132.03c.66,0,1.2.54,1.2,1.2h0c0,13.76-11.16,24.92-24.92,24.92H1.2c-.66,0-1.2-.54-1.2-1.2V6.03c0-.66.54-1.2,1.2-1.2h178.64c.66,0,1.2.54,1.2,1.2v23.72c0,.66-.54,1.2-1.2,1.2H25.77c-.68,0-1.3.28-1.75.72Z"/>
      <path class="cls-1" d="M157.03,119.85c.45.45.72,1.07.72,1.75,0,13.54-10.98,24.52-24.52,24.52H1.2c-.66,0-1.2.54-1.2,1.2v23.72c0,.66.54,1.2,1.2,1.2h178.64c.66,0,1.2-.54,1.2-1.2v-76.83c0-.66-.54-1.2-1.2-1.2H25.45c-14.05,0-25.45,11.39-25.45,25.45h0c0,.37.3.67.67.67h154.6c.68,0,1.3.28,1.75.72Z"/>
    </g>
  </g>
</svg>